<?xml version="1.0" encoding="UTF-8"?>
<svg id="Layer_1" data-name="Layer 1" xmlns="http://www.w3.org/2000/svg" viewBox="0 0 200 200">
  <path d="M38.85,64.01c0,5.03-2.02,9.92-5.57,13.44l-.1.1c-3.6,3.62-6.01,7.99-7.21,12.62h-15.76c-2.29,0-3.7-2.51-2.51-4.45,1.58-2.57,3.5-5.04,5.45-7.49,3.49-4.39,7.07-8.7,8.95-13.23,1.95-4.7,2.54-10.35,3.21-15.95.36-2.99.74-5.97,1.37-8.77.51-2.24,3.3-3.01,4.93-1.39l.73.73,10.3,10.3c-2.41,4.12-3.79,8.92-3.79,14.03v.07Z"/>
  <path d="M75.83,90.18h-40.57c.92-2.32,2.32-4.49,4.18-6.37l.09-.09c5.19-5.16,8.16-12.35,8.16-19.71v-.07c0-2.64.54-5.16,1.52-7.45l28.68,28.68c1.85,1.85.54,5-2.07,5Z"/>
  <path d="M92.92,7.48v15.76c-4.62,1.2-9,3.6-12.63,7.21l-.06.06c-3.51,3.53-8.41,5.56-13.43,5.56h-.08c-5.14,0-9.95,1.4-14.09,3.83l-11.02-11.02c-1.62-1.62-.84-4.41,1.4-4.92,2.8-.63,5.77-1.02,8.76-1.37,5.6-.68,11.26-1.27,15.96-3.21,4.54-1.88,8.84-5.46,13.24-8.95,2.45-1.95,4.93-3.86,7.49-5.44,1.95-1.2,4.45.22,4.45,2.51Z"/>
  <path d="M86.54,36.71c1.88-1.87,4.06-3.27,6.38-4.19v40.57c0,2.61-3.16,3.92-5,2.07l-28.7-28.7c2.31-1,4.85-1.55,7.52-1.55h.08c7.36,0,14.54-2.98,19.69-8.16l.04-.04Z"/>
  <path d="M133.3,44.91c2.66,0,5.2.55,7.5,1.54l-28.71,28.71c-1.85,1.85-5,.54-5-2.07v-40.56c2.33.93,4.51,2.34,6.39,4.22,5.19,5.19,12.36,8.16,19.7,8.16h.12Z"/>
  <path d="M158.37,28.87l-11.01,11.01c-4.13-2.42-8.94-3.82-14.07-3.82h-.12c-5,0-9.9-2.03-13.46-5.59-3.62-3.62-8-6.03-12.63-7.23V7.48c0-2.29,2.51-3.7,4.45-2.51,2.57,1.58,5.04,3.5,7.49,5.44,4.39,3.49,8.7,7.07,13.23,8.95,4.7,1.95,10.36,2.54,15.95,3.21,3,.36,5.97.75,8.77,1.38,2.24.51,3.02,3.3,1.4,4.92Z"/>
  <path d="M38.85,130.5c0,5.13,1.39,9.94,3.82,14.08l-11.05,11.05c-1.62,1.62-4.41.84-4.92-1.4-.64-2.8-1.02-5.78-1.38-8.78-.67-5.59-1.26-11.24-3.21-15.93-1.88-4.53-5.46-8.84-8.95-13.23-1.95-2.45-3.86-4.93-5.45-7.5-1.2-1.95.22-4.45,2.51-4.45h15.76c1.2,4.64,3.62,9.02,7.24,12.64l.06.06c3.54,3.54,5.57,8.44,5.57,13.46Z"/>
  <path d="M77.91,109.34l-28.66,28.66c-1-2.31-1.55-4.85-1.55-7.52,0-7.33-2.97-14.51-8.16-19.7l-.06-.06c-1.88-1.88-3.28-4.05-4.21-6.38h40.57c2.61,0,3.92,3.16,2.07,5Z"/>
  <path d="M92.92,121.42v40.57c-2.32-.93-4.5-2.33-6.38-4.21l-.09-.09c-5.19-5.19-12.36-8.16-19.72-8.16-2.65,0-5.18-.54-7.47-1.53l28.66-28.66c1.85-1.85,5-.54,5,2.07Z"/>
  <path d="M80.29,164.05c3.62,3.62,8,6.03,12.63,7.24v15.75c0,2.29-2.51,3.7-4.45,2.51-2.57-1.59-5.06-3.51-7.51-5.47-4.39-3.49-8.69-7.06-13.22-8.93-4.69-1.95-10.35-2.54-15.94-3.21-3-.36-5.98-.75-8.77-1.38-2.24-.51-3.02-3.3-1.4-4.92l.73-.73,10.32-10.32c4.14,2.42,8.94,3.8,14.07,3.8s9.9,2.03,13.44,5.57l.09.09Z"/>
  <path d="M115.59,101.33c-1.08,1.07-1.69,2.54-1.69,4.06h0c0,3.19-2.57,5.76-5.75,5.76h-.01c-1.53,0-2.99.61-4.06,1.69h-.01c-2.25,2.26-5.89,2.26-8.13.02l-.02-.02c-1.07-1.07-2.54-1.68-4.06-1.68h0c-3.17,0-5.75-2.57-5.75-5.75h0c0-1.53-.61-2.99-1.68-4.06l-.02-.02c-2.24-2.24-2.24-5.88,0-8.12l.02-.02c1.08-1.07,1.68-2.54,1.68-4.06v-.02c0-3.17,2.57-5.75,5.75-5.75h.02c1.52,0,2.98-.6,4.06-1.68h.01c2.25-2.25,5.88-2.25,8.12,0h0c1.07,1.08,2.54,1.69,4.06,1.69h.03c3.17,0,5.75,2.57,5.75,5.75v.03c0,1.52.61,2.98,1.68,4.06h.01c2.24,2.25,2.24,5.89,0,8.14Z"/>
  <path d="M113.48,157.77c-1.88,1.88-4.06,3.29-6.39,4.22v-40.56c0-2.61,3.16-3.92,5-2.07l28.66,28.66c-2.29.98-4.81,1.52-7.45,1.52h-.05c-7.36,0-14.55,2.98-19.72,8.18l-.05.05Z"/>
  <path d="M156.98,170.56c-2.81.63-5.79,1.01-8.8,1.38-5.59.67-11.23,1.26-15.92,3.2-4.52,1.87-8.82,5.44-13.21,8.93-2.46,1.95-4.94,3.88-7.52,5.47-1.95,1.2-4.45-.22-4.45-2.51v-15.76c4.64-1.21,9.03-3.63,12.65-7.26l.06-.06c3.53-3.55,8.43-5.58,13.45-5.58h.05c5.11,0,9.9-1.38,14.02-3.8l10.31,10.31.74.74c1.62,1.62.84,4.42-1.39,4.93Z"/>
  <path d="M160.51,110.73c-5.2,5.17-8.19,12.36-8.19,19.77,0,2.67-.55,5.21-1.55,7.52l-28.69-28.69c-1.85-1.85-.54-5,2.07-5h40.58c-.94,2.37-2.37,4.54-4.22,6.39Z"/>
  <path d="M192.29,108.79c-1.58,2.57-3.51,5.06-5.46,7.51-3.49,4.39-7.06,8.69-8.93,13.22-1.95,4.68-2.53,10.34-3.21,15.92-.36,3-.74,5.99-1.38,8.8-.51,2.24-3.3,3.02-4.92,1.4l-11.04-11.04c2.44-4.15,3.83-8.98,3.83-14.13s2.04-9.92,5.59-13.46c3.56-3.56,6.04-7.91,7.27-12.66h15.74c2.29,0,3.7,2.51,2.51,4.45Z"/>
  <path d="M160.53,83.81c1.85,1.85,3.27,4.01,4.21,6.37h-40.57c-2.61,0-3.92-3.16-2.07-5l28.7-28.7c.99,2.29,1.53,4.82,1.53,7.47v.12c0,7.33,2.97,14.51,8.16,19.7l.04.04Z"/>
  <path d="M189.78,90.18h-15.73c-1.23-4.74-3.71-9.08-7.27-12.64l-.04-.04c-3.53-3.54-5.56-8.44-5.56-13.44v-.12c0-5.12-1.39-9.92-3.8-14.05l11.01-11.01c1.62-1.62,4.41-.84,4.92,1.4.63,2.8,1.02,5.78,1.38,8.77.67,5.59,1.26,11.25,3.21,15.94,1.88,4.52,5.45,8.83,8.94,13.22,1.95,2.45,3.88,4.94,5.46,7.5,1.2,1.95-.22,4.45-2.51,4.45Z"/>
  <path d="M38.85,64.01c0,5.03-2.02,9.92-5.57,13.44l-.1.1c-3.6,3.62-6.01,7.99-7.21,12.62h-15.76c-2.29,0-3.7-2.51-2.51-4.45,1.58-2.57,3.5-5.04,5.45-7.49,3.49-4.39,7.07-8.7,8.95-13.23,1.95-4.7,2.54-10.35,3.21-15.95.36-2.99.74-5.97,1.37-8.77.51-2.24,3.3-3.01,4.93-1.39l.73.73,10.3,10.3c-2.41,4.12-3.79,8.92-3.79,14.03v.07Z"/>
  <path d="M75.83,90.18h-40.57c.92-2.32,2.32-4.49,4.18-6.37l.09-.09c5.19-5.16,8.16-12.35,8.16-19.71v-.07c0-2.64.54-5.16,1.52-7.45l28.68,28.68c1.85,1.85.54,5-2.07,5Z"/>
  <path d="M92.92,7.48v15.76c-4.62,1.2-9,3.6-12.63,7.21l-.06.06c-3.51,3.53-8.41,5.56-13.43,5.56h-.08c-5.14,0-9.95,1.4-14.09,3.83l-11.02-11.02c-1.62-1.62-.84-4.41,1.4-4.92,2.8-.63,5.77-1.02,8.76-1.37,5.6-.68,11.26-1.27,15.96-3.21,4.54-1.88,8.84-5.46,13.24-8.95,2.45-1.95,4.93-3.86,7.49-5.44,1.95-1.2,4.45.22,4.45,2.51Z"/>
  <path d="M86.54,36.71c1.88-1.87,4.06-3.27,6.38-4.19v40.57c0,2.61-3.16,3.92-5,2.07l-28.7-28.7c2.31-1,4.85-1.55,7.52-1.55h.08c7.36,0,14.54-2.98,19.69-8.16l.04-.04Z"/>
  <path d="M133.3,44.91c2.66,0,5.2.55,7.5,1.54l-28.71,28.71c-1.85,1.85-5,.54-5-2.07v-40.56c2.33.93,4.51,2.34,6.39,4.22,5.19,5.19,12.36,8.16,19.7,8.16h.12Z"/>
  <path d="M158.37,28.87l-11.01,11.01c-4.13-2.42-8.94-3.82-14.07-3.82h-.12c-5,0-9.9-2.03-13.46-5.59-3.62-3.62-8-6.03-12.63-7.23V7.48c0-2.29,2.51-3.7,4.45-2.51,2.57,1.58,5.04,3.5,7.49,5.44,4.39,3.49,8.7,7.07,13.23,8.95,4.7,1.95,10.36,2.54,15.95,3.21,3,.36,5.97.75,8.77,1.38,2.24.51,3.02,3.3,1.4,4.92Z"/>
  <path d="M38.85,130.5c0,5.13,1.39,9.94,3.82,14.08l-11.05,11.05c-1.62,1.62-4.41.84-4.92-1.4-.64-2.8-1.02-5.78-1.38-8.78-.67-5.59-1.26-11.24-3.21-15.93-1.88-4.53-5.46-8.84-8.95-13.23-1.95-2.45-3.86-4.93-5.45-7.5-1.2-1.95.22-4.45,2.51-4.45h15.76c1.2,4.64,3.62,9.02,7.24,12.64l.06.06c3.54,3.54,5.57,8.44,5.57,13.46Z"/>
  <path d="M77.91,109.34l-28.66,28.66c-1-2.31-1.55-4.85-1.55-7.52,0-7.33-2.97-14.51-8.16-19.7l-.06-.06c-1.88-1.88-3.28-4.05-4.21-6.38h40.57c2.61,0,3.92,3.16,2.07,5Z"/>
  <path d="M92.92,121.42v40.57c-2.32-.93-4.5-2.33-6.38-4.21l-.09-.09c-5.19-5.19-12.36-8.16-19.72-8.16-2.65,0-5.18-.54-7.47-1.53l28.66-28.66c1.85-1.85,5-.54,5,2.07Z"/>
  <path d="M80.29,164.05c3.62,3.62,8,6.03,12.63,7.24v15.75c0,2.29-2.51,3.7-4.45,2.51-2.57-1.59-5.06-3.51-7.51-5.47-4.39-3.49-8.69-7.06-13.22-8.93-4.69-1.95-10.35-2.54-15.94-3.21-3-.36-5.98-.75-8.77-1.38-2.24-.51-3.02-3.3-1.4-4.92l.73-.73,10.32-10.32c4.14,2.42,8.94,3.8,14.07,3.8s9.9,2.03,13.44,5.57l.09.09Z"/>
  <path d="M113.48,157.77c-1.88,1.88-4.06,3.29-6.39,4.22v-40.56c0-2.61,3.16-3.92,5-2.07l28.66,28.66c-2.29.98-4.81,1.52-7.45,1.52h-.05c-7.36,0-14.55,2.98-19.72,8.18l-.05.05Z"/>
  <path d="M156.98,170.56c-2.81.63-5.79,1.01-8.8,1.38-5.59.67-11.23,1.26-15.92,3.2-4.52,1.87-8.82,5.44-13.21,8.93-2.46,1.95-4.94,3.88-7.52,5.47-1.95,1.2-4.45-.22-4.45-2.51v-15.76c4.64-1.21,9.03-3.63,12.65-7.26l.06-.06c3.53-3.55,8.43-5.58,13.45-5.58h.05c5.11,0,9.9-1.38,14.02-3.8l10.31,10.31.74.74c1.62,1.62.84,4.42-1.39,4.93Z"/>
  <path d="M160.51,110.73c-5.2,5.17-8.19,12.36-8.19,19.77,0,2.67-.55,5.21-1.55,7.52l-28.69-28.69c-1.85-1.85-.54-5,2.07-5h40.58c-.94,2.37-2.37,4.54-4.22,6.39Z"/>
  <path d="M192.29,108.79c-1.58,2.57-3.51,5.06-5.46,7.51-3.49,4.39-7.06,8.69-8.93,13.22-1.95,4.68-2.53,10.34-3.21,15.92-.36,3-.74,5.99-1.38,8.8-.51,2.24-3.3,3.02-4.92,1.4l-11.04-11.04c2.44-4.15,3.83-8.98,3.83-14.13s2.04-9.92,5.59-13.46c3.56-3.56,6.04-7.91,7.27-12.66h15.74c2.29,0,3.7,2.51,2.51,4.45Z"/>
  <path d="M160.53,83.81c1.85,1.85,3.27,4.01,4.21,6.37h-40.57c-2.61,0-3.92-3.16-2.07-5l28.7-28.7c.99,2.29,1.53,4.82,1.53,7.47v.12c0,7.33,2.97,14.51,8.16,19.7l.04.04Z"/>
  <path d="M189.78,90.18h-15.73c-1.23-4.74-3.71-9.08-7.27-12.64l-.04-.04c-3.53-3.54-5.56-8.44-5.56-13.44v-.12c0-5.12-1.39-9.92-3.8-14.05l11.01-11.01c1.62-1.62,4.41-.84,4.92,1.4.63,2.8,1.02,5.78,1.38,8.77.67,5.59,1.26,11.25,3.21,15.94,1.88,4.52,5.45,8.83,8.94,13.22,1.95,2.45,3.88,4.94,5.46,7.5,1.2,1.95-.22,4.45-2.51,4.45Z"/>
  <path d="M38.85,64.01c0,5.03-2.02,9.92-5.57,13.44l-.1.1c-3.6,3.62-6.01,7.99-7.21,12.62h-14.58c.32-4.06.91-8.05,1.76-11.95,2.3-10.55,6.48-20.4,12.16-29.18,2.14-3.3,4.48-6.45,7.03-9.43l10.3,10.3c-2.41,4.12-3.79,8.92-3.79,14.03v.07Z"/>
  <path d="M75.83,90.18h-40.57c.92-2.32,2.32-4.49,4.18-6.37l.09-.09c5.19-5.16,8.16-12.35,8.16-19.71v-.07c0-2.64.54-5.16,1.52-7.45l28.68,28.68c1.85,1.85.54,5-2.07,5Z"/>
  <path d="M38.85,130.5c0,5.13,1.39,9.94,3.82,14.08l-10.32,10.32c-2.54-2.98-4.9-6.13-7.03-9.44-5.68-8.78-9.85-18.62-12.16-29.16-.85-3.89-1.44-7.88-1.76-11.95h14.58c1.2,4.64,3.62,9.02,7.24,12.64l.06.06c3.54,3.54,5.57,8.44,5.57,13.46Z"/>
  <path d="M77.91,109.34l-28.66,28.66c-1-2.31-1.55-4.85-1.55-7.52,0-7.33-2.97-14.51-8.16-19.7l-.06-.06c-1.88-1.88-3.28-4.05-4.21-6.38h40.57c2.61,0,3.92,3.16,2.07,5Z"/>
  <path d="M92.92,8.65v14.58c-4.62,1.2-9,3.6-12.63,7.21l-.06.06c-3.51,3.53-8.41,5.56-13.43,5.56h-.08c-5.14,0-9.95,1.4-14.09,3.83l-10.29-10.29c2.98-2.55,6.12-4.9,9.43-7.03,8.79-5.69,18.65-9.87,29.2-12.16,3.89-.85,7.88-1.45,11.94-1.76Z"/>
  <path d="M86.54,36.71c1.88-1.87,4.06-3.27,6.38-4.19v40.57c0,2.61-3.16,3.92-5,2.07l-28.7-28.7c2.31-1,4.85-1.55,7.52-1.55h.08c7.36,0,14.54-2.98,19.69-8.16l.04-.04Z"/>
  <path d="M92.92,121.42v40.57c-2.32-.93-4.5-2.33-6.38-4.21l-.09-.09c-5.19-5.19-12.36-8.16-19.72-8.16-2.65,0-5.18-.54-7.47-1.53l28.66-28.66c1.85-1.85,5-.54,5,2.07Z"/>
  <path d="M80.29,164.05c3.62,3.62,8,6.03,12.63,7.24v14.56c-4.07-.32-8.06-.91-11.96-1.77-10.54-2.29-20.38-6.47-29.16-12.14-3.3-2.14-6.46-4.49-9.44-7.03l10.32-10.32c4.14,2.42,8.94,3.8,14.07,3.8s9.9,2.03,13.44,5.57l.09.09Z"/>
  <path d="M113.48,157.77c-1.88,1.88-4.06,3.29-6.39,4.22v-40.56c0-2.61,3.16-3.92,5-2.07l28.66,28.66c-2.29.98-4.81,1.52-7.45,1.52h-.05c-7.36,0-14.55,2.98-19.72,8.18l-.05.05Z"/>
  <path d="M157.63,164.9c-2.98,2.55-6.14,4.9-9.45,7.04-8.77,5.67-18.6,9.83-29.13,12.13-3.9.85-7.89,1.45-11.97,1.76v-14.56c4.64-1.21,9.03-3.63,12.65-7.26l.06-.06c3.53-3.55,8.43-5.58,13.45-5.58h.05c5.11,0,9.9-1.38,14.02-3.8l10.31,10.31Z"/>
  <path d="M133.3,44.91c2.66,0,5.2.55,7.5,1.54l-28.71,28.71c-1.85,1.85-5,.54-5-2.07v-40.56c2.33.93,4.51,2.34,6.39,4.22,5.19,5.19,12.36,8.16,19.7,8.16h.12Z"/>
  <path d="M157.64,29.6l-10.28,10.28c-4.13-2.42-8.94-3.82-14.07-3.82h-.12c-5,0-9.9-2.03-13.46-5.59-3.62-3.62-8-6.03-12.63-7.23v-14.58c4.06.32,8.05.91,11.95,1.76,10.55,2.3,20.4,6.48,29.18,12.16,3.3,2.14,6.45,4.49,9.43,7.03Z"/>
  <path d="M160.51,110.73c-5.2,5.17-8.19,12.36-8.19,19.77,0,2.67-.55,5.21-1.55,7.52l-28.69-28.69c-1.85-1.85-.54-5,2.07-5h40.58c-.94,2.37-2.37,4.54-4.22,6.39Z"/>
  <path d="M188.59,104.33c-.32,4.07-.91,8.06-1.76,11.96-2.3,10.54-6.47,20.37-12.14,29.14-2.14,3.31-4.49,6.47-7.04,9.45l-10.3-10.3c2.44-4.15,3.83-8.98,3.83-14.13s2.04-9.92,5.59-13.46c3.56-3.56,6.04-7.91,7.27-12.66h14.55Z"/>
  <path d="M160.53,83.81c1.85,1.85,3.27,4.01,4.21,6.37h-40.57c-2.61,0-3.92-3.16-2.07-5l28.7-28.7c.99,2.29,1.53,4.82,1.53,7.47v.12c0,7.33,2.97,14.51,8.16,19.7l.04.04Z"/>
  <path d="M188.59,90.18h-14.55c-1.23-4.74-3.71-9.08-7.27-12.64l-.04-.04c-3.53-3.54-5.56-8.44-5.56-13.44v-.12c0-5.12-1.39-9.92-3.8-14.05l10.28-10.28c2.54,2.98,4.89,6.13,7.03,9.44,5.67,8.78,9.85,18.62,12.15,29.16.85,3.89,1.45,7.89,1.76,11.96Z"/>
</svg>