<?xml version="1.0" encoding="UTF-8"?>
<svg id="Layer_1" data-name="Layer 1" xmlns="http://www.w3.org/2000/svg" viewBox="0 0 200 200">
  <defs>
    <style>
      .cls-1, .cls-2 {
        fill: #0c0b0b;
      }

      .cls-2 {
        font-family: Optika-SemiBold, Optika;
        font-size: 10.48px;
        font-weight: 600;
      }
    </style>
  </defs>
  <g>
    <path class="cls-1" d="M13.4,101.84c.03.05.07.1.1.16h.01c-.04-.05-.08-.1-.11-.16Z"/>
    <path class="cls-1" d="M43.66,94.8c-.54,1.51-1.2,3.03-1.98,4.42-.21.39-.5.83-.72,1.22-.61.95-1.3,1.93-2.02,2.8-.29.37-.76.87-1.08,1.23-.19.18-.69.69-.87.87-.21.2-.7.62-.92.82-1.05.88-2.18,1.7-3.39,2.35-.11.05-.82.43-.92.48-2.47,1.19-5.24,1.72-7.97,1.58-4.46-.21-8.94-2.36-11.4-6.17-.5-.78-.96-1.81-1.28-2.65-.01-.04-.03-.08-.04-.12-.23-.72-.4-1.45-.48-2.19-.12-1.09-.09-2.06.1-2.93.19-.87.49-1.61.9-2.22.41-.61.9-1.1,1.49-1.45.58-.36,1.2-.57,1.87-.65.6-.07,1.18-.03,1.73.12.55.15,1.04.4,1.47.75.43.35.8.81,1.09,1.37.29.56.48,1.22.57,1.98.11.93-.02,1.66-.39,2.19-.36.53-.88.79-1.55.77-.28-.01-.49-.1-.64-.27-.15-.16-.24-.34-.26-.53-.02-.21.03-.4.16-.57.13-.17.34-.23.64-.18.13.02.25.06.35.12.1.06.19.12.28.19.09.06.18.12.26.17.09.05.19.06.3.05.13-.01.24-.08.33-.19.09-.11.16-.26.2-.43.05-.17.07-.37.08-.6,0-.22,0-.45-.02-.69-.08-.71-.26-1.31-.53-1.8-.27-.5-.6-.9-.99-1.21-.39-.31-.81-.53-1.28-.65-.47-.12-.94-.16-1.41-.1-.6.07-1.13.25-1.59.53-.46.28-.83.65-1.13,1.1-.29.45-.5.96-.63,1.54-.12.58-.15,1.2-.07,1.85.09.83.26,1.57.49,2.23.06.16.12.32.18.47,0,.02.01.03.02.05.2.48.48.96.78,1.43.03.05.07.1.1.16.25.38.52.75.77,1.1,3.46,4.61,10.22,5.69,15.36,3.5.24-.09.54-.25.77-.36.07-.04.68-.37.77-.42,1.02-.58,1.97-1.27,2.87-2.03,3.34-2.91,5.75-6.83,7.12-11.03.41-1.25.76-2.57.96-3.85.37-2.42.42-5.47-1.96-6.8-2.27-1.32-5.19-.29-6.48,1.93-.64,1.04-.84,2.35-.55,3.55.12.48.34.92.68,1.28.5.54,1.28.9,2.03.98.92.1,1.85-.23,2.65-.67.56-.31,1.41-.9.98-1.64-.08-.14-.18-.24-.31-.29-.13-.06-.27-.11-.42-.16-.15-.05-.3-.1-.46-.16-.16-.06-.3-.16-.44-.3-.31-.31-.42-.6-.34-.9.08-.29.26-.51.52-.67.24-.14.51-.19.83-.16.32.03.6.2.86.51,1.79,2.17-.91,4.64-2.96,5.21-.24.07-.48.11-.73.13-.18.01-.37.01-.55,0-1.52-.09-2.98-1.01-3.57-2.46-.69-1.62-.6-3.53.17-5.11,1.96-4.09,7.38-5.34,10.78-2.2,3.56,3.36,2.18,9.71.8,13.81Z"/>
    <path class="cls-1" d="M60.61,110.32c-.29-.04-.57-.11-.84-.19-.7-.21-1.31-.53-1.84-.96-.82-.67-1.35-1.74-1.58-3.22l-.73-4.54h0s0-.06,0-.06h0s-3.54-22.16-3.54-22.16c-1.12.62-2.41.97-3.77.97-.63,0-1.25-.07-1.83-.22.26.7.45,1.48.57,2.33l2.11,14.05h-.05s.05.31.05.31l.07.42h.06l.67,4.51.21,1.4h0s.59,3.95.59,3.95c.17,1.02-.05,1.79-.66,2.3s-1.57.9-2.9,1.15v.22c.81-.09,1.82-.14,3.02-.18,1.21-.03,2.54-.05,4.02-.05.58,0,1.18,0,1.81.02.63.01,1.25.03,1.86.05.61.02,1.18.05,1.71.08.53.03.99.06,1.38.08v-.22c-.13-.01-.25-.03-.38-.05Z"/>
    <path class="cls-1" d="M92.12,109.77c-.46-.2-.86-.49-1.22-.85s-.67-.8-.96-1.31c-.29-.51-.57-1.12-.85-1.82l-10.46-26.63h-.16c-.3.36-.69.7-1.17,1.01-.48.31-.93.56-1.36.75l-10.75,24.35c-.34.79-.7,1.47-1.07,2.05-.37.58-.78,1.06-1.22,1.44-.44.38-.93.69-1.49.91-.49.2-1.03.35-1.64.45-.08.02-.17.03-.25.04v.22c.34-.03.7-.06,1.09-.08.41-.02.85-.04,1.31-.05.9-.02,1.7-.03,2.4-.03h1.3c.5,0,1.02.01,1.55.03.53.02,1.05.04,1.55.05.5.01.93.04,1.3.08v-.22c-.53-.06-1.08-.2-1.65-.42-.57-.21-1.06-.51-1.47-.88-.42-.37-.7-.82-.86-1.34-.16-.52-.1-1.11.18-1.78l2.73-6.56.15-.35h11.17l2.28,5.89h0s.89,2.3.89,2.3c.36.96.22,1.66-.42,2.1-.64.44-1.62.78-2.94,1.04v.22c.81-.09,1.8-.14,2.98-.18,1.17-.03,2.5-.05,3.97-.05,1.28,0,2.52.03,3.73.08,1.21.05,2.19.1,2.96.14v-.22c-.6-.06-1.13-.2-1.58-.4ZM69.44,98.32h-.13s5.54-13.34,5.54-13.34l4.54,11.66.48,1.23-10.43.44Z"/>
    <path class="cls-1" d="M124.32,94.49c-.02-2.5-.33-4.72-.91-6.66-.59-1.94-1.53-3.57-2.82-4.88-1.29-1.31-2.97-2.29-5.04-2.94-1.59-.5-3.46-.78-5.59-.85-.64-.02-1.3-.02-1.99,0-.73.02-1.39.04-1.98.06-.6.02-1.18.04-1.76.06-.58.02-1.16.04-1.76.06-.6.02-1.25.03-1.95.03-1.05,0-2.12-.02-3.22-.05-1.1-.03-2.17-.09-3.22-.18v.22c.77.11,1.4.26,1.89.45.49.19.87.43,1.14.7.27.28.45.6.54.96s.14.79.14,1.28v24c0,.47-.05.89-.14,1.26-.1.37-.28.7-.54.98-.27.28-.64.51-1.14.7-.49.19-1.12.34-1.89.45v.22c1.05-.09,2.12-.14,3.22-.18,1.1-.03,2.17-.05,3.22-.05h2.69c.85,0,1.69.01,2.51.03.82.02,1.64.05,2.46.08.82.03,1.68.07,2.58.11,1.66.08,3.15-.07,4.46-.46s2.47-.97,3.49-1.73c1.01-.76,1.88-1.66,2.59-2.7.71-1.04,1.3-2.17,1.74-3.38.45-1.21.78-2.47.99-3.78.21-1.31.31-2.6.29-3.86ZM117.86,101.02c-.3,1.77-.76,3.32-1.38,4.64-.62,1.32-1.4,2.37-2.34,3.15-.94.78-2.05,1.17-3.33,1.17h-.5c-.16,0-.33-.02-.5-.06l-6.31-.96.03-29.12h3.07c1.6,0,3,.22,4.21.66,1.21.44,2.24,1.04,3.1,1.81.86.77,1.58,1.66,2.14,2.67.57,1.01,1.01,2.1,1.34,3.25.33,1.15.56,2.34.69,3.55.13,1.22.19,2.41.19,3.58,0,2.01-.15,3.89-.45,5.66Z"/>
    <path class="cls-1" d="M157.24,88.25c-.58-1.92-1.47-3.57-2.69-4.96s-2.77-2.47-4.67-3.26c-.91-.38-1.91-.67-2.99-.86-1.17-.21-2.45-.32-3.82-.32-1.23,0-2.4.11-3.5.32-1.11.21-2.16.53-3.15.96-1.98.85-3.67,2.02-5.06,3.5-1.39,1.48-2.46,3.22-3.22,5.2-.76,1.98-1.14,4.1-1.14,6.34s.29,4.37.86,6.27c.58,1.9,1.48,3.54,2.72,4.91,1.24,1.38,2.81,2.45,4.72,3.22,1.91.77,4.2,1.15,6.87,1.15,2.45,0,4.66-.42,6.62-1.26,1.96-.84,3.63-1.99,5.01-3.46,1.38-1.46,2.44-3.17,3.18-5.14.75-1.96,1.12-4.06,1.12-6.3s-.29-4.38-.86-6.31ZM151.66,101.19c-.35,1.74-.87,3.27-1.57,4.59-.69,1.32-1.56,2.38-2.59,3.17-1.03.79-2.22,1.18-3.57,1.18-1.84,0-3.45-.48-4.83-1.44s-2.54-2.23-3.47-3.81c-.93-1.58-1.62-3.37-2.08-5.38-.46-2.01-.69-4.07-.69-6.18,0-.92.05-1.89.16-2.93.11-1.03.29-2.06.56-3.09.27-1.02.62-2.01,1.06-2.94.44-.94.98-1.77,1.63-2.5.65-.72,1.41-1.3,2.29-1.73.87-.43,1.89-.64,3.04-.64,1.81,0,3.38.46,4.7,1.38,1.32.92,2.42,2.13,3.3,3.63.87,1.5,1.53,3.23,1.95,5.18.43,1.95.64,3.95.64,6,0,1.92-.18,3.75-.53,5.49Z"/>
    <path class="cls-1" d="M189.41,108.95c-.83.11-1.57-.04-2.22-.45-.65-.4-1.24-.97-1.78-1.7-.53-.73-1.02-1.57-1.46-2.54-.44-.97-.86-1.96-1.26-2.96-.41-1-.86-1.86-1.38-2.58-.51-.71-1.08-1.31-1.7-1.78-.62-.47-1.29-.83-2.02-1.09-.73-.26-1.5-.43-2.34-.51,1.13-.06,2.27-.23,3.42-.5,1.15-.27,2.2-.69,3.14-1.26.94-.58,1.71-1.35,2.3-2.32.6-.97.9-2.2.9-3.7s-.27-2.88-.8-3.97c-.53-1.09-1.26-1.97-2.18-2.64-.92-.67-2-1.15-3.23-1.44-1.24-.29-2.56-.41-3.97-.37-1.47.04-3.02.09-4.66.14-1.63.05-3.16.08-4.59.08-1.05,0-2.13-.02-3.26-.05-1.13-.03-2.22-.09-3.26-.18v.22c.79.11,1.43.26,1.92.45.49.19.87.43,1.15.7.28.28.46.6.56.96.1.36.14.79.14,1.28v24c0,.47-.05.89-.14,1.26-.1.37-.29.7-.58.98-.29.28-.7.51-1.23.7-.53.19-1.23.34-2.08.45v.22c1.04-.09,2.21-.14,3.5-.18,1.29-.03,2.46-.05,3.5-.05s2.18.02,3.39.05c1.22.03,2.35.09,3.39.18v-.22c-.85-.11-1.55-.26-2.08-.45-.53-.19-.94-.43-1.23-.7-.29-.28-.48-.6-.58-.98-.1-.37-.14-.79-.14-1.26v-11.39h2.08c.51,0,1.03.12,1.55.35.52.23,1.06.67,1.62,1.3.56.63,1.13,1.48,1.73,2.54.6,1.07,1.25,2.43,1.95,4.1.4.98.78,1.9,1.12,2.75.34.85.76,1.6,1.25,2.24.49.64,1.1,1.14,1.84,1.5.74.36,1.69.54,2.86.54.83,0,1.69-.14,2.58-.43.89-.29,1.66-.68,2.32-1.17l-.06-.16ZM172.93,94.78h-4.32v-14.95l3.01.16c.83.04,1.7.19,2.61.45.91.26,1.73.68,2.47,1.28.74.6,1.34,1.38,1.82,2.35.48.97.72,2.2.72,3.7.02,2.26-.54,4-1.68,5.2-1.14,1.21-2.68,1.81-4.62,1.81Z"/>
    <path class="cls-1" d="M68.35,99.17c1.48.03,3.23.19,5.12.67,6.53,1.64,10.12,5.78,11.4,7.43.31-1.97.63-3.93.94-5.9-1.71-2.99-5.21-4.97-9.08-5.13-4.84-.2-7.96,2.55-8.37,2.93Z"/>
    <path class="cls-1" d="M38.17,99.17c1.48.03,3.23.19,5.12.67,6.53,1.64,10.12,5.78,11.4,7.43.31-1.97.63-3.93.94-5.9-1.71-2.99-5.21-4.97-9.08-5.13-4.84-.2-7.96,2.55-8.37,2.93Z"/>
  </g>
  <text class="cls-2" transform="translate(51.88 126.72)"><tspan x="0" y="0">BY ETHNIQ</tspan></text>
  <ellipse class="cls-1" cx="36.38" cy="87.2" rx="3.9" ry="3.59"/>
</svg>