<?xml version="1.0" encoding="UTF-8"?>
<svg id="Layer_1" data-name="Layer 1" xmlns="http://www.w3.org/2000/svg" viewBox="0 0 200 200">
  <path d="M101.11,10.1c24.14,0,46.84,9.4,63.91,26.47,17.07,17.07,26.47,39.77,26.47,63.91s-9.4,46.84-26.47,63.91c-17.07,17.07-39.77,26.47-63.91,26.47s-46.84-9.4-63.91-26.47c-17.07-17.07-26.47-39.77-26.47-63.91s9.4-46.84,26.47-63.91c17.07-17.07,39.77-26.47,63.91-26.47M101.11,8.85C50.51,8.85,9.48,49.88,9.48,100.49s41.03,91.63,91.63,91.63,91.63-41.03,91.63-91.63S151.72,8.85,101.11,8.85h0Z"/>
  <g>
    <path d="M106.26,115.13c.37-.35,2.14-2.41,2.49-2.42l1.81,2.05c-4.25,5.1-9.4,9.42-13.93,14.27-2.26,2.42-5.91,5.83-6.3,9.19-1.2,10.16,12.1,15.63,18.24,7.25s-2.21-13.91-7.24-19.45c-.3-.77,1.74-1.71,2.07-2.34,6.47,5.72,13.86,12.13,9.26,21.66-4.92,10.19-19.85,10.18-24.59-.14-4.44-9.67,3.4-16.18,9.84-21.93l.28-.83-18.87-18.95,2.05-2.05,7.93,7.86,8.25-7.94-.2-.95c-3.77-3.81-7.35-7.9-11.17-11.65-2.14-2.1-6.41-6.83-9.27-7.08-2.28-.19-5.05,1.21-5.91,3.39-2.33,5.83,4.06,9.08,7.18,12.84.67.29,6.51-6.77,7.88-7.38l.56.02,2.26,2.27c-.49.66-1.25.99-1.83,1.54-4.34,4.11-10.84,10.04-14.5,14.53-2.46,3.02-3.16,7.23.46,9.67,5.57,3.75,9.57-2.97,13.24-6.13.35-.06,2.55,1.97,2.33,2.61-3.33,2.55-5.31,6.46-9.56,7.66-7.38,2.09-13.73-4.37-11.7-11.7,1.18-4.24,6.01-7.17,8.59-10.56-4.9-4.63-11.36-8.89-8.12-16.59,1.84-4.38,5.57-6.05,10.21-5.51,5.11.6,7.65,5.97,11.55,8.69l8.35-8.57c-6.25-6.31-14.4-12.1-9.82-22.22,4.6-10.14,19.27-10.37,24.43-.55,3.27,6.21,1.19,11.43-3.06,16.29-5.41,6.18-12.2,11.43-17.44,17.72l8.57,8.63,7.93-7.86,2.35,2.09-19.15,19.16,8.65,8.56c.35.13.54-.06.8-.24,1.19-.8,3.78-3.68,5.1-4.91ZM101.4,75.05c2.7-2.08,8.48-8.06,9.06-11.38,2.16-12.35-16.26-16.54-19.67-4.74-2.37,8.18,4.71,11.61,9.38,16.71.76.33.92-.35,1.24-.6Z"/>
    <path d="M134.75,112.96c1.24,9.14-8.67,14.28-15.71,8.67l-17.9-17.62,2.51-2.52,7.64,7.52,8.88-8.53-18.75-18.74c-.29-.56,1.56-2.42,2.13-2.13l7.75,7.76c3.67-3.49,7.18-9.32,12.68-9.86,9.14-.89,13.66,9.43,7.89,16.06l-17.89,18.15c1.73,1.64,3.29,3.5,5.06,5.1,1.33,1.19,3.27,3.16,5,3.45,6.2,1.05,9.33-5.23,5.7-9.93-.83-1.07-6.37-6.07-6.45-6.53l2.34-2.34c3.15,3.29,8.46,6.58,9.12,11.47ZM130.8,85.62c-.71-4.67-6.23-5.92-9.8-3.17-1.04.8-6.13,5.8-6.77,6.76-.18.26-.37.45-.24.8l8.28,8.36c2.76-3.58,9.3-7.63,8.53-12.75Z"/>
  </g>
  <path d="M131.3,176.58h-60.37v-8.41h17.03v-9.3h-45.23v-45.23h-9.3v17.03h-8.41v-60.37h8.41v17.03h9.3v-45.23h45.23v-9.3h-17.03v-8.41h60.37v8.41h-17.03v9.3h45.23v45.23h9.3v-17.03h8.41v60.37h-8.41v-17.03h-9.3v45.23h-45.23v9.3h17.03v8.41ZM72.98,174.53h56.26v-4.3h-17.03v-13.41h45.23v-45.23h13.41v17.03h4.3v-56.26h-4.3v17.03h-13.41v-45.23h-45.23v-13.41h17.03v-4.3h-56.26v4.3h17.03v13.41h-45.23v45.23h-13.41v-17.03h-4.3v56.26h4.3v-17.03h13.41v45.23h45.23v13.41h-17.03v4.3Z"/>
  <path d="M101.11,14.36c23.01,0,44.63,8.96,60.9,25.23,16.27,16.27,25.23,37.9,25.23,60.9s-8.96,44.63-25.23,60.9c-16.27,16.27-37.9,25.23-60.9,25.23s-44.63-8.96-60.9-25.23c-16.27-16.27-25.23-37.9-25.23-60.9s8.96-44.63,25.23-60.9c16.27-16.27,37.9-25.23,60.9-25.23M101.11,13.05C52.82,13.05,13.68,52.2,13.68,100.49s39.15,87.44,87.44,87.44,87.44-39.15,87.44-87.44S149.4,13.05,101.11,13.05h0Z"/>
  <g>
    <path d="M145.72,148.04c-9.11-1.5-15.05-8.21-16.74-17.1-.07-.38-.48-2.75-.26-2.89,9.1.64,17.17,6.07,19.51,15.21.36,1.4.36,2.62.59,3.96.02.1-.03.17.11.25,1.93-.81,2.69-2.11,2.16-4.14-.67-2.58-2.85-4.31-3.71-6.79-.79-2.27-.39-4.98,1.3-6.72-1.2,4.39,2.68,8.01,3.96,11.82.96,2.86-.35,6.52-3.73,6.72-.19,1.93-1.21,3.19-3.07,3.78-3.09.99-5.62-1.07-8.21-2.4-2.29-1.17-4.62-2.28-7.25-1.7,1.95-1.7,4.74-2.04,7.11-1.08,1.95.79,3.43,2.37,5.38,3.2,2.26.97,4.12.74,5.13-1.77-.02-.15-2-.29-2.3-.34ZM132.52,132.04c1.23,7.6,7.23,13.32,14.72,14.72-1.04-7.44-7.2-13.86-14.72-14.72Z"/>
    <path d="M153.05,139.68c.11.14.23-.09.32-.18.17-.16.33-.32.48-.5,4.13-5.07-2.43-9.37-2.99-14.4-2.15,5.32,4.38,9.73,2.19,15.08Z"/>
    <path d="M125.23,150.23c3.13.51,5.6,2.78,8.46,3.91,2.55,1,4.73.41,6.62-1.57l-1.87.32c-4.67.36-8.45-4.48-13.2-2.66Z"/>
  </g>
  <g>
    <path d="M53.95,145.12c1.5-9.11,8.21-15.05,17.1-16.74.38-.07,2.75-.48,2.89-.26-.64,9.1-6.07,17.17-15.21,19.51-1.4.36-2.62.36-3.96.59-.1.02-.17-.03-.25.11.81,1.93,2.11,2.69,4.14,2.16,2.58-.67,4.31-2.85,6.79-3.71,2.27-.79,4.98-.39,6.72,1.3-4.39-1.2-8.01,2.68-11.82,3.96-2.86.96-6.52-.35-6.72-3.73-1.93-.19-3.19-1.21-3.78-3.07-.99-3.09,1.07-5.62,2.4-8.21,1.17-2.29,2.28-4.62,1.7-7.25,1.7,1.95,2.04,4.74,1.08,7.11-.79,1.95-2.37,3.43-3.2,5.38-.97,2.26-.74,4.12,1.77,5.13.15-.02.29-2,.34-2.3ZM69.96,131.92c-7.6,1.23-13.32,7.23-14.72,14.72,7.44-1.04,13.86-7.2,14.72-14.72Z"/>
    <path d="M62.31,152.44c-.14.11.09.23.18.32.16.17.32.33.5.48,5.07,4.13,9.37-2.43,14.4-2.99-5.32-2.15-9.73,4.38-15.08,2.19Z"/>
    <path d="M51.77,124.63c-.51,3.13-2.78,5.6-3.91,8.46-1,2.55-.41,4.73,1.57,6.62l-.32-1.87c-.36-4.67,4.48-8.45,2.66-13.2Z"/>
  </g>
  <g>
    <path d="M148.65,55.99c-1.5,9.11-8.21,15.05-17.1,16.74-.38.07-2.75.48-2.89.26.64-9.1,6.07-17.17,15.21-19.51,1.4-.36,2.62-.36,3.96-.59.1-.02.17.03.25-.11-.81-1.93-2.11-2.69-4.14-2.16-2.58.67-4.31,2.85-6.79,3.71-2.27.79-4.98.39-6.72-1.3,4.39,1.2,8.01-2.68,11.82-3.96,2.86-.96,6.52.35,6.72,3.73,1.93.19,3.19,1.21,3.78,3.07.99,3.09-1.07,5.62-2.4,8.21-1.17,2.29-2.28,4.62-1.7,7.25-1.7-1.95-2.04-4.74-1.08-7.11.79-1.95,2.37-3.43,3.2-5.38.97-2.26.74-4.12-1.77-5.13-.15.02-.29,2-.34,2.3ZM132.64,69.19c7.6-1.23,13.32-7.23,14.72-14.72-7.44,1.04-13.86,7.2-14.72,14.72Z"/>
    <path d="M140.29,48.67c.14-.11-.09-.23-.18-.32-.16-.17-.32-.33-.5-.48-5.07-4.13-9.37,2.43-14.4,2.99,5.32,2.15,9.73-4.38,15.08-2.19Z"/>
    <path d="M150.83,76.48c.51-3.13,2.78-5.6,3.91-8.46,1-2.55.41-4.73-1.57-6.62l.32,1.87c.36,4.67-4.48,8.45-2.66,13.2Z"/>
  </g>
  <g>
    <path d="M56.86,53.07c9.11,1.5,15.05,8.21,16.74,17.1.07.38.48,2.75.26,2.89-9.1-.64-17.17-6.07-19.51-15.21-.36-1.4-.36-2.62-.59-3.96-.02-.1.03-.17-.11-.25-1.93.81-2.69,2.11-2.16,4.14.67,2.58,2.85,4.31,3.71,6.79.79,2.27.39,4.98-1.3,6.72,1.2-4.39-2.68-8.01-3.96-11.82-.96-2.86.35-6.52,3.73-6.72.19-1.93,1.21-3.19,3.07-3.78,3.09-.99,5.62,1.07,8.21,2.4,2.29,1.17,4.62,2.28,7.25,1.7-1.95,1.7-4.74,2.04-7.11,1.08-1.95-.79-3.43-2.37-5.38-3.2-2.26-.97-4.12-.74-5.13,1.77.02.15,2,.29,2.3.34ZM70.06,69.07c-1.23-7.6-7.23-13.32-14.72-14.72,1.04,7.44,7.2,13.86,14.72,14.72Z"/>
    <path d="M49.53,61.43c-.11-.14-.23.09-.32.18-.17.16-.33.32-.48.5-4.13,5.07,2.43,9.37,2.99,14.4,2.15-5.32-4.38-9.73-2.19-15.08Z"/>
    <path d="M77.35,50.88c-3.13-.51-5.6-2.78-8.46-3.91-2.55-1-4.73-.41-6.62,1.57l1.87-.32c4.67-.36,8.45,4.48,13.2,2.66Z"/>
  </g>
  <g>
    <path d="M54.09,107.24c-5.63,0-10.42-1.9-13.33-5.49-.73-.9-1.34-1.92-1.81-3.02-.73,1.89-1.73,3.64-2.98,5.22-.84,1.06-1.8,2.04-2.85,2.92l-.99-1.18c.97-.81,1.85-1.71,2.63-2.69,1.6-2.02,2.76-4.35,3.43-6.92l.77-2.94.72,2.95c.44,1.8,1.21,3.39,2.27,4.7,3.73,4.61,11.4,6.13,19.54,3.86l.41,1.48c-2.71.76-5.34,1.12-7.82,1.12Z"/>
    <circle cx="45.64" cy="95.74" r="2.72"/>
  </g>
  <g>
    <path d="M161.53,107.24c-5.63,0-10.42-1.9-13.33-5.49-.73-.9-1.34-1.92-1.81-3.02-.73,1.89-1.73,3.64-2.98,5.22-.84,1.06-1.8,2.04-2.85,2.92l-.99-1.18c.97-.81,1.85-1.71,2.63-2.69,1.6-2.02,2.76-4.35,3.43-6.92l.77-2.94.72,2.95c.44,1.8,1.21,3.39,2.27,4.7,3.73,4.61,11.4,6.13,19.54,3.86l.41,1.48c-2.71.76-5.34,1.12-7.82,1.12Z"/>
    <circle cx="153.08" cy="95.74" r="2.72"/>
  </g>
  <g>
    <path d="M101.02,25.42c-1.06-4.04-1.06-8.33,0-12.37,1.06,4.04,1.06,8.33,0,12.37h0Z"/>
    <path d="M101.02,98.29l.77.02c-.38.02-1.16.02-1.54,0,0,0,.77-.02.77-.02h0Z"/>
    <path d="M101.02,187.93c-1.06-4.04-1.06-8.33,0-12.37,1.06,4.04,1.06,8.33,0,12.37h0Z"/>
    <path d="M92.07,25.42c-1.52-3.7-2.03-7.79-1.44-11.76,1.53,3.7,2.02,7.79,1.44,11.76h0Z"/>
    <polygon points="101.02 98.29 101.79 98.31 101.64 98.32 101.02 97.7 101.03 97.85 101.49 98.32 101.03 98.33 100.57 98.32 101.03 98.78 101.02 98.93 100.4 98.32 100.25 98.31 101.02 98.29 101.02 98.29"/>
    <path d="M111.94,187.25c-1.52-3.68-2.02-7.75-1.43-11.69,1.52,3.68,2.01,7.75,1.43,11.69h0Z"/>
    <path d="M82.85,25.42c-1.82-2.95-2.7-6.45-2.47-9.91,1.83,2.95,2.69,6.45,2.47,9.91h0Z"/>
    <polygon points="101.02 98.29 101.79 98.31 101.64 98.32 101.02 97.7 101.03 97.85 101.49 98.32 101.03 98.33 100.57 98.32 101.03 98.78 101.02 98.93 100.4 98.32 100.25 98.31 101.02 98.29 101.02 98.29"/>
    <path d="M118.7,169.2c-1.95-3.44-2.94-7.4-2.83-11.36,1.95,3.44,2.93,7.4,2.83,11.36h0Z"/>
    <path d="M122.69,185.22c-1.8-2.87-2.66-6.29-2.41-9.67,1.81,2.87,2.65,6.29,2.41,9.67h0Z"/>
    <path d="M73.04,25.42c-1.81-1.79-2.79-4.32-2.63-6.86,1.82,1.78,2.78,4.32,2.63,6.86h0Z"/>
    <path d="M79.84,43.13c-2.41-3.33-3.93-7.27-4.36-11.36,2.42,3.32,3.92,7.27,4.36,11.36h0Z"/>
    <polygon points="101.01 98.29 101.62 98.16 101.02 97.69 101.02 97.54 101.79 98.31 101.41 98.32 101.02 97.94 101.03 98.07 101.28 98.32 101.03 98.33 100.77 98.32 101.03 98.58 101.02 98.71 100.63 98.32 100.25 98.31 101.02 99.08 101.02 98.93 100.42 98.46 101.01 98.29 101.01 98.29"/>
    <path d="M133.09,181.85c-1.91-2.03-2.97-4.77-2.91-7.56,1.91,2.03,2.96,4.78,2.91,7.56h0Z"/>
    <path d="M128.23,169.2c-2.41-3.33-3.93-7.27-4.36-11.36,2.42,3.32,3.92,7.27,4.36,11.36h0Z"/>
    <path d="M71.68,43.13c-4.52-6.24-8.17-13.1-10.81-20.33,4.52,6.24,8.16,13.1,10.81,20.33h0Z"/>
    <path d="M101.01,98.29l.51-.32.1.33h.17s-.13.01-.13.01l-.64-.64v.13s.52.51.52.51h-.25s-.26-.25-.26-.25v.13s.13.13.13.13c-.06,0-.19,0-.25,0,0,0,.13.13.13.13v.13s-.26-.26-.26-.26h-.25s.51.5.51.5v.13s-.65-.64-.65-.64h-.13s.17-.01.17-.01l.1.33.49-.35h0Z"/>
    <path d="M142.98,177.22c-4.35-5.92-7.83-12.46-10.3-19.37,4.35,5.92,7.83,12.46,10.3,19.37h0Z"/>
    <path d="M62.38,43.13c-4.33-4.34-7.9-9.42-10.49-14.98,4.34,4.33,7.89,9.43,10.49,14.98h0Z"/>
    <path d="M101.02,98.31v-.25s.26.25.26.25h.51s-.77-.76-.77-.76v.19s.58.58.58.58h-.19s-.39-.38-.39-.38v.19s.2.19.2.19c-.09,0-.29,0-.38,0,0,0,.19.19.19.19v.19s-.39-.38-.39-.38h-.19s.58.57.58.57v.19s-.77-.77-.77-.77h.51s.26.24.26.24v-.25h0Z"/>
    <path d="M152.19,171.4c-3.98-3.84-7.25-8.49-9.49-13.55,3.99,3.84,7.24,8.5,9.49,13.55h0Z"/>
    <path d="M51.33,43.13c-3.3-2.09-6-5.08-7.73-8.58,3.31,2.08,6,5.08,7.73,8.58h0Z"/>
    <path d="M101.01,98.31v-.19s.2.19.2.19h.19s-.38-.38-.38-.38v-.19s.58.58.58.58h.19s-.77-.76-.77-.76v.19s.58.58.58.58h-.19s-.39-.38-.39-.38v.19s.2.19.2.19c-.09,0-.29,0-.38,0,0,0,.19.19.19.19v.19s-.39-.38-.39-.38h-.19s.58.57.58.57v.19s-.77-.77-.77-.77h.19s.58.57.58.57v-.19s-.39-.39-.39-.39h.19s.19.19.19.19v-.19h0Z"/>
    <path d="M160.6,164.49c-2.7-1.43-4.85-3.8-5.99-6.64,2.71,1.42,4.85,3.81,5.99,6.64h0Z"/>
    <path d="M43.67,48.46c-3.13-1.32-5.81-3.64-7.55-6.56,3.14,1.32,5.8,3.64,7.55,6.56h0Z"/>
    <path d="M101.01,98.31v-.25s.26.25.26.25h.25s-.51-.51-.51-.51v-.25s.77.77.77.77h-.19s-.58-.57-.58-.57v.38s.2.19.2.19c-.09,0-.29,0-.38,0,0,0,.19.19.19.19v.38s-.59-.58-.59-.58h-.19s.77.76.77.76v-.25s-.52-.52-.52-.52h.25s.26.25.26.25v-.25h0Z"/>
    <path d="M168.08,156.61c-3.86-1.95-7.23-4.88-9.7-8.43,3.86,1.95,7.23,4.89,9.7,8.43h0Z"/>
    <path d="M43.67,59.63c-5.24-2.26-10.06-5.51-14.11-9.52,5.24,2.25,10.06,5.51,14.11,9.52h0Z"/>
    <path d="M101.01,98.31v-.25s.26.25.26.25h.25s-.51-.51-.51-.51v-.25s.77.77.77.77h-.19s-.58-.57-.58-.57v.38s.2.19.2.19c-.09,0-.29,0-.38,0,0,0,.19.19.19.19v.38s-.59-.58-.59-.58h-.19s.77.76.77.76v-.25s-.52-.52-.52-.52h.25s.26.25.26.25v-.25h0Z"/>
    <path d="M174.51,147.88c-5.93-2.72-11.4-6.4-16.14-10.88,5.93,2.71,11.39,6.41,16.14,10.88h0Z"/>
    <path d="M43.67,69.09c-6.99-2.38-13.64-5.75-19.67-10.02,7,2.37,13.63,5.76,19.67,10.02h0Z"/>
    <path d="M101.01,98.31v-.25s.26.25.26.25h.25s-.51-.51-.51-.51v-.25s.01.25.01.25l.51.52h-.25s-.26-.25-.26-.25c0,.13,0,.38,0,.51,0,0-.26-.25-.26-.25h-.25s.51.51.51.51v.25s-.01-.25-.01-.25l-.51-.52h.25s.26.25.26.25v-.25h0Z"/>
    <path d="M179.81,138.46c-3.78-1.24-7.51-3-11.07-4.77-3.58-1.84-7.09-3.79-10.37-6.15,3.84,1.27,7.47,2.97,11.07,4.77,3.53,1.84,7.14,3.81,10.37,6.15h0Z"/>
    <path d="M43.67,77.44c-4.07-.36-8.02-1.78-11.36-4.13,4.07.35,8.01,1.79,11.36,4.13h0Z"/>
    <path d="M26.88,71.33c-2.68.14-5.36-.82-7.32-2.66,2.68-.15,5.36.83,7.32,2.66h0Z"/>
    <path d="M101.01,98.31h.25s-.25-.25-.25-.25v-.51s.78.77.78.77h-.25s-.52-.51-.52-.51c0,.25,0,.77,0,1.02,0,0-.52-.51-.52-.51h-.25s.77.76.77.76v-.51s-.26-.26-.26-.26h.25Z"/>
    <path d="M183.89,128.47c-2.85.08-5.67-.94-7.8-2.84,2.85-.09,5.67.94,7.8,2.84h0Z"/>
    <path d="M169.73,123.32c-4.07-.36-8.02-1.78-11.36-4.13,4.07.35,8.01,1.79,11.36,4.13h0Z"/>
    <path d="M43.67,85.07c-3.94.17-7.9-.73-11.36-2.62,3.94-.18,7.89.74,11.36,2.62h0Z"/>
    <path d="M25.96,80.99c-3.36.31-6.77-.47-9.65-2.23,3.36-.32,6.77.48,9.65,2.23h0Z"/>
    <path d="M101,98.31l.02-.77v.19s.58.58.58.58h-.19s-.39-.38-.39-.38c0,.19,0,.58,0,.77,0,0-.39-.38-.39-.38h-.19s.58.57.58.57v.19s-.02-.77-.02-.77h0Z"/>
    <path d="M186.69,118.09c-3.68.23-7.4-.62-10.6-2.45,3.68-.24,7.4.62,10.6,2.45h0Z"/>
    <path d="M25.96,90.42c-3.91.65-7.96.23-11.65-1.22,3.91-.66,7.96-.23,11.65,1.22h0Z"/>
    <path d="M101,98.31l.02-.77v.19s.58.58.58.58h-.19s-.39-.38-.39-.38c0,.19,0,.58,0,.77,0,0-.39-.38-.39-.38h-.19s.58.57.58.57v.19s-.02-.77-.02-.77h0Z"/>
    <path d="M188.18,107.48c-4.06.64-8.26.2-12.09-1.27,4.06-.65,8.26-.2,12.09,1.27h0Z"/>
    <path d="M25.96,99.62c-4.02,1.13-8.31,1.21-12.37.22,4.02-1.14,8.31-1.2,12.37-.22h0Z"/>
    <path d="M101,98.31l.02-.77c.02.38.02,1.16,0,1.54,0,0-.02-.77-.02-.77h0Z"/>
    <path d="M188.38,96.79c-4,1.13-8.26,1.21-12.3.22,4-1.14,8.26-1.2,12.3-.22h0Z"/>
    <path d="M25.96,108.87c-3.7,1.59-7.81,2.17-11.8,1.66,3.7-1.59,7.81-2.16,11.8-1.66h0Z"/>
    <path d="M101.01,98.32l.02-.58-.58.58h-.19s.77-.77.77-.77c.02.38.02,1.15,0,1.54,0,0,.77-.77.77-.77h-.19s-.58.58-.58.58l-.02-.58h0Z"/>
    <path d="M187.3,86.19c-3.5,1.56-7.41,2.11-11.21,1.57,3.5-1.56,7.41-2.11,11.21-1.57h0Z"/>
    <path d="M25.96,118.43c-2.94,1.88-6.44,2.83-9.93,2.66,2.94-1.89,6.44-2.82,9.93-2.66h0Z"/>
    <path d="M43.67,113.68c-3.43,2.01-7.38,3.08-11.36,3.04,3.42-2.02,7.38-3.07,11.36-3.04h0Z"/>
    <path d="M101.01,98.32v-.77s.02.25.02.25l-.51.52h.25s.26-.26.26-.26c0,.13,0,.38,0,.51,0,0,.26-.25.26-.25h.25s-.51.52-.51.52v.25s-.02-.77-.02-.77h0Z"/>
    <path d="M169.73,79.9c-3.43,2.01-7.38,3.08-11.36,3.04,3.42-2.02,7.38-3.07,11.36-3.04h0Z"/>
    <path d="M184.94,75.83c-2.57,1.78-5.73,2.63-8.85,2.37,2.57-1.79,5.73-2.62,8.85-2.37h0Z"/>
    <path d="M43.67,121.49c-3.31,2.48-7.25,4.08-11.36,4.59,3.31-2.49,7.25-4.07,11.36-4.59h0Z"/>
    <path d="M25.96,128.64c-1.74,1.84-4.23,2.85-6.76,2.73,1.73-1.84,4.23-2.84,6.76-2.73h0Z"/>
    <path d="M100.99,98.33l-.17-.56-.4.55h-.18s.77-.77.77-.77l.02.46-.31.31h.15s.16-.16.16-.16c0,.08,0,.23,0,.3,0,0,.16-.15.16-.15h.15s-.31.31-.31.31l-.02.46.77-.77h-.18s-.4.56-.4.56l-.2-.55h0Z"/>
    <path d="M181.34,65.87c-3.53,2.09-7.41,3.78-11.19,5.35-3.85,1.53-7.73,2.95-11.77,3.92,3.58-2.11,7.36-3.78,11.19-5.35,3.81-1.5,7.78-2.98,11.77-3.92h0Z"/>
    <path d="M43.67,130.11c-6.13,4.6-12.88,8.36-20.04,11.1,6.12-4.61,12.88-8.35,20.04-11.1h0Z"/>
    <polygon points="100.99 98.33 100.78 97.97 101.01 97.9 101.02 97.78 100.48 98.32 100.36 98.31 101.02 97.66 101.02 97.54 101.03 97.66 100.37 98.31 100.49 98.31 101.03 97.77 101.03 97.89 100.8 97.96 101.05 98.3 101.26 98.66 101.03 98.73 101.03 98.84 101.56 98.31 101.68 98.31 101.03 98.97 101.02 99.08 101.02 98.97 101.67 98.31 101.55 98.32 101.02 98.85 101.01 98.74 101.24 98.67 100.99 98.33 100.99 98.33"/>
    <path d="M176.57,56.44c-5.51,4.26-11.65,7.68-18.19,10.08,5.5-4.27,11.66-7.67,18.19-10.08h0Z"/>
    <path d="M43.67,139.99c-4.12,4.3-9.04,7.89-14.4,10.47,4.11-4.31,9.04-7.88,14.4-10.47h0Z"/>
    <path d="M101.01,98.33h-.14s.04-.11.04-.11l-.14-.15.24-.1v-.28s-.62.63-.62.63h-.14s.77-.77.77-.77v.13s-.63.63-.63.63h.13s.22-.42.22-.42c.15.2.43.61.55.82,0,0,.22-.41.22-.41h.13s-.63.64-.63.64v.13s.76-.77.76-.77h-.14s-.63.63-.63.63v-.28s.23-.1.23-.1l-.15-.14.04-.1h-.14Z"/>
    <path d="M170.71,47.68c-3.43,3.8-7.66,6.88-12.34,8.96,3.42-3.8,7.67-6.88,12.34-8.96h0Z"/>
    <path d="M43.67,151.8c-1.76,3.09-4.46,5.61-7.66,7.15,1.76-3.09,4.46-5.6,7.66-7.15h0Z"/>
    <path d="M101.01,98.33h-.22s.06-.17.06-.17l-.22-.23.38-.16v-.22s-.76.77-.76.77h.15s.62-.62.62-.62v.15s-.46.46-.46.46h.15s.31-.31.31-.31v.15s-.15.16-.15.16c.08,0,.23,0,.3,0,0,0-.15.16-.15.16v.15s.3-.31.3-.31h.15s-.46.47-.46.47v.15s.61-.61.61-.61h.15s-.77.77-.77.77v-.22s.38-.16.38-.16l-.23-.22.06-.16h-.22Z"/>
    <path d="M163.88,39.7c-1.02,2.39-3.04,4.28-5.5,5.13,1.02-2.4,3.04-4.27,5.5-5.13h0Z"/>
    <path d="M51.08,157.84c-1.57,3.51-4.13,6.57-7.32,8.72,1.56-3.51,4.14-6.57,7.32-8.72h0Z"/>
    <path d="M101.01,98.33l-.17-.37-.23.36h-.18s.59-.6.59-.6v-.18s-.76.77-.76.77h.3s.46-.47.46-.47v.15s-.3.31-.3.31c.15,0,.46,0,.61,0,0,0-.31.31-.31.31v.15s.46-.46.46-.46h.3s-.77.78-.77.78v-.18s.58-.59.58-.59h-.18s-.23.37-.23.37l-.19-.36h0Z"/>
    <path d="M156.15,32.62c-2.07,4.12-5.12,7.76-8.82,10.51,2.07-4.12,5.13-7.75,8.82-10.51h0Z"/>
    <path d="M62.36,157.84c-2.4,5.64-5.77,10.85-9.95,15.33,2.39-5.64,5.78-10.84,9.95-15.33h0Z"/>
    <path d="M101.01,98.33h-.17s.05-.13.05-.13l-.17-.18.3-.13v-.17s-.59.59-.59.59h-.17s.77-.77.77-.77v.15s-.61.62-.61.62h.15s.46-.47.46-.47v.15s-.3.31-.3.31c.15,0,.46,0,.61,0,0,0-.31.31-.31.31v.15s.46-.46.46-.46h.15s-.61.62-.61.62v.15s.76-.77.76-.77h-.17s-.6.6-.6.6v-.17s.29-.13.29-.13l-.18-.17.05-.12h-.17Z"/>
    <path d="M147.65,26.51c-2.68,6.07-6.33,11.71-10.79,16.62,2.67-6.08,6.34-11.7,10.79-16.62h0Z"/>
    <path d="M71.99,157.84c-1.11,3.67-2.74,7.29-4.39,10.75-1.72,3.47-3.54,6.89-5.77,10.07,1.14-3.72,2.71-7.26,4.39-10.75,1.72-3.43,3.56-6.94,5.77-10.07h0Z"/>
    <path d="M101.02,98.33h-.38s.38-.4.38-.4v-.19s-.57.58-.57.58h-.19s.19-.01.19-.01l.58-.58v.19s-.38.39-.38.39c.19,0,.58,0,.77,0,0,0-.38.39-.38.39v.19s.57-.58.57-.58h.19s-.19.01-.19.01l-.58.58v-.19s.38-.39.38-.39h-.38Z"/>
    <path d="M138.5,21.47c-1.18,3.81-2.88,7.57-4.59,11.17-1.79,3.61-3.67,7.16-5.97,10.49,1.2-3.86,2.84-7.54,4.59-11.17,1.78-3.57,3.69-7.22,5.97-10.49h0Z"/>
    <path d="M80.53,157.84c-.28,4.05-1.63,8-3.91,11.36.27-4.05,1.64-8,3.91-11.36h0Z"/>
    <path d="M74.43,175.55c.19,2.69-.74,5.39-2.55,7.4-.19-2.69.74-5.39,2.55-7.4h0Z"/>
    <path d="M101.02,98.33h-.38s.38-.4.38-.4v-.19s-.57.58-.57.58h-.19s.19-.01.19-.01l.58-.58v.19s-.38.39-.38.39c.19,0,.58,0,.77,0,0,0-.38.39-.38.39v.19s.57-.58.57-.58h.19s-.19.01-.19.01l-.58.58v-.19s.38-.39.38-.39h-.38Z"/>
    <path d="M128.83,17.57c.13,2.85-.84,5.69-2.71,7.85-.14-2.85.85-5.69,2.71-7.85h0Z"/>
    <path d="M123.94,31.78c-.28,4.05-1.63,8-3.91,11.36.27-4.05,1.64-8,3.91-11.36h0Z"/>
    <path d="M84.61,175.55c.32,3.59-.45,7.24-2.21,10.39-.32-3.59.46-7.24,2.21-10.39h0Z"/>
    <path d="M101.02,98.34l-.61-.02.61-.62v-.15s-.76.77-.76.77h.3s.46-.47.46-.47v.15s-.3.31-.3.31c.15,0,.46,0,.61,0,0,0-.31.31-.31.31v.15s.46-.46.46-.46h.3s-.77.78-.77.78v-.15s.61-.62.61-.62l-.61.02h0Z"/>
    <path d="M118.76,14.86c.3,3.65-.47,7.36-2.24,10.57-.31-3.65.48-7.35,2.24-10.57h0Z"/>
    <path d="M94.26,175.55c.71,4.02.35,8.2-1.05,12.03-.72-4.02-.34-8.2,1.05-12.03h0Z"/>
    <path d="M101.02,98.34l-.77-.02c.38-.02,1.16-.02,1.54,0,0,0-.77.02-.77.02h0Z"/>
    <path d="M108.45,13.37c.71,4.03.35,8.21-1.06,12.05-.72-4.03-.34-8.21,1.06-12.05h0Z"/>
  </g>
</svg>