<?xml version="1.0" encoding="UTF-8"?>
<svg id="Layer_1" data-name="Layer 1" xmlns="http://www.w3.org/2000/svg" viewBox="0 0 200 200">
  <path d="M168.75,98.64c-.68-9.67-2.86-19.21-7.6-27.35-8.91-15.3-25.64-24.98-43.36-24.98-26.74,0-48.63,20.77-50.06,47.39-23.69,4.44-40.83,25.07-40.83,49.27,0,11.59,3.33,23.03,11.2,31.75,24.85,27.55,77.62,23.61,109.51,15.2,1.55-.41,4.41-9.1,5.11-10.7,8.29-18.68,13.37-38.85,15.49-59.16.72-6.85,1.04-14.18.54-21.43ZM90.31,102.17c2.12-4.51,7.49-6.45,12-4.34,4.51,2.12,6.45,7.49,4.33,12-2.12,4.51-7.49,6.45-12,4.34-4.51-2.12-6.45-7.49-4.34-12ZM74.24,95.99c3.09.89,5.93,3.24,6.58,6.51,1,5.06-2.59,9.1-5.13,13.02-2.4,3.7-2,6.69.19,10.35-1.92-.85-3.43-2.59-4.01-4.6-2.35-8.26,12.29-16.14,2.73-23.39-.61-.46-1.26-.87-1.91-1.26-.68-.39-1.38-.75-2.12-1.11,1.23-.03,2.48.14,3.67.49ZM111.31,147.15c-1.02,2.65-2.35,5.18-3.74,7.48-4.11,6.83-9.25,13.11-15.28,18.33-.51.45-2.96,3.05-3.58,2.93-12.66-2.31-31.96-9.67-36.17-23.52-1.33-4.38-.61-8.98,1.31-13.07,4.02-8.55,13.49-13,22.6-10.64,4.92-9.17,16.09-12.88,25.54-8.45,6.25,2.94,10.56,9.13,11.18,16.01.32,3.66-.49,7.39-1.85,10.92Z"/>
  <circle cx="84.29" cy="26.11" r="22.27"/>
</svg>