<?xml version="1.0" encoding="UTF-8"?>
<svg id="Layer_1" data-name="Layer 1" xmlns="http://www.w3.org/2000/svg" viewBox="0 0 200 200">
  <path d="M59.86,64.23H9.59v28.84l9.64,9.72h31.82v3.87h-31.81l-9.65,9.73v8.1h52.95l7.3-7.36v-42.83l-9.98-10.07ZM51.05,85.54h-22.67v-4.43h22.67v4.43Z"/>
  <rect x="101.94" y="64.23" width="18.79" height="30.12"/>
  <rect x="148.39" y="64.23" width="18.79" height="30.12"/>
  <rect x="125.17" y="64.23" width="18.79" height="60.25"/>
  <polygon points="190.41 75.83 190.41 124.48 171.62 124.48 171.62 64.23 178.74 64.23 190.41 75.83"/>
  <polygon points="78.71 75.83 78.71 124.48 97.51 124.48 97.51 64.23 90.38 64.23 78.71 75.83"/>
</svg>