<?xml version="1.0" encoding="UTF-8"?>
<svg id="Layer_1" data-name="Layer 1" xmlns="http://www.w3.org/2000/svg" viewBox="0 0 200 200">
  <rect x="95.68" y="12.03" width="4.8" height="20.2"/>
  <path d="M42.83,122.45h-4.27v-48.07c0-1.66.81-3.22,2.18-4.18,1.36-.95,3.11-1.18,4.67-.61l51.57,18.8c.18.07.39.07.58,0l51.56-18.8c1.56-.57,3.31-.34,4.67.61,1.36.95,2.18,2.52,2.18,4.18v48.04h-4.27v-48.04c0-.38-.22-.59-.36-.68-.13-.09-.41-.23-.76-.1l-51.57,18.8c-1.13.41-2.37.41-3.49,0l-51.57-18.8c-.35-.13-.63,0-.76.1-.13.09-.36.31-.36.68v48.07Z"/>
  <path d="M38.54,118.41c-.21.31-.9.61-1.47.82-6.06,2.26-9.08,6.77-9.12,13.28,0,1.2,0,2.4,0,3.7-2.51.03-2.86,1.45-2.85,3.38.06,8.44.08,16.87-.01,25.3-.02,2.02.25,3.6,2.55,4.01,0,2.99.04,5.8-.02,8.61-.04,1.93.82,2.77,2.74,2.74,3.19-.05,6.38-.07,9.57,0,2.16.06,3.01-.85,2.92-3-.11-2.85-.03-5.71-.03-8.55h110.88c0,2.93.08,5.72-.03,8.51-.08,2.12.72,3.1,2.9,3.04,3.19-.07,6.38-.07,9.57,0,2.06.04,2.89-.92,2.85-2.91-.05-2.35-.05-4.71.02-7.07.02-.6.36-1.2.6-1.78.43-1.03,1.27-2.05,1.28-3.08.11-8.36.04-16.72.07-25.08,0-2.11.32-4.33-2.9-4.22.85-9.25-2.35-15.5-11.54-17.68l-4.51-.45c-.01.11-.36.24-.37.36h-11.59v-11.62q0-6.86-6.62-8.54c-9.62-2.42-19.11-1.91-28.51,1.2-1.79.59-2.52,1.57-2.48,3.49.1,5.08.04,10.16.04,15.51h-10.43v-7.26c0-2.89-.05-5.78.02-8.66.04-1.52-.58-2.38-2.01-2.88-11.17-3.89-22.33-3.88-33.52-.06-1.66.56-2.18,1.61-2.16,3.26.06,4.63.03,9.27.01,13.91,0,.51-.1,1.03-.16,1.66h-11.7l-4,.05ZM106.45,103.83c0-.42.81-1.03,1.36-1.2,8.95-2.74,17.92-2.75,26.88-.02.59.18,1.46.88,1.47,1.35.11,4.75.07,9.51.07,14.4h-29.83c0-4.87-.04-9.71.06-14.53ZM58.3,107.28q0-4.38,4.25-5.42c8-1.95,15.95-1.69,23.81.68.69.21,1.69,1.04,1.7,1.61.14,4.68.08,9.37.08,14.25h-29.84v-11.13ZM32.31,129.21c.91-3.84,4.32-6.46,8.24-6.75.68-.05,1.37-.05,2.05-.05,36.99,0,73.99,0,110.98,0,5.09,0,8.69,1.97,9.93,6.02.74,2.38.65,5.02.96,7.74H31.68c.2-2.48.12-4.79.62-6.96ZM38.8,176.24h-7.16v-7.58h7.16v7.58ZM164.92,176.27h-7.1v-7.54h7.1v7.54ZM166.91,164.5H29.24v-24.11h137.66v24.11Z"/>
  <path d="M190.37,190.37H9.63v-103.05c0-20.75,8.08-40.26,22.75-54.93,14.67-14.67,34.18-22.75,54.93-22.75h29.34c19.69,0,38.2,7.67,52.12,21.59,13.92,13.92,21.59,32.43,21.59,52.12v107.03ZM14.43,185.57h171.15v-102.23c0-38-30.92-68.92-68.92-68.92h-29.34C47.12,14.43,14.43,47.12,14.43,87.32v98.26Z"/>
  <path d="M120.1,54.25h-44.04v-2.4c0-12.14,9.88-22.02,22.02-22.02s22.02,9.88,22.02,22.02v2.4ZM81.02,49.46h34.12c-1.17-8.37-8.37-14.83-17.06-14.83s-15.89,6.46-17.06,14.83Z"/>
</svg>