<?xml version="1.0" encoding="UTF-8"?>
<svg id="Layer_1" data-name="Layer 1" xmlns="http://www.w3.org/2000/svg" viewBox="0 0 200 200">
  <path d="M194.78,90.69v36.4h-66.73v67.7h-31.89c-13.37,0-24.2-10.84-24.2-24.2v-43.49H5.22v-36.46c0-9.78,7.93-17.7,17.7-17.7h38.26c2.85,2.85,6.59,4.79,10.76,5.37.87.13,1.76.19,2.66.19,3.45,0,6.88-.95,9.83-2.74.66-.4,1.3-.84,1.91-1.32,2.26-1.78,4.22-4.22,5.48-6.8.78-1.6,1.32-3.3,1.62-5.05.18-1.05.27-2.11.27-3.18,0-5.7-2.53-10.81-6.53-14.27-3.3-2.87-7.62-4.59-12.33-4.59-.99,0-1.95.08-2.9.22v-7.1c0-12.23,9.91-22.14,22.14-22.14,0,0,4.46,0,4.46,0,0,3.32,0,6.64,0,9.96,0,3.21.3,6.42.66,9.61.17,1.54.47,3.07.9,4.57.83,2.91,2.14,5.68,3.85,8.17,3.41,4.96,8.4,8.76,14.1,10.69,2.9.99,5.96,1.48,9.02,1.48.32,0,.64,0,.97-.02v16.94h48.97c9.81,0,17.76,7.95,17.76,17.76Z"/>
  <circle cx="128.29" cy="26.75" r="21.03"/>
  <circle cx="74.85" cy="59.39" r="10.64"/>
</svg>