<?xml version="1.0" encoding="UTF-8"?>
<svg id="Layer_1" data-name="Layer 1" xmlns="http://www.w3.org/2000/svg" viewBox="0 0 200 200">
  <path d="M188.89,79.88c-.89,1.3-2.6,1.25-3.9,1.63-1.99.59-3.97,1.25-5.91,1.98-3.89,1.45-7.69,3.16-11.37,5.08-32.46,16.91-50.98,49.63-54.2,55.3-1.93,3.41-6.25,11.45-14.44,20.74-1.75,1.99-6.88,7.64-13.55,12.96-2.44,1.95-4.68,4.15-7.35,5.47-.13.06-.25.12-.37.17-1.34.61-2.8,1-4.45,1.01-6,.05-12.08-.34-17.93-1.74-6.51-1.56-11.99-4.36-14.87-10.74-.77-1.72-1.84-3.22.78-3.52.53-.06,1.05-.13,1.57-.21,5.19-.75,10.2-2.24,15.18-3.91,10.46-3.52,20.52-8.32,29.62-14.59,4.86-3.34,9.44-7.1,13.63-11.26,5.82-5.79,3.35-4.85,19.87-24.2,13.48-15.79,20.21-23.67,26.2-28.52,2.96-2.39,6.89-5.16,12.03-7.82.62-.32,1.25-.64,1.91-.94-1.62.22-3.19.49-4.72.8-6.74,1.35-12.67,3.47-17.8,5.73-5.12,2.25-9.43,4.67-12.9,6.6-10.1,5.65-18.4,12.38-21,14.51-4.62,3.78-5.61,5.04-15.75,13.82-7.78,6.74-11.73,10.15-15,12.44-7.52,5.27-15.62,9.21-21,11.06-2.6.88-5.23,1.51-7.86,1.91-13.54,2.07-26.99-4.26-34.49-15.71-1.49-2.28-2.8-4.62-3.81-7.09-.6-1.44-1.09-2.92-1.46-4.44,4.17,1.85,9.05,3.52,14.62,4.6,28.44,5.47,51.4-9.19,56.25-12.44,6.31-3.65,15.53-9.21,26.25-16.59,16.12-11.08,15.57-12.47,23.26-16.58,5.17-2.77,20.19-10.8,38.24-10.09.23,0,.45.02.67.04-.04-.02-.08-.03-.12-.05-10.34-3.62-21.35-5.99-32.25-5.99-1.49,0-2.98.05-4.46.14-15.25.93-29.9,6.6-42.85,14.26-13.06,7.72-24.87,17.5-38.69,23.83-11.03,5.04-23.37,7.72-35.47,6.97-.84-.05-1.44-.85-1.26-1.68,1.04-5.09,2.93-10.03,3.18-15.27.07-1.57.02-3.13-.1-4.7-.19-2.37-.53-4.74-.81-7.11-.12-1.04-.23-2.08-.31-3.12-.08-.95.79-1.7,1.72-1.47,2.45.61,4.42,1.04,5.02,1.17,7.01,1.43,14.22,2,21.38,1.67,13.17-.61,25.98-4.81,36.93-11.92,10.73-6.97,22.72-13.21,35.69-15.47,14.32-2.49,28.88.68,42.48,5.15,8.11,2.67,15.86,6.36,23.03,10.98,2.03,1.31,4.03,2.66,6.05,3.97,1.71,1.12,2.59,2.24,3.58,4.1.74,1.39,1.1,2.93,1.31,4.48.11.82.15,1.64.27,2.46.08.55.14,1.13-.02,1.66-.05.17-.13.33-.22.47Z"/>
  <path d="M193.96,100.88c-.25-2.1-.58-4.36-1-6.69-.13-.74-.26-1.48-.4-2.2-.23-1.2-.47-2.44-.75-3.8-.11-.52-.22-1.03-.33-1.54l-.11-.53c-.09-.41-.17-.82-.25-1.23l-.02-.08c-.03-.08-.04-.16-.06-.28l-.21-.95c-.22-1.02-.44-2.03-.64-3.01l-.04-.16c-.02-.1-.04-.19-.06-.28-.08-.43-.17-.84-.26-1.24l-.11-.54c-.16-.77-.32-1.53-.46-2.27l-.04-.17c-.41-2.05-.71-3.82-.94-5.4-.08-.59-.16-1.19-.26-1.8-.54-3.53-1.3-7.34-3.24-10.79-1.09-1.93-2.42-3.73-4.07-5.51-.62-.66-1.28-1.33-1.98-1.99-.88-.83-1.85-1.67-2.96-2.59-.17-.14-.35-.27-.52-.42l-.09-.07c-.91-.73-1.83-1.44-2.72-2.14-1.21-.94-2.45-1.91-3.62-2.89-1.02-.84-1.88-1.61-2.63-2.34-.85-.82-1.76-1.72-2.78-2.73l-.74-.74c-5.23-5.24-10.17-10.18-17.72-13.72-5.01-2.34-10.25-3.87-15.33-5.35-1.94-.57-3.95-1.16-5.9-1.78-1.63-.52-3.25-1.17-4.97-1.86-3.84-1.55-7.81-3.15-12.32-3.37-5.51-.27-10.65,1.24-15.62,2.68-2.16.64-4.2,1.23-6.23,1.67-3.62.79-7.72,1.13-12.05,1.49-8.67.71-17.62,1.44-24.74,5.97-2.2,1.4-2.97,2.27-4.67,4.17-1.46,1.64-3.68,4.12-8.43,8.82-5.8,5.74-9.25,8.74-11.53,10.72-2.88,2.5-4.47,3.88-6.75,7.27-2.77,4.12-7.51,12.44-8.21,21.74-.09,1.25-.11,2.55-.05,3.98v.07c.07,1.91.27,3.76.45,5.32.08.68.16,1.36.25,2.04.22,1.71.42,3.32.55,4.93.12,1.59.15,2.99.09,4.28-.15,3.09-.95,6.14-1.81,9.38-.6,2.27-1.23,4.62-1.62,7.05-.23,1.33-.35,2.57-.41,3.82,0,.2-.02.41-.02.62v.1c0,.07,0,.15,0,.22-.02.53,0,1,.02,1.43.07,1.99.36,4.01.84,5.99.25,1.04.56,2.09.93,3.11.37,1.06.57,2.15,1.08,3.18.48.94,1.12,1.86,1.62,2.76.47.84.96,1.67,1.48,2.49,1.04,1.64,2.16,3.23,3.34,4.78,2.33,3.07,4.89,5.97,7.43,8.88.53.61,1.06,1.22,1.6,1.84,1.53,1.74,2.73,3.17,3.81,4.49,1.01,1.24,1.86,2.36,2.62,3.42.38.53.76,1.08,1.14,1.65,1.68,2.55,3,5.31,4.23,8.04.18.4.35.8.54,1.19.62,1.36,1.25,2.77,1.92,4.12.09.19.18.38.27.56l.07.13c.44.85.93,1.79,1.49,2.74,1.27,2.14,2.93,4.42,5.17,6.33.82.71,1.7,1.34,2.61,1.88,2.95,1.77,6.38,2.79,10.48,3.11,5.51.43,11.32.74,16.94,1.05l2.77.15c2.27.13,4.54.25,6.81.39,2.86.18,5.38.35,7.7.54.93.07,1.84.15,2.75.23,3.52.31,8.21.69,13.28.9,2.48.11,4.92.16,7.26.17h.64c8.12,0,15.16-.59,21.5-1.79,13.44-2.54,23.34-7.94,29.43-16.02,2.17-2.87,4.12-7.47,7.99-16.61l.02-.06c2.02-4.74,3.1-7.79,4.06-10.47.92-2.58,1.72-4.81,3.14-8.09.59-1.36,1.17-2.63,1.74-3.79,2.03-4.13,3.43-6.1,4.68-7.83,1.42-1.97,2.63-3.67,3.81-7.22.05-.15.11-.31.15-.48,1.58-5.01,1.9-11.25.97-19.05ZM186.47,117.87c-.04.12-.07.23-.11.34l-.02.05c-.84,2.56-1.61,3.62-2.87,5.39-1.34,1.85-3,4.17-5.27,8.82-.61,1.24-1.24,2.61-1.86,4.06-1.52,3.5-2.39,5.94-3.32,8.52-.97,2.73-1.98,5.55-3.91,10.11l-.03.06c-3.54,8.36-5.5,12.96-7.15,15.16-5.04,6.68-13.54,11.19-25.25,13.41-6.08,1.15-12.89,1.71-20.85,1.67-2.24,0-4.59-.06-6.99-.16-4.93-.21-9.53-.57-12.98-.88-.94-.07-1.87-.15-2.82-.23-2.35-.19-4.91-.36-7.81-.55-2.28-.14-4.57-.26-6.86-.39l-.6-.04-2.18-.12c-.36-.02-.72-.04-1.08-.05-5.24-.28-10.62-.58-15.7-.97-3.02-.24-5.47-.94-7.49-2.15-.59-.35-1.14-.75-1.7-1.23-1.8-1.53-3.33-3.67-4.98-6.93l-.06-.13c-.07-.15-.15-.3-.23-.45l-.02-.05c-.49-1-.97-2.04-1.46-3.12-.07-.17-.15-.35-.24-.53-.04-.1-.08-.19-.13-.29-1.51-3.34-3.07-6.79-5.29-10.17-.43-.65-.87-1.3-1.3-1.89-.83-1.15-1.75-2.38-2.85-3.73-1.13-1.39-2.39-2.89-3.97-4.69-.54-.62-1.07-1.23-1.61-1.84-1.63-1.85-3.27-3.73-4.84-5.64-3.37-4.09-6.42-8.32-8.27-12.82l-.15-.37c-.46-1.16-.84-2.33-1.12-3.47-.28-1.16-.48-2.33-.58-3.51-.04-.38-.06-.77-.08-1.16,0-.37-.02-.78,0-1.24,0-.19,0-.39.02-.56.04-.94.15-1.92.32-2.98.35-2.11.9-4.2,1.48-6.41.18-.68.36-1.37.55-2.07.72-2.8,1.34-5.68,1.49-8.74.07-1.58.04-3.25-.11-5.13-.15-1.77-.36-3.53-.57-5.23-.08-.67-.16-1.34-.25-2.01-.16-1.41-.35-3.08-.41-4.72v-.06c-.05-1.19-.04-2.27.05-3.29.09-1.22.28-2.47.56-3.77,1.04-4.72,3.31-9.89,6.5-14.66,1.77-2.63,2.8-3.52,5.55-5.9,2.35-2.04,5.9-5.13,11.86-11.04,4.89-4.85,7.28-7.52,8.71-9.11,1.56-1.75,1.84-2.07,3.24-2.96,5.69-3.62,13.79-4.29,21.63-4.92,4.37-.36,8.88-.74,12.95-1.63,2.26-.5,4.51-1.15,6.68-1.78,4.64-1.35,9.03-2.63,13.38-2.43,3.36.16,6.63,1.49,10.1,2.89,1.75.7,3.57,1.44,5.45,2.04,2.02.64,4.07,1.24,6.05,1.83,5.05,1.47,9.82,2.86,14.35,4.98,6.46,3.03,10.77,7.35,15.78,12.35l.74.74c1.04,1.04,1.97,1.97,2.85,2.83.87.84,1.86,1.73,3.02,2.68,1.25,1.05,2.54,2.05,3.8,3.03.86.67,1.76,1.37,2.62,2.06l.09.08c.16.13.32.25.47.37,1,.83,1.86,1.58,2.63,2.3.58.54,1.13,1.1,1.64,1.64,1.28,1.39,2.31,2.77,3.13,4.23.5.89.9,1.85,1.23,2.86.46,1.44.79,2.99,1.04,4.55.03.19.06.37.09.56.04.24.07.48.11.72.07.5.15,1,.22,1.5.05.42.12.84.19,1.28.2,1.23.44,2.56.73,4.03.02.13.05.25.07.38,0,.05.02.12.04.18.15.78.32,1.58.48,2.4l.12.54c.05.24.1.46.15.7.06.29.12.58.18.86l.04.15h0c.22,1.01.44,2.02.65,3.03l.2.92c.03.12.05.25.08.37.08.41.17.82.25,1.23l.11.51c.11.5.21,1.01.32,1.52.27,1.32.52,2.52.74,3.69.13.68.26,1.37.38,2.1.4,2.22.72,4.33.94,6.3.81,6.82.58,12.12-.7,16.2Z"/>
</svg>