<?xml version="1.0" encoding="UTF-8"?>
<svg id="Layer_1" data-name="Layer 1" xmlns="http://www.w3.org/2000/svg" viewBox="0 0 200 200">
  <path d="M111.85,105.53c-.02,1.01-.41,2.02-1.19,2.8l-1.76,1.76c-1.86-1.97-3.75-3.91-5.69-5.8l1.7-1.7c.89-.89,2.07-1.27,3.22-1.18,1.26,1.35,2.51,2.72,3.71,4.12Z"/>
  <g>
    <path d="M26.22,130.99l-7.86,2.9,4.66-5.95-7.41-1.48,7.86-2.91-1.01-2.74-13.37,4.93.95,2.57,7.74,1.56-4.88,6.22.96,2.58,13.37-4.93-1.01-2.75Z"/>
    <path d="M20.99,111.64c-.62-4-4.5-6.06-8.26-5.47-3.81.59-6.83,3.73-6.21,7.71.63,4.02,4.5,6.06,8.26,5.47,3.75-.58,6.83-3.71,6.21-7.71ZM14.31,116.37c-2.48.38-4.54-.63-4.9-2.94-.35-2.31,1.3-3.89,3.78-4.28,2.48-.38,4.54.63,4.9,2.94.36,2.31-1.3,3.89-3.78,4.28Z"/>
    <path d="M17.02,93.17l-.11,6.22-11.34-.21-.05,2.93,14.26.26.17-9.15-2.93-.05Z"/>
    <path d="M21.74,81.87l.56-3.01-14.85,1.89-.61,3.36,13.19,7.05.55-2.99-2.86-1.46.83-4.5,3.19-.34ZM15.42,85.54l-4.82-2.47,5.38-.58-.56,3.05Z"/>
    <path d="M10.53,69.32l-.89,2.79,13.58,4.34.89-2.78-13.58-4.35Z"/>
    <path d="M29.4,53.93c-4.45-2.52-6.99,3.82-9.06,2.65-.72-.41-.69-1.28-.24-2.08.98-1.73,2.79-2.33,2.79-2.33l-1.61-2.5c-.11.05-2.21.71-3.63,3.23-1.26,2.22-1.19,4.85,1.06,6.12,4.38,2.48,7-3.81,9.03-2.66.68.38.76,1.21.18,2.24-.92,1.62-2.74,2.22-2.74,2.22l1.64,2.46s2.23-.73,3.6-3.16c1.39-2.45,1.18-4.95-1.02-6.19Z"/>
    <path d="M38.93,41.39l-3.09,1.63s1.19,1.77-.28,3.58c-1.49,1.83-3.68,1.28-5.14.09-1.47-1.18-2.46-3.21-.98-5.04,1.48-1.82,3.45-1.03,3.45-1.03l.96-3.35s-4.16-1.35-7.06,2.22c-2.51,3.08-1.85,7.29,1.41,9.93,3.26,2.65,7.51,2.42,10.01-.66,2.9-3.57.72-7.37.72-7.37Z"/>
    <path d="M42.78,24.14l-2.23,1.91,3.69,4.3-3.73,3.19-3.69-4.31-2.22,1.91,9.27,10.84,2.22-1.91-3.68-4.3,3.73-3.19,3.68,4.31,2.23-1.91-9.27-10.84Z"/>
    <path d="M62.16,20.5c-1.93-3.34-5.95-5.02-9.44-3.01-3.52,2.03-4.02,6.38-2.12,9.68,1.9,3.29,5.93,5.03,9.43,3.01,3.51-2.03,4.03-6.39,2.13-9.68ZM58.57,27.64c-2.02,1.17-4.1.19-5.35-1.98-1.26-2.18-1.06-4.46.96-5.63,2.03-1.17,4.11-.19,5.36,1.98,1.26,2.17,1.06,4.46-.97,5.63Z"/>
    <path d="M78.1,14.7c-1.24-3.66-4.86-6.08-8.68-4.77-3.85,1.31-5.17,5.48-3.95,9.08,1.23,3.6,4.85,6.08,8.68,4.77,3.83-1.31,5.18-5.48,3.95-9.08ZM73.21,21.01c-2.22.75-4.07-.6-4.88-2.98-.81-2.37-.17-4.58,2.04-5.33,2.21-.76,4.06.6,4.87,2.97.81,2.38.18,4.58-2.03,5.34Z"/>
    <path d="M91.65,16.63l-6.13.99-1.8-11.19-2.89.46,2.26,14.08,9.03-1.45-.47-2.89Z"/>
    <path d="M109.9,5.33c-4.05-.42-7.01,2.8-7.41,6.58-.39,3.78,1.85,7.56,5.87,7.98,4.03.42,7.01-2.8,7.4-6.58.41-3.84-1.86-7.55-5.86-7.98ZM112.76,12.99c-.27,2.5-1.77,4.23-4.09,3.99-2.33-.25-3.43-2.25-3.17-4.75.26-2.49,1.76-4.23,4.09-3.98,2.32.24,3.43,2.25,3.17,4.74Z"/>
    <path d="M130.3,12.95l.82-2.81-9.51-2.76-3.98,13.69,2.81.82,1.58-5.44,6.03,1.75.82-2.81-6.03-1.75.76-2.63,6.7,1.94Z"/>
    <path d="M150.83,23.18l1.48-2.52-8.53-5.03-7.24,12.29,8.54,5.02,1.48-2.52-6.01-3.54,1.39-2.36,5.41,3.18,1.48-2.52-5.4-3.18,1.39-2.36,6.01,3.54Z"/>
    <path d="M161.92,28.08l-4.4,2.21,1.35-4.73-2.46-2.04-2.03,7.55-7.21,3.31,2.49,2.07,4.57-2.2-1.32,4.89,2.49,2.07,1.93-7.69,7.04-3.4-2.45-2.04Z"/>
    <path d="M172.2,38.52l-4.08-4.72-10.78,9.32,1.91,2.22,3.93-3.4,2.16,2.51c1.65,1.91,4.48,2.1,6.39.45,1.9-1.64,2.11-4.48.47-6.38ZM169.82,42.68c-.68.59-1.67.54-2.27-.15l-2.16-2.5,2.43-2.1,2.16,2.5c.58.66.52,1.67-.16,2.25Z"/>
    <path d="M181.1,50.99l-3.07-5.07-12.19,7.39,1.51,2.51,3.94-2.39.75,1.24c.24.43.23.97-.03,1.41l-2.21,3.77,1.71,2.82,2.97-5.04c.42.26.86.43,1.34.56,1.25.31,2.55.1,3.66-.57,1.1-.67,1.88-1.72,2.19-2.97.31-1.26.1-2.55-.57-3.66ZM177.96,55.12c-.44.27-.94.35-1.44.23s-.91-.43-1.17-.87l-1.56-2.57,3.25-1.97,1.56,2.57c.54.89.25,2.07-.64,2.61Z"/>
    <path d="M185.91,59.88l-13.24,5.28,3.67,9.19,2.72-1.08-2.58-6.48,2.54-1.01,2.32,5.82,2.72-1.08-2.32-5.83,2.54-1.01,2.58,6.48,2.72-1.09-3.67-9.19Z"/>
    <path d="M192.27,78.24c-.58-2.48-2.4-4.38-4.92-3.8-4.91,1.13-2.59,7.54-4.87,8.07-.76.17-1.37-.39-1.64-1.53-.42-1.82.52-3.5.52-3.5l-2.87-.7s-1.15,2.04-.52,4.76c.63,2.74,2.47,4.45,4.93,3.88,4.98-1.15,2.57-7.54,4.89-8.08.81-.18,1.38.49,1.58,1.38.45,1.94-.48,3.6-.48,3.6l2.87.76c.06-.11,1.16-2.02.51-4.84Z"/>
    <path d="M194.39,91.88c-.21-2.54-1.73-4.69-4.31-4.48-5.03.4-3.67,7.08-6,7.27-.78.06-1.3-.58-1.4-1.76-.15-1.85,1.03-3.38,1.03-3.38l-2.75-1.11s-1.43,1.85-1.21,4.64c.23,2.8,1.8,4.75,4.32,4.55,5.1-.41,3.65-7.09,6.02-7.28.83-.06,1.29.68,1.36,1.59.16,1.99-.99,3.5-.99,3.5l2.72,1.17c.07-.1,1.44-1.83,1.21-4.71Z"/>
    <path d="M180.23,100.59l-.09,2.93,14.25.46.09-2.93-14.25-.46Z"/>
    <path d="M194.16,109.03l-14.07-2.3-.47,2.89,8.33,1.36-9.28,4.51-.39,2.37,14.07,2.29.47-2.89-8.33-1.36,9.29-4.51.38-2.36Z"/>
    <path d="M184.4,122.88c-3.62-1.3-7.79,0-9.15,3.79-1.59,4.4.84,6.92.84,6.92l4.49,1.62,2.2-6.12-2.05-.74-1.22,3.36-1.37-.5c-.43-.66-.77-1.79-.14-3.54.79-2.2,3.01-2.8,5.37-1.95,2.36.86,3.69,2.73,2.89,4.93-.53,1.46-1.71,2.23-3.15,2.3l.59,2.96s3.83-.15,5.32-4.27c1.38-3.83-1.05-7.47-4.62-8.76Z"/>
  </g>
  <g>
    <path d="M40.86,156.76l-2.73-2.86-6.56,6.26,1.29,1.35,2.38-2.28,1.46,1.52c1.11,1.16,2.91,1.19,4.07.08,1.15-1.1,1.19-2.91.09-4.07ZM39.49,159.49c-.41.39-1.05.39-1.45-.03l-1.45-1.52,1.48-1.41,1.45,1.52c.38.4.38,1.04-.03,1.44Z"/>
    <path d="M49.43,165.6c-.08-.82-.49-1.55-1.12-2.07l-2.93-2.37-5.71,7.04,1.44,1.17,1.85-2.27.71.58c.24.2.35.53.29.85l-.52,2.73,1.64,1.32.69-3.65c.31.06.61.07.92.05.82-.09,1.55-.49,2.07-1.13.52-.64.76-1.44.67-2.25ZM47.31,166.68c-.2.25-.49.41-.81.44-.32.04-.64-.06-.89-.26l-1.48-1.21,1.52-1.88,1.48,1.21c.52.42.6,1.18.18,1.7Z"/>
    <path d="M53.82,167.6l-4.98,7.57,1.55,1.03,4.98-7.57-1.55-1.03Z"/>
    <path d="M64.86,173.92l-4.3,2.61-.4-5.01-1.56-.8-4.12,8.08,1.66.84,2.42-4.74.39,4.79,4.1-2.5-2.42,4.74,1.65.85,4.13-8.07-1.55-.79Z"/>
    <path d="M72.21,176.91l-5.67,7.64,1.83.63,1.18-1.67,2.76.95-.08,2.04,1.84.63.2-9.52-2.06-.7ZM72.37,182.82l-1.86-.64,2-2.8-.14,3.44Z"/>
    <path d="M85.9,181.43c-.45-.68-1.15-1.14-1.95-1.3l-3.7-.74-1.78,8.88,1.82.37.58-2.87.9.18c.3.07.55.31.65.62l.81,2.66,2.06.41-1.08-3.56c.3-.08.57-.21.84-.38.68-.46,1.14-1.15,1.3-1.96.16-.8.01-1.63-.45-2.31ZM84.02,184.15c-.28.18-.59.24-.92.17l-1.87-.37.48-2.37,1.87.37c.65.13,1.08.77.95,1.42-.07.32-.24.6-.51.78Z"/>
    <path d="M94.51,181.48l-1.61,3-1.12-3.21-2-.16,2.03,5.42-.3,3.81,1.86.14.29-3.81,2.85-5.04-2-.15Z"/>
    <path d="M113.27,187.3c-.39-3.23-4.59-2.13-4.77-3.63-.07-.53.4-.84.97-.91,1.26-.16,2.25.54,2.25.54l.67-1.76c-.06-.04-1.2-.87-3.02-.64-1.61.19-2.93,1.21-2.74,2.85.39,3.18,4.6,2.14,4.78,3.62.06.49-.34.84-1.08.93-1.18.15-2.18-.56-2.18-.56l-.64,1.77s1.22.86,2.98.65c1.78-.22,2.98-1.26,2.78-2.86Z"/>
    <path d="M123.06,184.17s-.07,1.35-1.51,1.72c-1.45.36-2.36-.75-2.65-1.91-.3-1.17-.03-2.58,1.42-2.95,1.45-.36,2.15.8,2.15.8l1.77-1.35s-1.61-2.27-4.45-1.56c-2.45.62-3.72,3.01-3.06,5.6.65,2.59,2.9,4.1,5.35,3.48,2.84-.72,3.18-3.49,3.18-3.49l-2.2-.34Z"/>
    <path d="M133.32,174.41l-1.72.7,1.34,3.34-2.89,1.16-1.35-3.34-1.72.7,3.38,8.41,1.72-.7-1.34-3.34,2.89-1.16,1.35,3.34,1.73-.7-3.39-8.41Z"/>
    <path d="M146.12,172.68c-1.22-2.13-3.77-3.21-5.99-1.94-2.24,1.28-2.58,4.04-1.38,6.14,1.2,2.1,3.75,3.21,5.99,1.94,2.23-1.27,2.57-4.04,1.38-6.14ZM143.82,177.2c-1.29.74-2.61.11-3.4-1.27s-.66-2.84.63-3.57c1.29-.74,2.61-.11,3.4,1.27.79,1.39.66,2.84-.63,3.57Z"/>
    <path d="M156.06,165.28c-1.51-1.93-4.19-2.63-6.2-1.06-2.04,1.59-1.97,4.37-.48,6.28,1.48,1.9,4.17,2.64,6.2,1.05,2.03-1.58,1.97-4.37.48-6.27ZM154.44,170.09c-1.18.91-2.57.48-3.55-.77-.98-1.26-1.06-2.72.11-3.63,1.17-.92,2.56-.49,3.55.77.98,1.26,1.06,2.71-.11,3.63Z"/>
    <path d="M165.06,160.2l-2.78,2.82-5.13-5.06-1.3,1.32,6.45,6.37,4.09-4.14-1.33-1.31Z"/>
  </g>
  <path d="M87.47,40.48c-8.54,0-15.47,6.93-15.47,15.47s6.93,15.47,15.47,15.47,15.47-6.93,15.47-15.47-6.93-15.47-15.47-15.47ZM95.88,60.88c-1.81,3.59-5.85,4.37-6.83,4.55-4.69.9-9.23-1.46-9.11-2.27.12-.75,4.16.32,9.11-1.52,3.49-1.3,5.96-3.51,7.58-5.31.11.92.17,2.71-.75,4.55Z"/>
  <path d="M111.85,105.46v.06c-.02,1.01-.41,2.02-1.19,2.8l-19.59,19.59c.02-.19.03-.39.03-.59,0-1.44-.55-2.88-1.65-3.98-1.02-1.02-2.33-1.56-3.66-1.64l17.43-17.44,1.7-1.7c.89-.89,2.07-1.27,3.22-1.18.93.08,1.82.48,2.52,1.18.8.8,1.19,1.84,1.19,2.88Z"/>
  <path d="M126.87,121.74l-1.72,1.85-2.44,2.63-12.77,13.75c-2.43,2.61-5.71,4.3-9.23,4.59-.54.06-1.08.06-1.62.05-3.1-.13-6.01-1.27-8.19-4.03-.3-.91-.57-1.75-.87-2.65.02-1.14.2-2.26.52-3.31.09-.29.22-.57.38-.83l-.02-.16,10.69-11.41,9.31-9.94,2.1-2.25c.56-.37,1.06-.81,1.48-1.32,1.22-1.43,1.86-3.34,1.63-5.4-.37-3.22-2.99-5.84-6.21-6.2-1.79-.2-3.46.27-4.81,1.19-.82.57-1.52,1.31-2.05,2.17l-1.89,1.89-20.43,20.42c-.6.61-1.09,1.31-1.42,2.07-1.56,2.33-2.46,5.13-2.46,8.15s.95,5.9,2.67,8.29c.58.8,1.24,1.55,1.99,2.22,1.5,1.37,3.24,2.46,5.08,3.29.4.18.79.38,1.15.58.27.18.55.35.82.52,1.98,1.36,3.22,3.24,3.33,5.92.02.13.02.27.02.4,0,1.02-.23,2.26-.64,3.26-1.29,3.1-4.35,5.29-7.92,5.29-9.43,0-17.91-8.6-22.22-16.3-4.47-7.98-6.21-17.27-5.51-26.43.2-2.69.61-5.37,1.23-7.99,1.79-7.65,5.29-14.87,10.33-20.78,2.92-3.42,6.41-6.31,10.26-8.59,1.72-1.03,3.5-1.93,5.34-2.7,8.18-3.43,17.4-4.38,26.06-2.31,5.25,1.25,10.2,3.67,14.34,7.16,2.44,2.06,4.57,4.48,6.32,7.14,6.1,9.31,4.91,21.62-2.66,29.76Z"/>
  <path d="M30.04,147.88c.45.54.64,1.01.47,1.31-.17.3-.67.37-1.37.24.12.7.05,1.2-.24,1.37-.3.17-.77-.02-1.31-.47-.24.66-.55,1.06-.9,1.06s-.66-.4-.9-1.06c-.54.45-1.01.64-1.31.47-.3-.17-.37-.67-.24-1.37-.7.12-1.2.05-1.37-.24-.17-.3.02-.77.47-1.31-.66-.24-1.06-.55-1.06-.9,0-.05,0-.09.02-.14-.05-.08-.08-.17-.08-.26,0-.31.32-.59.87-.82-.27-.4-.36-.75-.23-.98.17-.3.67-.37,1.37-.24-.12-.7-.05-1.2.24-1.37.3-.17.77.02,1.31.47.24-.66.55-1.06.9-1.06s.66.4.9,1.06c.54-.45,1.01-.64,1.31-.47.3.17.37.67.24,1.37.7-.12,1.2-.05,1.37.24.14.24.04.6-.25,1.02.5.22.79.49.79.78,0,.05,0,.09-.02.14.05.08.08.17.08.26,0,.34-.4.66-1.06.9Z"/>
  <path d="M175.87,147.88c.45.54.64,1.01.47,1.31-.17.3-.67.37-1.37.24.12.7.05,1.2-.24,1.37-.3.17-.77-.02-1.31-.47-.24.66-.55,1.06-.9,1.06s-.66-.4-.9-1.06c-.54.45-1.01.64-1.31.47-.3-.17-.37-.67-.24-1.37-.7.12-1.2.05-1.37-.24-.17-.3.02-.77.47-1.31-.66-.24-1.06-.55-1.06-.9,0-.05,0-.09.02-.14-.05-.08-.08-.17-.08-.26,0-.31.32-.59.87-.82-.27-.4-.36-.75-.23-.98.17-.3.67-.37,1.37-.24-.12-.7-.05-1.2.24-1.37.3-.17.77.02,1.31.47.24-.66.55-1.06.9-1.06s.66.4.9,1.06c.54-.45,1.01-.64,1.31-.47.3.17.37.67.24,1.37.7-.12,1.2-.05,1.37.24.14.24.04.6-.25,1.02.5.22.79.49.79.78,0,.05,0,.09-.02.14.05.08.08.17.08.26,0,.34-.4.66-1.06.9Z"/>
  <path d="M122.58,78.64c-.59-.84-5.29-7.81-2.66-16.34,3.06-9.92,13.14-12.58,13.66-12.71.82,1.84,3.08,7.54,1.31,14.47-2.51,9.8-11.06,14-12.3,14.59Z"/>
  <path d="M139.47,66.46c-1.02-4.63.66-9.41,4.3-12.24,4.92-3.82,10.77-1.99,11.24-1.83-.16,1.21-.97,6.46-5.65,10.36-4.05,3.37-8.5,3.67-9.88,3.71Z"/>
  <path d="M130.4,81.57c.43-1.19,2.66-6.9,8.88-9.84,7.75-3.65,15.03.14,15.82.57-1.25,6.17-5.81,11.02-11.61,12.38-6.95,1.62-12.38-2.55-13.09-3.11Z"/>
</svg>