<?xml version="1.0" encoding="UTF-8"?>
<svg id="Layer_1" data-name="Layer 1" xmlns="http://www.w3.org/2000/svg" viewBox="0 0 200 200">
  <path d="M169.21,80.3c-5.82-3.05-14.7-6.63-25.87-7.29-28.18-1.65-47.89,16.72-51.97,20.69-12.54,15.13-25.08,30.25-37.62,45.38-1.65,1.07-6.61,3.98-13.4,3.53-1.96-.13-8.48-.67-13.64-6.11-1.28-1.35-5.69-6.12-5.41-13.4.29-7.39,5.2-11.89,6.11-12.7,11.36-14.74,22.73-29.47,34.1-44.21,1.49-2.16,4.37-6.98,4.7-13.64.09-1.74.45-12.79-8.23-20.22-7.51-6.43-16.55-5.66-19.52-5.41-8.05.69-13.66,4.53-15.99,6.35-7.01,2.09-9.69,6-10.58,7.52-1.71,2.93-1.92,6.11-2.35,12.46-.37,5.56.14,6.58-.24,10.35-.33,3.28-1.25,7.91-4,13.4,3.76-1.71,9.8-5.05,15.28-11.29,8.08-9.18,10.17-19.18,10.82-23.51,1.2-1.23,3.87-3.62,7.99-4.7,1.9-.5,6.86-1.8,11.52,1.18,3.59,2.29,5.92,6.42,5.88,10.82-.03,3.8-1.83,6.51-2.59,7.52-13.64,16.46-27.28,32.92-40.91,49.38-1.9,2.32-4.37,5.85-6.35,10.58-1.09,2.6-3.45,8.42-3.29,15.99.06,2.78.44,13.51,8.7,22.81,8.42,9.48,19.41,11.16,23.28,11.52,17.86,1.69,29.96-10.81,31.51-12.46,13.09-17.71,26.18-35.43,39.27-53.14,3.72-4.28,9.09-9.37,16.46-13.64,19.37-11.22,39.1-8.96,46.32-7.76Z"/>
  <path d="M170.68,87.37c-10.97,1.22-20.78,6.31-28.02,13.88-5.06,5.29-9.2,11.37-13.25,17.45-4.13,6.21-8.68,12.12-13.2,18.05-5.22,6.83-9.87,14.39-16.51,19.97-6,5.04-13.28,8.5-20.99,9.94-1.03.19-2.07.35-3.11.47-1.77.21-3.57.32-5.39.32-4.04,0-7.95-.52-11.69-1.51,11.48-1.23,21.69-6.7,29.03-14.81,3.65-4.03,6.56-8.78,9.82-13.15,3.15-4.21,6.3-8.43,9.45-12.64,3.63-4.86,7.17-9.8,10.8-14.66,3.25-4.34,6.57-8.87,10.55-12.68,4.23-4.05,9.25-7.02,14.71-9.1,3.54-1.35,7.24-2.23,11-2.68,1.74-.21,3.52-.31,5.31-.31,3.97,0,7.81.5,11.48,1.45Z"/>
  <path d="M196.33,100.41c-10.88.97-20.61,5.94-27.71,13.43-2.81,2.97-4.96,6.47-7.37,9.75-5.26,7.13-10.25,14.46-15.73,21.43-5.05,6.43-10.6,12.91-17.9,16.97-5.14,2.85-10.86,4.65-16.72,5.23-1.46.14-2.93.22-4.43.22-3,0-5.93-.3-8.76-.88,9.8-1.99,18.4-7.27,24.61-14.63,5.28-6.23,9.81-13.22,14.71-19.76,2.89-3.86,5.8-7.7,8.72-11.54,3.01-3.97,5.88-8.05,9.66-11.34,5.47-4.75,12.12-8.1,19.19-9.65,1.73-.38,3.48-.65,5.24-.82,1.37-.13,2.75-.2,4.15-.2,4.29,0,8.43.62,12.34,1.77Z"/>
</svg>