<?xml version="1.0" encoding="UTF-8"?>
<svg id="Layer_1" data-name="Layer 1" xmlns="http://www.w3.org/2000/svg" viewBox="0 0 200 200">
  <g>
    <path d="M58.04,118.83c-5.52.64-10.48-3.39-11.02-9.13-.8-8.42,5.02-15.21,13.76-16.23,3.65-.42,7.06.3,10.35,1.71,4.72,2.03,9.36,4.26,14.09,6.25,4.57,1.92,9.32,3.18,14.33,3.22.77,0,1.59-.05,2.28-.33.52-.21,1.17-.82,1.2-1.28.03-.46-.56-1.15-1.05-1.4-.83-.42-1.79-.62-2.71-.85-2.86-.73-5.61-1.71-8.04-3.46-3.24-2.33-4.3-5.48-3.6-9.32.85-4.7,3.45-8.32,7.29-10.93,10.14-6.89,21.17-8.59,32.85-4.78,5.18,1.69,9.31,4.95,10.19,10.7,1.05,6.87-1.02,12.75-6.83,16.97-4.06,2.95-8.76,4.42-13.51,5.77-5.64,1.61-11.31,3.14-16.9,4.92-1.98.63-3.84,1.77-5.63,2.88-7.19,4.48-9.68,16.47.24,22.69,5.48,3.43,11.48,4.75,17.85,4.08,2.42-.25,4.88-.8,7.13-1.7,3.73-1.51,5.27-4.84,3.81-8.59-1.89-4.86-4.07-9.62-6.41-14.29-1.68-3.35-4.67-4.73-8.48-4.18,2.59-1.45,5.32-2.5,8.21-2.94,1.82-.28,3.72-.41,5.54-.19,4.05.5,6.9,2.81,8.57,6.51,2.11,4.68,4.15,9.4,6.25,14.1,1.85,4.14,4.23,7.89,8.51,9.9,2.13,1,4.41,1.7,6.64,2.55-.3.02-.65.07-.99.07-14.36,0-28.71.05-43.07-.02-6.22-.03-12.02-1.69-17.34-4.99-10.51-6.51-7.67-18.79-.38-23.38,4.01-2.53,8.45-3.88,12.96-5.12,5.28-1.45,10.61-2.77,15.83-4.44,4.58-1.47,8.76-3.78,11.54-7.93,2.84-4.25,3.62-8.97,2.38-13.89-1.21-4.8-4.69-7.68-9.25-8.97-10.8-3.07-20.52-.85-28.86,6.74-2.52,2.29-4.04,5.27-4.61,8.66-.76,4.58,1.01,8.05,5.28,10.41,2.26,1.25,4.71,1.9,7.28,2.16.94.1,1.89.26,2.78.57,1.57.54,1.73,1.77.39,2.8-1.54,1.19-3.38,1.5-5.25,1.58-5.9.26-11.51-1.05-16.91-3.3-4.74-1.98-9.38-4.18-14.1-6.21-3.09-1.33-6.3-2.2-9.71-1.57-5.41,1-9.3,5.42-10.03,11.15-.54,4.23.46,7.93,3.62,10.84,1.04.96,2.42,1.54,3.51,2.2Z"/>
    <path d="M81.83,96.79c-1.4-.26-2.83-.39-4.18-.82-1.14-.36-1.91-1.39-1.82-2.59.14-1.82.26-3.74.91-5.42,4.23-10.95,8.61-21.85,12.89-32.78.23-.59.2-1.43-.03-2.03-.77-1.97-1.69-3.88-2.54-5.81-1.61-3.66-4.35-6.05-8.12-7.32-.68-.23-1.34-.48-1.97-.96.97,0,1.93,0,2.9,0,5.45,0,10.89.02,16.34-.03.92,0,1.35.29,1.72,1.12,3.08,7.04,6.21,14.06,9.33,21.08.02.04.03.08.05.12,1.99,4.53,2.98,5.02,7.86,4.06-.92.6-1.83,1.25-2.77,1.81-2.44,1.44-5.03,2.48-7.87,2.82-3.96.48-7.57-1.26-9.46-4.77-1.02-1.9-1.79-3.92-2.68-5.89-.25-.55-.5-1.09-.86-1.89-.43,1.01-.78,1.8-1.1,2.6-3.63,9.06-7.27,18.11-10.86,27.18-.46,1.16-.77,2.38-1.01,3.61-.52,2.7.38,4.23,2.96,5.25.14.06.27.16.4.24-.03.13-.06.27-.1.4Z"/>
    <path d="M67.96,97.36c1.06.32,2.17.51,3.17.98,3.03,1.41,4.03,4.11,2.78,7.2-3.3,8.17-6.62,16.32-9.87,24.51-.47,1.18-.79,2.5-.8,3.76-.01,2.23,1.29,3.88,3.2,4.83,2.21,1.11,4.56,1.94,6.68,2.82h-26.08c1.57-.57,2.83-1.03,4.1-1.47,5.02-1.77,8.48-5,10.39-10.09,3.03-8.04,6.33-15.98,9.52-23.96.92-2.3.88-4.51-.75-6.46-.64-.76-1.57-1.27-2.37-1.89.02-.07.03-.15.05-.22Z"/>
    <path d="M124.7,100.53h-14.29l-6.37-14.13h-.01c-1.67-3.43-3.1-4.73-7.52-3.86.92-.61,1.83-1.25,2.77-1.81,2.44-1.44,5.03-2.48,7.87-2.82,2.71-.33,5.26.38,7.21,2,.89.74,1.66,1.67,2.25,2.77.14.26.28.53.41.8l.88,1.95,6.8,15.1Z"/>
  </g>
  <g>
    <path d="M100.03,194.35l-.83-.03c-7.09-.33-14.1-1.58-20.83-3.71-8.78-2.77-16.98-6.98-24.4-12.51l-4.74-3.54,3.1-5.05c1.97-3.2,1.5-7.34-1.08-9.62-1.23-1.09-2.89-1.69-4.67-1.69-1.26,0-2.52.31-3.66.89l-5.32,2.7-3.13-5.09c-7.15-11.62-18.73-35.61-15.92-65.67,1.14-12.12,4.45-23.91,9.84-35.07l2.07-4.29,4.71.7c.47.07.95.11,1.42.11,2.79,0,5.32-1.21,6.76-3.23,2.2-3.07,1.68-7.73-1.21-10.84l-4.49-4.83,4.91-4.4c10.95-9.82,23.47-16.7,37.2-20.45,6.32-1.73,12.86-2.76,19.44-3.06l.77-.03.82.03c6.58.31,13.12,1.34,19.44,3.06,13.73,3.75,26.24,10.62,37.2,20.44l4.91,4.4-4.49,4.83c-2.88,3.11-3.4,7.77-1.21,10.84,1.44,2.02,3.97,3.23,6.76,3.23.47,0,.95-.04,1.42-.11l4.71-.7,2.07,4.29c5.39,11.15,8.7,22.95,9.84,35.07,2.82,30.06-8.76,54.04-15.92,65.67l-3.13,5.09-5.32-2.7c-1.14-.58-2.41-.89-3.66-.89-1.78,0-3.43.6-4.66,1.69-2.58,2.28-3.04,6.42-1.08,9.62l3.1,5.05-4.74,3.54c-7.41,5.53-15.62,9.74-24.4,12.51-6.73,2.13-13.74,3.38-20.83,3.71l-.76.03ZM99.27,192.89l.77.03.7-.03c6.97-.33,13.85-1.55,20.46-3.65,8.62-2.72,16.69-6.86,23.97-12.29l3.69-2.75-2.41-3.93c-2.32-3.79-1.74-8.71,1.35-11.45,1.49-1.32,3.49-2.05,5.62-2.05,1.48,0,2.97.36,4.32,1.04l4.14,2.1,2.44-3.96c7.06-11.47,18.49-35.14,15.71-64.78-1.12-11.95-4.38-23.58-9.7-34.57l-1.61-3.34-3.67.54c-.54.08-1.09.12-1.63.12-3.25,0-6.22-1.43-7.93-3.83-2.59-3.62-2.02-9.06,1.32-12.65l3.49-3.76-3.82-3.43c-10.79-9.67-23.11-16.44-36.62-20.13-6.22-1.7-12.65-2.71-19.13-3.01l-.75-.03-.7.03c-6.47.3-12.91,1.31-19.12,3.01-13.51,3.69-25.83,10.46-36.62,20.13l-3.82,3.43,3.49,3.76c3.34,3.6,3.91,9.04,1.32,12.65-1.71,2.4-4.68,3.83-7.93,3.83-.54,0-1.09-.04-1.63-.12l-3.67-.54-1.61,3.34c-5.32,11-8.58,22.63-9.7,34.57-2.78,29.64,8.65,53.31,15.71,64.78l2.44,3.96,4.14-2.1c1.34-.68,2.83-1.04,4.32-1.04,2.13,0,4.13.73,5.62,2.05,3.09,2.74,3.67,7.66,1.35,11.45l-2.41,3.93,3.69,2.75c7.28,5.43,15.35,9.57,23.97,12.29,6.61,2.09,13.5,3.32,20.47,3.65h0Z"/>
    <path d="M100.03,188.59l-.55-.02c-6.6-.31-13.12-1.47-19.38-3.45-8.16-2.58-15.79-6.49-22.69-11.64l-.53-.39.34-.56c3.41-5.55,2.48-12.84-2.17-16.95-3.92-3.47-9.85-4.12-14.76-1.63l-.59.3-.35-.56c-6.78-11.01-17.75-33.72-15.09-62.11,1.07-11.43,4.2-22.56,9.29-33.1l.23-.48.52.08c5.39.8,10.77-1.35,13.72-5.47,3.82-5.34,3.11-12.96-1.67-18.11l-.5-.54.54-.49c10.28-9.22,22.01-15.67,34.87-19.18,5.91-1.62,12.03-2.58,18.19-2.87l.5-.02.54.02c6.16.29,12.28,1.25,18.2,2.87,12.86,3.51,24.59,9.96,34.87,19.18l.54.49-.5.54c-4.79,5.15-5.49,12.77-1.67,18.11,2.95,4.12,8.33,6.27,13.72,5.47l.52-.08.23.48c5.09,10.53,8.22,21.67,9.29,33.1,2.66,28.39-8.31,51.1-15.09,62.11l-.35.56-.59-.3c-4.91-2.49-10.84-1.84-14.76,1.63-4.64,4.11-5.57,11.4-2.17,16.95l.34.56-.53.39c-6.9,5.14-14.53,9.06-22.69,11.64-6.26,1.98-12.77,3.14-19.37,3.45l-.5.02ZM58.79,172.71c6.63,4.86,13.94,8.57,21.75,11.04,6.14,1.94,12.53,3.08,19,3.38l.49.02.44-.02c6.46-.3,12.85-1.44,18.99-3.38,7.8-2.46,15.12-6.17,21.75-11.04-3.36-6.06-2.22-13.78,2.77-18.21,4.19-3.71,10.45-4.53,15.76-2.12,6.7-11.05,17.12-33.16,14.54-60.67-1.04-11.09-4.04-21.9-8.93-32.14-5.74.67-11.41-1.7-14.57-6.13-4.08-5.7-3.5-13.74,1.3-19.38-9.98-8.81-21.34-15-33.75-18.38-5.81-1.59-11.83-2.54-17.88-2.82l-.48-.02-.44.02c-6.04.28-12.06,1.23-17.87,2.82-12.42,3.39-23.77,9.57-33.75,18.38,4.8,5.64,5.38,13.67,1.3,19.38-3.16,4.42-8.83,6.79-14.57,6.13-4.88,10.24-7.89,21.05-8.93,32.14-2.58,27.51,7.84,49.62,14.54,60.67,5.31-2.41,11.57-1.59,15.76,2.12,5,4.43,6.14,12.15,2.77,18.21Z"/>
  </g>
</svg>