<?xml version="1.0" encoding="UTF-8"?>
<svg id="Layer_1" data-name="Layer 1" xmlns="http://www.w3.org/2000/svg" viewBox="0 0 200 200">
  <g>
    <path d="M92.08,74.91c-.75,0-1.27-.45-1.56-1.42l-2.68-9.02c-.07-.22-.07-.45-.07-.67,0-.67.37-1.12,1.12-1.49,5.36-2.09,10.95-2.76,16.02-2.76,12.15,0,20.27,4.25,20.27,14.08v22.43c0,1.04-.52,1.56-1.49,1.56h-13.04c-1.12,0-1.56-.15-1.56-.97v-.3c0-.22-.07-.3-.15-.3s-.07,0-.15.07c-2.38,1.42-6.26,2.24-10.51,2.24-9.02,0-12.67-3.43-12.67-10.36,0-8.87,6.04-12.37,17.73-12.37h2.09c1.19,0,1.27-.37,1.27-.6s-.15-.52-.52-.82c-1.27-1.19-3.35-1.34-4.84-1.34-1.19,0-5.74.52-8.05,1.71-.45.22-.82.3-1.19.3ZM105.34,83.7c-1.86,0-3.13,1.04-3.13,2.76s1.34,2.83,3.13,2.83c2.01,0,3.35-1.04,3.35-2.83s-1.12-2.76-3.35-2.76Z"/>
    <path d="M137.53,58.14c-4.84,0-8.72-3.8-8.72-8.57s3.87-8.57,8.72-8.57,8.79,3.87,8.79,8.57-4.02,8.57-8.79,8.57ZM129.48,61.94v-.22c0-.82.45-1.27,1.42-1.27h13.86c.97,0,1.49.52,1.49,1.49v34.13c0,1.04-.52,1.56-1.64,1.56h-13.56c-1.04,0-1.56-.52-1.56-1.56v-34.13Z"/>
    <path d="M155.27,74.91c-.75,0-1.27-.45-1.56-1.42l-2.68-9.02c-.07-.22-.07-.45-.07-.67,0-.67.37-1.12,1.12-1.49,5.36-2.09,10.95-2.76,16.02-2.76,12.15,0,20.27,4.25,20.27,14.08v22.43c0,1.04-.52,1.56-1.49,1.56h-13.04c-1.12,0-1.56-.15-1.56-.97v-.3c0-.22-.07-.3-.15-.3s-.07,0-.15.07c-2.38,1.42-6.26,2.24-10.51,2.24-9.02,0-12.67-3.43-12.67-10.36,0-8.87,6.04-12.37,17.73-12.37h2.09c1.19,0,1.27-.37,1.27-.6s-.15-.52-.52-.82c-1.27-1.19-3.35-1.34-4.84-1.34-1.19,0-5.74.52-8.05,1.71-.45.22-.82.3-1.19.3ZM168.53,83.7c-1.86,0-3.13,1.04-3.13,2.76s1.34,2.83,3.13,2.83c2.01,0,3.35-1.04,3.35-2.83s-1.12-2.76-3.35-2.76Z"/>
  </g>
  <g>
    <path d="M124.24,104.46c1.04,0,1.56.52,1.56,1.56v34.87c0,1.04-.52,1.56-1.56,1.56h-12.82c-.37,0-.6-.45-.67-.82-.07-.37-.3-.6-.6-.6-.15,0-.3.07-.52.15-2.31.82-4.99,1.34-7.45,1.34-10.13,0-17.44-6.04-17.44-14.38v-22.13c0-1.04.52-1.56,1.56-1.56h13.71c1.04,0,1.56.45,1.56,1.27v19.15c0,2.31,1.04,3.87,3.65,3.87s3.8-1.71,3.8-3.87v-18.78c0-1.12.52-1.64,1.64-1.64h13.56Z"/>
    <path d="M130.87,142.54c-1.04,0-1.56-.52-1.56-1.56v-34.87c0-1.04.52-1.56,1.56-1.56h12.29c.67,0,1.12.22,1.34,1.12.07.22.15.3.3.3h.15c2.31-.97,4.77-1.49,7.53-1.49,3.5,0,6.56.82,9.16,2.24.22.07.52.15.75.15s.37,0,.6-.07c4.1-1.56,8.42-2.31,12.22-2.31,9.61,0,16.39,6.04,16.39,14.38v22.13c0,1.04-.52,1.56-1.56,1.56h-13.71c-1.04,0-1.56-.45-1.56-1.27v-18.4c0-2.31-.89-3.87-2.91-3.87-1.71,0-2.68,1.04-2.98,2.76v19.22c0,1.04-.52,1.56-1.56,1.56h-13.71c-1.04,0-1.56-.45-1.56-1.27v-18.4c0-2.31-.89-3.87-2.91-3.87s-3.05,1.71-3.05,3.87v18.11c0,1.04-.52,1.56-1.64,1.56h-13.56Z"/>
  </g>
  <path d="M39.49,128.04c-20.3,0-31.09-12.59-31.09-32.12,0-21.71,13.36-34.68,34.94-34.68,4.24,0,6.81.51,9.25,1.67,1.03.51,1.28.77,1.28.77.13,0,.26-.39.26-1.03,0-1.03.9-1.54,2.83-1.54h22.22c1.67,0,2.57.9,2.57,2.57v61.02c0,21.2-13.87,34.3-36.61,34.3-8.22,0-23.89-1.67-31.47-6.42l7.58-24.02c8.74,3.08,14.77,5.4,21.84,5.4,7.71,0,11.18-2.83,11.18-9.38-2.95,2.18-8.22,3.47-14.77,3.47ZM37.31,95.54c0,4.62,3.47,8.61,8.48,8.61s8.35-3.98,8.35-8.61c0-6.04-3.34-9.12-8.35-9.12s-8.48,3.08-8.48,9.12Z"/>
</svg>