<?xml version="1.0" encoding="UTF-8"?>
<svg id="Layer_1" data-name="Layer 1" xmlns="http://www.w3.org/2000/svg" viewBox="0 0 200 200">
  <path d="M39.99,112.12l-2.24,1.23h0s2.5.56,2.5.56l-.26-1.79ZM39.99,112.12l-2.24,1.23h0s2.5.56,2.5.56l-.26-1.79ZM39.99,112.12l-2.24,1.23h0s2.5.56,2.5.56l-.26-1.79ZM43.54,85.86c-.14-.38-.37-.69-.69-.95-.32-.26-.7-.44-1.13-.54-.43-.1-.85-.11-1.26-.02-.4.09-.75.27-1.04.55-.29.27-.49.63-.59,1.07-.11.45-.09.86.05,1.24.14.38.37.7.69.95.32.25.7.44,1.13.54.43.1.85.11,1.26.02.4-.09.74-.27,1.03-.55.29-.27.48-.64.59-1.09.1-.44.08-.84-.05-1.22ZM43.54,85.86c-.14-.38-.37-.69-.69-.95-.32-.26-.7-.44-1.13-.54-.43-.1-.85-.11-1.26-.02-.4.09-.75.27-1.04.55-.29.27-.49.63-.59,1.07-.11.45-.09.86.05,1.24.14.38.37.7.69.95.32.25.7.44,1.13.54.43.1.85.11,1.26.02.4-.09.74-.27,1.03-.55.29-.27.48-.64.59-1.09.1-.44.08-.84-.05-1.22ZM39.99,112.12l-2.24,1.23h0s2.5.56,2.5.56l-.26-1.79ZM39.99,112.12l-2.24,1.23h0s2.5.56,2.5.56l-.26-1.79ZM43.54,85.86c-.14-.38-.37-.69-.69-.95-.32-.26-.7-.44-1.13-.54-.43-.1-.85-.11-1.26-.02-.4.09-.75.27-1.04.55-.29.27-.49.63-.59,1.07-.11.45-.09.86.05,1.24.14.38.37.7.69.95.32.25.7.44,1.13.54.43.1.85.11,1.26.02.4-.09.74-.27,1.03-.55.29-.27.48-.64.59-1.09.1-.44.08-.84-.05-1.22ZM43.54,85.86c-.14-.38-.37-.69-.69-.95-.32-.26-.7-.44-1.13-.54-.43-.1-.85-.11-1.26-.02-.4.09-.75.27-1.04.55-.29.27-.49.63-.59,1.07-.11.45-.09.86.05,1.24.14.38.37.7.69.95.32.25.7.44,1.13.54.43.1.85.11,1.26.02.4-.09.74-.27,1.03-.55.29-.27.48-.64.59-1.09.1-.44.08-.84-.05-1.22ZM39.99,112.12l-2.24,1.23h0s2.5.56,2.5.56l-.26-1.79ZM39.99,112.12l-2.24,1.23h0s2.5.56,2.5.56l-.26-1.79ZM43.54,85.86c-.14-.38-.37-.69-.69-.95-.32-.26-.7-.44-1.13-.54-.43-.1-.85-.11-1.26-.02-.4.09-.75.27-1.04.55-.29.27-.49.63-.59,1.07-.11.45-.09.86.05,1.24.14.38.37.7.69.95.32.25.7.44,1.13.54.43.1.85.11,1.26.02.4-.09.74-.27,1.03-.55.29-.27.48-.64.59-1.09.1-.44.08-.84-.05-1.22ZM43.54,85.86c-.14-.38-.37-.69-.69-.95-.32-.26-.7-.44-1.13-.54-.43-.1-.85-.11-1.26-.02-.4.09-.75.27-1.04.55-.29.27-.49.63-.59,1.07-.11.45-.09.86.05,1.24.14.38.37.7.69.95.32.25.7.44,1.13.54.43.1.85.11,1.26.02.4-.09.74-.27,1.03-.55.29-.27.48-.64.59-1.09.1-.44.08-.84-.05-1.22ZM39.99,112.12l-2.24,1.23h0s2.5.56,2.5.56l-.26-1.79ZM39.99,112.12l-2.24,1.23h0s2.5.56,2.5.56l-.26-1.79ZM43.54,85.86c-.14-.38-.37-.69-.69-.95-.32-.26-.7-.44-1.13-.54-.43-.1-.85-.11-1.26-.02-.4.09-.75.27-1.04.55-.29.27-.49.63-.59,1.07-.11.45-.09.86.05,1.24.14.38.37.7.69.95.32.25.7.44,1.13.54.43.1.85.11,1.26.02.4-.09.74-.27,1.03-.55.29-.27.48-.64.59-1.09.1-.44.08-.84-.05-1.22ZM43.54,85.86c-.14-.38-.37-.69-.69-.95-.32-.26-.7-.44-1.13-.54-.43-.1-.85-.11-1.26-.02-.4.09-.75.27-1.04.55-.29.27-.49.63-.59,1.07-.11.45-.09.86.05,1.24.14.38.37.7.69.95.32.25.7.44,1.13.54.43.1.85.11,1.26.02.4-.09.74-.27,1.03-.55.29-.27.48-.64.59-1.09.1-.44.08-.84-.05-1.22ZM39.99,112.12l-2.24,1.23h0s2.5.56,2.5.56l-.26-1.79ZM39.99,112.12l-2.24,1.23h0s2.5.56,2.5.56l-.26-1.79ZM43.54,85.86c-.14-.38-.37-.69-.69-.95-.32-.26-.7-.44-1.13-.54-.43-.1-.85-.11-1.26-.02-.4.09-.75.27-1.04.55-.29.27-.49.63-.59,1.07-.11.45-.09.86.05,1.24.14.38.37.7.69.95.32.25.7.44,1.13.54.43.1.85.11,1.26.02.4-.09.74-.27,1.03-.55.29-.27.48-.64.59-1.09.1-.44.08-.84-.05-1.22ZM43.54,85.86c-.14-.38-.37-.69-.69-.95-.32-.26-.7-.44-1.13-.54-.43-.1-.85-.11-1.26-.02-.4.09-.75.27-1.04.55-.29.27-.49.63-.59,1.07-.11.45-.09.86.05,1.24.14.38.37.7.69.95.32.25.7.44,1.13.54.43.1.85.11,1.26.02.4-.09.74-.27,1.03-.55.29-.27.48-.64.59-1.09.1-.44.08-.84-.05-1.22ZM39.99,112.12l-2.24,1.23h0s2.5.56,2.5.56l-.26-1.79ZM158.97,81.69l-.46-1.47-1.73.53.46,1.47c.09.29.24.53.46.72.22.19.49.23.81.13.29-.09.46-.26.51-.53.06-.26.04-.55-.06-.85ZM39.99,112.12l-2.24,1.23h0s2.5.56,2.5.56l-.26-1.79ZM43.54,85.86c-.14-.38-.37-.69-.69-.95-.32-.26-.7-.44-1.13-.54-.43-.1-.85-.11-1.26-.02-.4.09-.75.27-1.04.55-.29.27-.49.63-.59,1.07-.11.45-.09.86.05,1.24.14.38.37.7.69.95.32.25.7.44,1.13.54.43.1.85.11,1.26.02.4-.09.74-.27,1.03-.55.29-.27.48-.64.59-1.09.1-.44.08-.84-.05-1.22ZM158.97,81.69l-.46-1.47-1.73.53.46,1.47c.09.29.24.53.46.72.22.19.49.23.81.13.29-.09.46-.26.51-.53.06-.26.04-.55-.06-.85ZM43.54,85.86c-.14-.38-.37-.69-.69-.95-.32-.26-.7-.44-1.13-.54-.43-.1-.85-.11-1.26-.02-.4.09-.75.27-1.04.55-.29.27-.49.63-.59,1.07-.11.45-.09.86.05,1.24.14.38.37.7.69.95.32.25.7.44,1.13.54.43.1.85.11,1.26.02.4-.09.74-.27,1.03-.55.29-.27.48-.64.59-1.09.1-.44.08-.84-.05-1.22ZM39.99,112.12l-2.24,1.23h0s2.5.56,2.5.56l-.26-1.79ZM158.97,81.69l-.46-1.47-1.73.53.46,1.47c.09.29.24.53.46.72.22.19.49.23.81.13.29-.09.46-.26.51-.53.06-.26.04-.55-.06-.85ZM39.99,112.12l-2.24,1.23h0s2.5.56,2.5.56l-.26-1.79ZM43.54,85.86c-.14-.38-.37-.69-.69-.95-.32-.26-.7-.44-1.13-.54-.43-.1-.85-.11-1.26-.02-.4.09-.75.27-1.04.55-.29.27-.49.63-.59,1.07-.11.45-.09.86.05,1.24.14.38.37.7.69.95.32.25.7.44,1.13.54.43.1.85.11,1.26.02.4-.09.74-.27,1.03-.55.29-.27.48-.64.59-1.09.1-.44.08-.84-.05-1.22ZM158.97,81.69l-.46-1.47-1.73.53.46,1.47c.09.29.24.53.46.72.22.19.49.23.81.13.29-.09.46-.26.51-.53.06-.26.04-.55-.06-.85ZM43.54,85.86c-.14-.38-.37-.69-.69-.95-.32-.26-.7-.44-1.13-.54-.43-.1-.85-.11-1.26-.02-.4.09-.75.27-1.04.55-.29.27-.49.63-.59,1.07-.11.45-.09.86.05,1.24.14.38.37.7.69.95.32.25.7.44,1.13.54.43.1.85.11,1.26.02.4-.09.74-.27,1.03-.55.29-.27.48-.64.59-1.09.1-.44.08-.84-.05-1.22ZM39.99,112.12l-2.24,1.23h0s2.5.56,2.5.56l-.26-1.79ZM158.97,81.69l-.46-1.47-1.73.53.46,1.47c.09.29.24.53.46.72.22.19.49.23.81.13.29-.09.46-.26.51-.53.06-.26.04-.55-.06-.85ZM150.46,144.65c-.28-.2-.57-.25-.88-.16-.31.09-.59.31-.83.65-.33.47-.59,1.03-.78,1.68.49.27.98.36,1.47.26.49-.1.87-.34,1.15-.73.22-.3.32-.61.3-.93-.02-.32-.16-.57-.44-.77ZM39.99,112.12l-2.24,1.23h0s2.5.56,2.5.56l-.26-1.79ZM43.54,85.86c-.14-.38-.37-.69-.69-.95-.32-.26-.7-.44-1.13-.54-.43-.1-.85-.11-1.26-.02-.4.09-.75.27-1.04.55-.29.27-.49.63-.59,1.07-.11.45-.09.86.05,1.24.14.38.37.7.69.95.32.25.7.44,1.13.54.43.1.85.11,1.26.02.4-.09.74-.27,1.03-.55.29-.27.48-.64.59-1.09.1-.44.08-.84-.05-1.22ZM158.97,81.69l-.46-1.47-1.73.53.46,1.47c.09.29.24.53.46.72.22.19.49.23.81.13.29-.09.46-.26.51-.53.06-.26.04-.55-.06-.85ZM150.46,144.65c-.28-.2-.57-.25-.88-.16-.31.09-.59.31-.83.65-.33.47-.59,1.03-.78,1.68.49.27.98.36,1.47.26.49-.1.87-.34,1.15-.73.22-.3.32-.61.3-.93-.02-.32-.16-.57-.44-.77ZM43.54,85.86c-.14-.38-.37-.69-.69-.95-.32-.26-.7-.44-1.13-.54-.43-.1-.85-.11-1.26-.02-.4.09-.75.27-1.04.55-.29.27-.49.63-.59,1.07-.11.45-.09.86.05,1.24.14.38.37.7.69.95.32.25.7.44,1.13.54.43.1.85.11,1.26.02.4-.09.74-.27,1.03-.55.29-.27.48-.64.59-1.09.1-.44.08-.84-.05-1.22ZM39.99,112.12l-2.24,1.23h0s2.5.56,2.5.56l-.26-1.79ZM158.97,81.69l-.46-1.47-1.73.53.46,1.47c.09.29.24.53.46.72.22.19.49.23.81.13.29-.09.46-.26.51-.53.06-.26.04-.55-.06-.85ZM150.46,144.65c-.28-.2-.57-.25-.88-.16-.31.09-.59.31-.83.65-.33.47-.59,1.03-.78,1.68.49.27.98.36,1.47.26.49-.1.87-.34,1.15-.73.22-.3.32-.61.3-.93-.02-.32-.16-.57-.44-.77ZM39.99,112.12l-2.24,1.23h0s2.5.56,2.5.56l-.26-1.79ZM43.54,85.86c-.14-.38-.37-.69-.69-.95-.32-.26-.7-.44-1.13-.54-.43-.1-.85-.11-1.26-.02-.4.09-.75.27-1.04.55-.29.27-.49.63-.59,1.07-.11.45-.09.86.05,1.24.14.38.37.7.69.95.32.25.7.44,1.13.54.43.1.85.11,1.26.02.4-.09.74-.27,1.03-.55.29-.27.48-.64.59-1.09.1-.44.08-.84-.05-1.22ZM131.54,163.03c-.04-.42-.18-.84-.43-1.27-.25-.44-.55-.77-.89-1.01-.34-.24-.69-.37-1.05-.4-.37-.02-.71.06-1.04.25-.32.19-.55.44-.71.77-.16.33-.21.7-.17,1.12.04.42.19.84.44,1.27.25.43.54.76.89,1,.34.24.69.37,1.05.4.36.02.7-.06,1.02-.24.32-.19.56-.44.72-.77.16-.33.22-.7.18-1.11ZM158.97,81.69l-.46-1.47-1.73.53.46,1.47c.09.29.24.53.46.72.22.19.49.23.81.13.29-.09.46-.26.51-.53.06-.26.04-.55-.06-.85ZM150.46,144.65c-.28-.2-.57-.25-.88-.16-.31.09-.59.31-.83.65-.33.47-.59,1.03-.78,1.68.49.27.98.36,1.47.26.49-.1.87-.34,1.15-.73.22-.3.32-.61.3-.93-.02-.32-.16-.57-.44-.77ZM131.54,163.03c-.04-.42-.18-.84-.43-1.27-.25-.44-.55-.77-.89-1.01-.34-.24-.69-.37-1.05-.4-.37-.02-.71.06-1.04.25-.32.19-.55.44-.71.77-.16.33-.21.7-.17,1.12.04.42.19.84.44,1.27.25.43.54.76.89,1,.34.24.69.37,1.05.4.36.02.7-.06,1.02-.24.32-.19.56-.44.72-.77.16-.33.22-.7.18-1.11ZM43.54,85.86c-.14-.38-.37-.69-.69-.95-.32-.26-.7-.44-1.13-.54-.43-.1-.85-.11-1.26-.02-.4.09-.75.27-1.04.55-.29.27-.49.63-.59,1.07-.11.45-.09.86.05,1.24.14.38.37.7.69.95.32.25.7.44,1.13.54.43.1.85.11,1.26.02.4-.09.74-.27,1.03-.55.29-.27.48-.64.59-1.09.1-.44.08-.84-.05-1.22ZM39.99,112.12l-2.24,1.23h0s2.5.56,2.5.56l-.26-1.79ZM158.97,81.69l-.46-1.47-1.73.53.46,1.47c.09.29.24.53.46.72.22.19.49.23.81.13.29-.09.46-.26.51-.53.06-.26.04-.55-.06-.85ZM150.46,144.65c-.28-.2-.57-.25-.88-.16-.31.09-.59.31-.83.65-.33.47-.59,1.03-.78,1.68.49.27.98.36,1.47.26.49-.1.87-.34,1.15-.73.22-.3.32-.61.3-.93-.02-.32-.16-.57-.44-.77ZM39.99,112.12l-2.24,1.23h0s2.5.56,2.5.56l-.26-1.79ZM43.54,85.86c-.14-.38-.37-.69-.69-.95-.32-.26-.7-.44-1.13-.54-.43-.1-.85-.11-1.26-.02-.4.09-.75.27-1.04.55-.29.27-.49.63-.59,1.07-.11.45-.09.86.05,1.24.14.38.37.7.69.95.32.25.7.44,1.13.54.43.1.85.11,1.26.02.4-.09.74-.27,1.03-.55.29-.27.48-.64.59-1.09.1-.44.08-.84-.05-1.22ZM86.87,165.28l-.6-.17-1.41,5.06.6.17c.82.23,1.58.25,2.27.06.69-.18,1.18-.77,1.45-1.75.47-1.69-.3-2.81-2.3-3.37ZM131.54,163.03c-.04-.42-.18-.84-.43-1.27-.25-.44-.55-.77-.89-1.01-.34-.24-.69-.37-1.05-.4-.37-.02-.71.06-1.04.25-.32.19-.55.44-.71.77-.16.33-.21.7-.17,1.12.04.42.19.84.44,1.27.25.43.54.76.89,1,.34.24.69.37,1.05.4.36.02.7-.06,1.02-.24.32-.19.56-.44.72-.77.16-.33.22-.7.18-1.11ZM158.97,81.69l-.46-1.47-1.73.53.46,1.47c.09.29.24.53.46.72.22.19.49.23.81.13.29-.09.46-.26.51-.53.06-.26.04-.55-.06-.85ZM150.46,144.65c-.28-.2-.57-.25-.88-.16-.31.09-.59.31-.83.65-.33.47-.59,1.03-.78,1.68.49.27.98.36,1.47.26.49-.1.87-.34,1.15-.73.22-.3.32-.61.3-.93-.02-.32-.16-.57-.44-.77ZM131.54,163.03c-.04-.42-.18-.84-.43-1.27-.25-.44-.55-.77-.89-1.01-.34-.24-.69-.37-1.05-.4-.37-.02-.71.06-1.04.25-.32.19-.55.44-.71.77-.16.33-.21.7-.17,1.12.04.42.19.84.44,1.27.25.43.54.76.89,1,.34.24.69.37,1.05.4.36.02.7-.06,1.02-.24.32-.19.56-.44.72-.77.16-.33.22-.7.18-1.11ZM86.87,165.28l-.6-.17-1.41,5.06.6.17c.82.23,1.58.25,2.27.06.69-.18,1.18-.77,1.45-1.75.47-1.69-.3-2.81-2.3-3.37ZM43.54,85.86c-.14-.38-.37-.69-.69-.95-.32-.26-.7-.44-1.13-.54-.43-.1-.85-.11-1.26-.02-.4.09-.75.27-1.04.55-.29.27-.49.63-.59,1.07-.11.45-.09.86.05,1.24.14.38.37.7.69.95.32.25.7.44,1.13.54.43.1.85.11,1.26.02.4-.09.74-.27,1.03-.55.29-.27.48-.64.59-1.09.1-.44.08-.84-.05-1.22ZM39.99,112.12l-2.24,1.23h0s2.5.56,2.5.56l-.26-1.79ZM158.97,81.69l-.46-1.47-1.73.53.46,1.47c.09.29.24.53.46.72.22.19.49.23.81.13.29-.09.46-.26.51-.53.06-.26.04-.55-.06-.85ZM150.46,144.65c-.28-.2-.57-.25-.88-.16-.31.09-.59.31-.83.65-.33.47-.59,1.03-.78,1.68.49.27.98.36,1.47.26.49-.1.87-.34,1.15-.73.22-.3.32-.61.3-.93-.02-.32-.16-.57-.44-.77ZM39.99,112.12l-2.24,1.23h0s2.5.56,2.5.56l-.26-1.79ZM43.54,85.86c-.14-.38-.37-.69-.69-.95-.32-.26-.7-.44-1.13-.54-.43-.1-.85-.11-1.26-.02-.4.09-.75.27-1.04.55-.29.27-.49.63-.59,1.07-.11.45-.09.86.05,1.24.14.38.37.7.69.95.32.25.7.44,1.13.54.43.1.85.11,1.26.02.4-.09.74-.27,1.03-.55.29-.27.48-.64.59-1.09.1-.44.08-.84-.05-1.22ZM86.87,165.28l-.6-.17-1.41,5.06.6.17c.82.23,1.58.25,2.27.06.69-.18,1.18-.77,1.45-1.75.47-1.69-.3-2.81-2.3-3.37ZM131.54,163.03c-.04-.42-.18-.84-.43-1.27-.25-.44-.55-.77-.89-1.01-.34-.24-.69-.37-1.05-.4-.37-.02-.71.06-1.04.25-.32.19-.55.44-.71.77-.16.33-.21.7-.17,1.12.04.42.19.84.44,1.27.25.43.54.76.89,1,.34.24.69.37,1.05.4.36.02.7-.06,1.02-.24.32-.19.56-.44.72-.77.16-.33.22-.7.18-1.11ZM158.97,81.69l-.46-1.47-1.73.53.46,1.47c.09.29.24.53.46.72.22.19.49.23.81.13.29-.09.46-.26.51-.53.06-.26.04-.55-.06-.85ZM150.46,144.65c-.28-.2-.57-.25-.88-.16-.31.09-.59.31-.83.65-.33.47-.59,1.03-.78,1.68.49.27.98.36,1.47.26.49-.1.87-.34,1.15-.73.22-.3.32-.61.3-.93-.02-.32-.16-.57-.44-.77ZM131.54,163.03c-.04-.42-.18-.84-.43-1.27-.25-.44-.55-.77-.89-1.01-.34-.24-.69-.37-1.05-.4-.37-.02-.71.06-1.04.25-.32.19-.55.44-.71.77-.16.33-.21.7-.17,1.12.04.42.19.84.44,1.27.25.43.54.76.89,1,.34.24.69.37,1.05.4.36.02.7-.06,1.02-.24.32-.19.56-.44.72-.77.16-.33.22-.7.18-1.11ZM86.87,165.28l-.6-.17-1.41,5.06.6.17c.82.23,1.58.25,2.27.06.69-.18,1.18-.77,1.45-1.75.47-1.69-.3-2.81-2.3-3.37ZM43.54,85.86c-.14-.38-.37-.69-.69-.95-.32-.26-.7-.44-1.13-.54-.43-.1-.85-.11-1.26-.02-.4.09-.75.27-1.04.55-.29.27-.49.63-.59,1.07-.11.45-.09.86.05,1.24.14.38.37.7.69.95.32.25.7.44,1.13.54.43.1.85.11,1.26.02.4-.09.74-.27,1.03-.55.29-.27.48-.64.59-1.09.1-.44.08-.84-.05-1.22ZM39.99,112.12l-2.24,1.23h0s2.5.56,2.5.56l-.26-1.79ZM157.7,82.94c.22.19.49.23.81.13.29-.09.46-.26.51-.53.06-.26.04-.55-.06-.85l-.46-1.47-1.73.53.46,1.47c.09.29.24.53.46.72ZM150.46,144.65c-.28-.2-.57-.25-.88-.16-.31.09-.59.31-.83.65-.33.47-.59,1.03-.78,1.68.49.27.98.36,1.47.26.49-.1.87-.34,1.15-.73.22-.3.32-.61.3-.93-.02-.32-.16-.57-.44-.77ZM100,25.69c-39.01,0-70.63,34.51-70.63,77.09s31.63,77.09,70.63,77.09,70.64-34.51,70.64-77.09S139.01,25.69,100,25.69ZM162.52,90.15l.42,4.01-1.37.15-.11-1.04-2.98.3c-.52.06-.93.27-1.22.63-.3.36-.41.8-.36,1.3.04.33.14.62.32.87.18.25.41.44.7.56.28.13.6.17.95.13l2.96-.34-.11-1.05,1.37-.15.42,4.02-1.37.15-.13-1.2-3.09.33c-.59.06-1.13-.04-1.63-.29-.5-.25-.91-.64-1.22-1.14-.32-.51-.51-1.09-.58-1.74-.07-.68,0-1.29.2-1.85s.53-1.01.96-1.35c.43-.34.94-.55,1.54-.61l3.09-.33-.13-1.2,1.37-.15ZM148.38,68.94l.57,1.05,4.11-2.23-.76-1.4-1.31.71-.73-1.34,2.51-1.36,3.8,7.01-2.51,1.36-.73-1.34,1.3-.71-.75-1.39-4.11,2.23.56,1.04-1.21.65-1.97-3.62,1.21-.66ZM134.69,52.13c.15-.65.47-1.25.97-1.79.48-.52,1.04-.89,1.69-1.1.64-.21,1.29-.25,1.94-.12.65.13,1.22.43,1.72.89.35.32.62.67.82,1.05.2.38.32.77.37,1.17l.46-.49,1.13,1.04-1.68,1.81-.89-.72c.08-.42.06-.86-.05-1.32-.12-.46-.37-.87-.75-1.22-.32-.3-.68-.5-1.07-.59-.39-.1-.79-.08-1.19.06-.4.14-.78.4-1.14.78-.32.35-.54.73-.64,1.14-.11.41-.1.81.02,1.2.12.39.35.74.69,1.06.3.28.59.49.86.62.27.13.55.23.85.28l.66-.72-1.46-1.35.87-.95,2.61,2.41-2.05,2.21c-.52-.01-1.07-.15-1.67-.4-.59-.25-1.14-.61-1.65-1.08-.63-.58-1.05-1.21-1.29-1.89-.23-.68-.27-1.34-.12-2ZM121.85,44.4l1.06.59,2.29-4.08-1.06-.59.67-1.2,2.49,1.4,1.28,5.94,1.56-2.77-1.05-.59.67-1.2,3.46,1.94-.67,1.2-1-.56-2.99,5.33-.83-.45-1.56-6.8-1.82,3.24,1.06.59-.67,1.2-3.55-1.99.68-1.2ZM109.89,34.43l3.9,1.01-.34,1.33-1.02-.26-.76,2.9c-.13.51-.08.97.16,1.37.24.4.6.66,1.09.79.32.08.63.08.93,0,.3-.08.56-.23.77-.45.21-.23.37-.51.46-.85l.72-2.89-1.03-.27.34-1.33,3.91,1.01-.34,1.33-1.16-.3-.78,3.01c-.15.57-.43,1.05-.84,1.43-.42.38-.91.63-1.5.75-.59.12-1.2.1-1.84-.07-.66-.17-1.21-.45-1.66-.84-.45-.39-.76-.84-.93-1.37-.17-.53-.18-1.08-.03-1.66l.78-3.01-1.17-.3.34-1.33ZM97.18,38.37l1.08-.03c.37.46.83.84,1.39,1.13s1.06.45,1.51.46c.27,0,.48-.04.64-.13.15-.09.23-.23.24-.42,0-.22-.17-.43-.52-.63-.35-.19-.96-.42-1.83-.67-.86-.25-1.49-.57-1.88-.97-.39-.39-.58-.88-.57-1.46,0-.43.13-.8.38-1.12.24-.32.56-.56.95-.73.39-.17.81-.25,1.25-.24.89.02,1.62.31,2.22.87v-.68s1.54.03,1.54.03l-.05,2.63-1.03.04c-.23-.47-.55-.83-.97-1.1-.42-.26-.84-.4-1.29-.41-.35,0-.63.05-.84.17-.21.12-.33.28-.33.49,0,.2.13.38.39.53.27.15.75.33,1.44.53.95.29,1.68.63,2.2,1.03.52.39.77.91.76,1.54,0,.44-.13.82-.36,1.13-.23.32-.54.55-.93.72-.4.16-.84.24-1.33.23-.46,0-.91-.11-1.33-.3-.42-.19-.84-.45-1.25-.79l-.02.89-1.53-.02.05-2.71ZM82.37,36.18l3.75,4.33,1.18-5.58,3.04-.78.34,1.33-1.18.3,1.15,4.53,1.18-.3.34,1.33-3.94,1-.34-1.33,1.1-.28-.4-1.56c-.13-.51-.23-1.24-.3-2.18l-1.21,5.66-.93.24-3.68-4.29c.35.85.58,1.5.7,1.96l.4,1.56,1.1-.28.34,1.33-3.85.98-.34-1.33,1.18-.3-1.15-4.53-1.18.3-.34-1.33,3.04-.77ZM68.83,42.18l.69,1.19-.91.53,1.49,2.6c.26.45.62.74,1.07.86.45.12.9.05,1.33-.2.29-.17.51-.38.67-.65.16-.27.24-.55.23-.86,0-.31-.1-.62-.27-.92l-1.51-2.57-.92.53-.69-1.19,3.5-2.02.69,1.19-1.04.6,1.55,2.69c.3.51.43,1.05.4,1.61-.03.56-.21,1.09-.55,1.58-.33.5-.78.91-1.35,1.24-.59.34-1.18.53-1.77.57-.59.04-1.14-.07-1.62-.32-.49-.25-.89-.64-1.18-1.16l-1.55-2.69-1.05.61-.69-1.19,3.49-2.02ZM57.24,50.99l.95,1-.8.76,1.66,1.75.53-3.82-.71.67-.95-.99,2.71-2.57.95,1-.6.57-.41,2.98,3.83.22.53-.5.95,1-2.73,2.58-.94-1,.59-.57-2.44-.18-.24,1.75.49.51.8-.76.95,1-2.95,2.8-.95-1,.88-.83-3.22-3.4-.88.83-.95-1,2.95-2.8ZM35.53,99.84c.02-.47.11-.91.26-1.31.16-.39.38-.74.66-1.04l-.67-.03.06-1.54,2.47.11.03,1.15c-.37.21-.7.51-.97.9-.28.39-.42.84-.45,1.36-.02.44.06.84.24,1.2.18.36.45.65.82.87.37.22.81.34,1.33.36.47.02.9-.06,1.28-.24.38-.19.68-.45.9-.79.22-.34.34-.75.36-1.21.02-.41-.01-.76-.09-1.06-.07-.3-.19-.57-.33-.83l-.97-.04-.08,1.98-1.29-.05.15-3.55,3.02.13c.32.4.58.91.77,1.52.19.61.27,1.27.24,1.96-.04.85-.23,1.58-.6,2.2-.36.62-.84,1.08-1.44,1.39s-1.26.45-1.99.42c-.71-.03-1.35-.22-1.93-.57-.58-.36-1.03-.82-1.34-1.4-.32-.58-.46-1.21-.44-1.89ZM42.99,116.91l-.13-.87-4.92-1.31.11.76-1.35.19-.64-4.45,1.35-.19.11.75,4.36-2.65-.13-.89,1.36-.2.54,3.75-1.36.2-.15-1.08-1.01.56.39,2.69,1.13.24-.17-1.19,1.36-.2.53,3.68-1.36.19ZM44.97,87.41c-.17.75-.5,1.38-.98,1.91-.47.53-1.04.89-1.69,1.1-.65.21-1.33.23-2.01.06s-1.28-.48-1.78-.96c-.49-.48-.84-1.05-1.03-1.74-.19-.68-.2-1.39-.02-2.14.17-.74.5-1.37.97-1.89.48-.52,1.04-.89,1.7-1.09.66-.2,1.33-.23,2.02-.06.69.16,1.28.48,1.77.96.49.48.84,1.05,1.03,1.73.19.68.2,1.39.03,2.12ZM42.23,75.26l-.53,1.09-1.24-.6,1.37-2.81,5.73-.06-3.5-4.51,1.37-2.82,1.24.6-.53,1.09,4.21,2.05.53-1.09,1.24.6-1.78,3.65-1.24-.6.5-1.02-1.45-.71c-.48-.23-1.1-.62-1.86-1.18l3.54,4.58-.42.87-5.66.04c.88.28,1.52.53,1.94.73l1.45.71.5-1.02,1.24.6-1.74,3.57-1.24-.6.53-1.09-4.2-2.05ZM55.27,143.97l1.31-.84-1.96-3.03-1.71,1.1.7,1.07.81-.52.78,1.22-2.78,1.8-.79-1.22.81-.52-.7-1.08-1.54,1,1.96,3.04,1.31-.85.93,1.44-2.61,1.69-4.68-7.23,1.3-.84.74,1.14,4.41-2.86-.73-1.13,1.29-.84,4.68,7.23-2.6,1.69-.93-1.44ZM65.35,155.08l-.87-.76c.17-.56.19-1.11.05-1.65s-.38-.98-.74-1.33c-.27-.27-.55-.44-.82-.51-.27-.07-.49-.02-.65.15-.16.16-.19.41-.09.74.1.33.36.84.77,1.55.55.97.89,1.81,1.01,2.53.12.72-.06,1.34-.57,1.85-.34.35-.73.57-1.16.65-.43.08-.87.03-1.31-.14-.45-.17-.87-.45-1.26-.83-.37-.36-.65-.78-.86-1.27-.2-.48-.34-1.02-.41-1.61l-.7.71-1.22-1.2,2.13-2.17.91.81c-.06.66.03,1.33.26,2,.23.67.52,1.18.88,1.54.21.21.42.34.62.38.2.04.37,0,.52-.16.18-.18.2-.48.06-.91-.14-.43-.46-1.08-.97-1.96-.51-.87-.77-1.62-.78-2.24-.02-.62.21-1.17.67-1.64.34-.34.72-.55,1.17-.62.44-.07.89-.02,1.34.14.45.17.85.42,1.21.77.71.7,1.09,1.5,1.13,2.42l.54-.55,1.22,1.2-2.07,2.11ZM77.46,163.57l-1.47-.88.86-1.43-1.52-.91-2.7,4.51,1.14.68-.79,1.33-3.98-2.38.79-1.33,1.15.69,2.7-4.51-1.53-.92-.86,1.43-1.47-.88,1.65-2.76,7.7,4.6-1.65,2.76ZM91.15,169.2c-.25.91-.7,1.6-1.33,2.07-.63.48-1.35.75-2.16.83s-1.61,0-2.41-.22l-4.02-1.12.42-1.49,1.31.37,1.42-5.07-1.31-.36.42-1.49,4.02,1.12c.8.22,1.53.58,2.18,1.06.65.49,1.12,1.09,1.41,1.82.3.73.32,1.55.06,2.47ZM98.48,173.96c-.25.18-.57.25-.95.23-.36-.02-.65-.14-.89-.35-.24-.21-.35-.46-.33-.76.02-.31.16-.55.42-.74.26-.19.57-.27.93-.25.38.03.68.15.91.36.23.21.33.48.31.8-.02.31-.15.55-.41.72ZM114.93,172.69l-.44-1.48h.01c-.13-.59-.02-1.17.32-1.73.34-.57.91-1.14,1.72-1.72.43-.31.75-.55.95-.72.2-.18.33-.32.39-.44.06-.12.07-.24.04-.37-.06-.23-.23-.38-.49-.47-.26-.08-.58-.07-.97.04-.39.12-.76.34-1.13.67-.36.33-.69.72-.98,1.17l-1.23-.81c.32-.59.75-1.11,1.27-1.57.53-.46,1.12-.79,1.77-.99.51-.15,1.01-.21,1.5-.16.5.04.93.2,1.31.46.38.26.63.62.77,1.09.18.59.09,1.14-.25,1.63-.35.5-.93,1.04-1.77,1.63-.55.38-.94.7-1.15.96s-.3.51-.27.78l3.21-.96-.31-1.03,1.47-.44.75,2.52-6.5,1.94ZM132.77,164.83c-.38.57-.84,1.01-1.4,1.33-.56.33-1.18.52-1.86.57-.68.05-1.33-.08-1.96-.4-.63-.32-1.16-.84-1.58-1.57-.42-.73-.62-1.45-.58-2.15.04-.71.25-1.34.62-1.91.38-.57.84-1.01,1.39-1.33.56-.33,1.18-.51,1.86-.56.68-.05,1.34.08,1.97.4.63.32,1.16.84,1.59,1.57.42.73.61,1.45.57,2.15-.04.71-.25,1.35-.63,1.91ZM100,157.7c-27.79,0-50.33-24.59-50.33-54.92s22.53-54.93,50.33-54.93,50.33,24.59,50.33,54.93-22.54,54.92-50.33,54.92ZM140.06,159.97l-1.05-1.13h0c-.37-.48-.53-1.05-.48-1.7.05-.65.32-1.42.78-2.3.25-.46.43-.82.53-1.07.1-.25.15-.44.15-.57,0-.13-.04-.25-.13-.35-.16-.17-.38-.24-.65-.2-.27.04-.56.19-.85.47-.3.27-.53.64-.72,1.1-.18.46-.3.95-.36,1.48l-1.46-.18c.03-.67.18-1.33.44-1.98.27-.65.65-1.2,1.15-1.67.39-.36.81-.63,1.28-.81.46-.18.93-.23,1.37-.17.45.07.84.28,1.17.64.42.45.59.97.5,1.58-.09.6-.38,1.35-.87,2.24-.32.59-.53,1.05-.6,1.37-.08.32-.04.59.1.82l2.46-2.29-.74-.79,1.12-1.04,1.79,1.92-4.97,4.62ZM152.48,145.76c-.1.54-.32,1.05-.67,1.54-.4.56-.89.98-1.47,1.27-.58.28-1.19.4-1.84.34-.64-.06-1.24-.29-1.81-.69-.63-.44-1.1-1-1.43-1.65-.32-.65-.46-1.35-.39-2.1.06-.74.35-1.47.84-2.17.31-.43.62-.77.95-1.02s.67-.47,1.04-.65l.83,1.31c-.63.27-1.13.66-1.5,1.18-.32.44-.47.91-.48,1.42,0,.51.14.97.44,1.41.06-.36.14-.69.26-.99.12-.31.29-.61.51-.93.3-.41.65-.74,1.06-.98.42-.25.85-.37,1.32-.37.46,0,.91.15,1.34.45.42.3.71.68.88,1.14.17.47.21.97.12,1.5ZM151.85,79.18l1.31-.41.36,1.16,4.47-1.39-.36-1.16,1.31-.41,1.32,4.25c.27.85.3,1.6.09,2.23-.21.63-.65,1.05-1.33,1.27-.54.17-1.03.16-1.46-.03-.44-.19-.81-.53-1.11-1.02l-.14.1c-.47.33-.77.63-.91.9-.14.27-.17.54-.09.78.05.15.11.27.2.37.08.09.19.18.32.25l-.85,1.1c-.28-.13-.53-.3-.74-.5-.21-.2-.38-.49-.49-.85-.21-.66-.15-1.28.17-1.86.32-.58.93-1.13,1.84-1.65l.13-.07-.34-1.1-1.52.47.34,1.1-1.3.41-1.22-3.94ZM159.96,125.67l-2.76-.73.39-1.48,1.43.38.4-1.53-4.52-1.2-.3,1.14-1.33-.35,1.06-3.99,1.33.35-.3,1.15,4.52,1.2.41-1.54-1.43-.38.39-1.48,2.76.73-2.04,7.71ZM163.41,108.05c-.07.89-.4,1.6-1.01,2.16l.68.05-.12,1.52-2.62-.21.03-1.03c.48-.2.86-.5,1.15-.9.29-.4.45-.82.49-1.26.03-.34-.01-.63-.12-.85-.11-.22-.26-.34-.47-.36-.2-.02-.38.11-.55.36-.17.25-.37.72-.61,1.41-.35.93-.73,1.64-1.16,2.14-.42.49-.95.72-1.58.67-.44-.03-.81-.17-1.11-.42-.3-.25-.52-.57-.66-.97-.14-.4-.19-.85-.15-1.34.04-.46.16-.9.37-1.31.21-.41.5-.81.86-1.2l-.89-.07.12-1.52,2.7.21-.03,1.08c-.49.34-.89.78-1.22,1.31-.33.54-.51,1.03-.55,1.48-.02.27.01.48.09.64s.21.25.4.26c.23.02.44-.14.66-.48.21-.34.47-.93.78-1.78.3-.84.66-1.45,1.08-1.82.42-.36.91-.53,1.5-.48.42.03.78.18,1.09.44s.53.59.67,1c.15.4.2.82.17,1.26ZM131.12,161.76c-.25-.44-.55-.77-.89-1.01-.34-.24-.69-.37-1.05-.4-.37-.02-.71.06-1.04.25-.32.19-.55.44-.71.77-.16.33-.21.7-.17,1.12.04.42.19.84.44,1.27.25.43.54.76.89,1,.34.24.69.37,1.05.4.36.02.7-.06,1.02-.24.32-.19.56-.44.72-.77.16-.33.22-.7.18-1.11-.04-.42-.18-.84-.43-1.27ZM86.87,165.28l-.6-.17-1.41,5.06.6.17c.82.23,1.58.25,2.27.06.69-.18,1.18-.77,1.45-1.75.47-1.69-.3-2.81-2.3-3.37ZM42.85,84.91c-.32-.26-.7-.44-1.13-.54-.43-.1-.85-.11-1.26-.02-.4.09-.75.27-1.04.55-.29.27-.49.63-.59,1.07-.11.45-.09.86.05,1.24.14.38.37.7.69.95.32.25.7.44,1.13.54.43.1.85.11,1.26.02.4-.09.74-.27,1.03-.55.29-.27.48-.64.59-1.09.1-.44.08-.84-.05-1.22-.14-.38-.37-.69-.69-.95ZM37.75,113.35h0s2.5.56,2.5.56l-.26-1.79-2.24,1.23ZM150.46,144.65c-.28-.2-.57-.25-.88-.16-.31.09-.59.31-.83.65-.33.47-.59,1.03-.78,1.68.49.27.98.36,1.47.26.49-.1.87-.34,1.15-.73.22-.3.32-.61.3-.93-.02-.32-.16-.57-.44-.77ZM158.97,81.69l-.46-1.47-1.73.53.46,1.47c.09.29.24.53.46.72.22.19.49.23.81.13.29-.09.46-.26.51-.53.06-.26.04-.55-.06-.85ZM39.99,112.12l-2.24,1.23h0s2.5.56,2.5.56l-.26-1.79ZM43.54,85.86c-.14-.38-.37-.69-.69-.95-.32-.26-.7-.44-1.13-.54-.43-.1-.85-.11-1.26-.02-.4.09-.75.27-1.04.55-.29.27-.49.63-.59,1.07-.11.45-.09.86.05,1.24.14.38.37.7.69.95.32.25.7.44,1.13.54.43.1.85.11,1.26.02.4-.09.74-.27,1.03-.55.29-.27.48-.64.59-1.09.1-.44.08-.84-.05-1.22ZM86.87,165.28l-.6-.17-1.41,5.06.6.17c.82.23,1.58.25,2.27.06.69-.18,1.18-.77,1.45-1.75.47-1.69-.3-2.81-2.3-3.37ZM131.54,163.03c-.04-.42-.18-.84-.43-1.27-.25-.44-.55-.77-.89-1.01-.34-.24-.69-.37-1.05-.4-.37-.02-.71.06-1.04.25-.32.19-.55.44-.71.77-.16.33-.21.7-.17,1.12.04.42.19.84.44,1.27.25.43.54.76.89,1,.34.24.69.37,1.05.4.36.02.7-.06,1.02-.24.32-.19.56-.44.72-.77.16-.33.22-.7.18-1.11ZM150.46,144.65c-.28-.2-.57-.25-.88-.16-.31.09-.59.31-.83.65-.33.47-.59,1.03-.78,1.68.49.27.98.36,1.47.26.49-.1.87-.34,1.15-.73.22-.3.32-.61.3-.93-.02-.32-.16-.57-.44-.77ZM158.97,81.69l-.46-1.47-1.73.53.46,1.47c.09.29.24.53.46.72.22.19.49.23.81.13.29-.09.46-.26.51-.53.06-.26.04-.55-.06-.85ZM131.54,163.03c-.04-.42-.18-.84-.43-1.27-.25-.44-.55-.77-.89-1.01-.34-.24-.69-.37-1.05-.4-.37-.02-.71.06-1.04.25-.32.19-.55.44-.71.77-.16.33-.21.7-.17,1.12.04.42.19.84.44,1.27.25.43.54.76.89,1,.34.24.69.37,1.05.4.36.02.7-.06,1.02-.24.32-.19.56-.44.72-.77.16-.33.22-.7.18-1.11ZM86.87,165.28l-.6-.17-1.41,5.06.6.17c.82.23,1.58.25,2.27.06.69-.18,1.18-.77,1.45-1.75.47-1.69-.3-2.81-2.3-3.37ZM43.54,85.86c-.14-.38-.37-.69-.69-.95-.32-.26-.7-.44-1.13-.54-.43-.1-.85-.11-1.26-.02-.4.09-.75.27-1.04.55-.29.27-.49.63-.59,1.07-.11.45-.09.86.05,1.24.14.38.37.7.69.95.32.25.7.44,1.13.54.43.1.85.11,1.26.02.4-.09.74-.27,1.03-.55.29-.27.48-.64.59-1.09.1-.44.08-.84-.05-1.22ZM39.99,112.12l-2.24,1.23h0s2.5.56,2.5.56l-.26-1.79ZM150.46,144.65c-.28-.2-.57-.25-.88-.16-.31.09-.59.31-.83.65-.33.47-.59,1.03-.78,1.68.49.27.98.36,1.47.26.49-.1.87-.34,1.15-.73.22-.3.32-.61.3-.93-.02-.32-.16-.57-.44-.77ZM158.97,81.69l-.46-1.47-1.73.53.46,1.47c.09.29.24.53.46.72.22.19.49.23.81.13.29-.09.46-.26.51-.53.06-.26.04-.55-.06-.85ZM39.99,112.12l-2.24,1.23h0s2.5.56,2.5.56l-.26-1.79ZM43.54,85.86c-.14-.38-.37-.69-.69-.95-.32-.26-.7-.44-1.13-.54-.43-.1-.85-.11-1.26-.02-.4.09-.75.27-1.04.55-.29.27-.49.63-.59,1.07-.11.45-.09.86.05,1.24.14.38.37.7.69.95.32.25.7.44,1.13.54.43.1.85.11,1.26.02.4-.09.74-.27,1.03-.55.29-.27.48-.64.59-1.09.1-.44.08-.84-.05-1.22ZM131.54,163.03c-.04-.42-.18-.84-.43-1.27-.25-.44-.55-.77-.89-1.01-.34-.24-.69-.37-1.05-.4-.37-.02-.71.06-1.04.25-.32.19-.55.44-.71.77-.16.33-.21.7-.17,1.12.04.42.19.84.44,1.27.25.43.54.76.89,1,.34.24.69.37,1.05.4.36.02.7-.06,1.02-.24.32-.19.56-.44.72-.77.16-.33.22-.7.18-1.11ZM150.46,144.65c-.28-.2-.57-.25-.88-.16-.31.09-.59.31-.83.65-.33.47-.59,1.03-.78,1.68.49.27.98.36,1.47.26.49-.1.87-.34,1.15-.73.22-.3.32-.61.3-.93-.02-.32-.16-.57-.44-.77ZM158.97,81.69l-.46-1.47-1.73.53.46,1.47c.09.29.24.53.46.72.22.19.49.23.81.13.29-.09.46-.26.51-.53.06-.26.04-.55-.06-.85ZM131.54,163.03c-.04-.42-.18-.84-.43-1.27-.25-.44-.55-.77-.89-1.01-.34-.24-.69-.37-1.05-.4-.37-.02-.71.06-1.04.25-.32.19-.55.44-.71.77-.16.33-.21.7-.17,1.12.04.42.19.84.44,1.27.25.43.54.76.89,1,.34.24.69.37,1.05.4.36.02.7-.06,1.02-.24.32-.19.56-.44.72-.77.16-.33.22-.7.18-1.11ZM43.54,85.86c-.14-.38-.37-.69-.69-.95-.32-.26-.7-.44-1.13-.54-.43-.1-.85-.11-1.26-.02-.4.09-.75.27-1.04.55-.29.27-.49.63-.59,1.07-.11.45-.09.86.05,1.24.14.38.37.7.69.95.32.25.7.44,1.13.54.43.1.85.11,1.26.02.4-.09.74-.27,1.03-.55.29-.27.48-.64.59-1.09.1-.44.08-.84-.05-1.22ZM39.99,112.12l-2.24,1.23h0s2.5.56,2.5.56l-.26-1.79ZM150.46,144.65c-.28-.2-.57-.25-.88-.16-.31.09-.59.31-.83.65-.33.47-.59,1.03-.78,1.68.49.27.98.36,1.47.26.49-.1.87-.34,1.15-.73.22-.3.32-.61.3-.93-.02-.32-.16-.57-.44-.77ZM158.97,81.69l-.46-1.47-1.73.53.46,1.47c.09.29.24.53.46.72.22.19.49.23.81.13.29-.09.46-.26.51-.53.06-.26.04-.55-.06-.85ZM39.99,112.12l-2.24,1.23h0s2.5.56,2.5.56l-.26-1.79ZM43.54,85.86c-.14-.38-.37-.69-.69-.95-.32-.26-.7-.44-1.13-.54-.43-.1-.85-.11-1.26-.02-.4.09-.75.27-1.04.55-.29.27-.49.63-.59,1.07-.11.45-.09.86.05,1.24.14.38.37.7.69.95.32.25.7.44,1.13.54.43.1.85.11,1.26.02.4-.09.74-.27,1.03-.55.29-.27.48-.64.59-1.09.1-.44.08-.84-.05-1.22ZM131.54,163.03c-.04-.42-.18-.84-.43-1.27-.25-.44-.55-.77-.89-1.01-.34-.24-.69-.37-1.05-.4-.37-.02-.71.06-1.04.25-.32.19-.55.44-.71.77-.16.33-.21.7-.17,1.12.04.42.19.84.44,1.27.25.43.54.76.89,1,.34.24.69.37,1.05.4.36.02.7-.06,1.02-.24.32-.19.56-.44.72-.77.16-.33.22-.7.18-1.11ZM150.46,144.65c-.28-.2-.57-.25-.88-.16-.31.09-.59.31-.83.65-.33.47-.59,1.03-.78,1.68.49.27.98.36,1.47.26.49-.1.87-.34,1.15-.73.22-.3.32-.61.3-.93-.02-.32-.16-.57-.44-.77ZM158.97,81.69l-.46-1.47-1.73.53.46,1.47c.09.29.24.53.46.72.22.19.49.23.81.13.29-.09.46-.26.51-.53.06-.26.04-.55-.06-.85ZM131.54,163.03c-.04-.42-.18-.84-.43-1.27-.25-.44-.55-.77-.89-1.01-.34-.24-.69-.37-1.05-.4-.37-.02-.71.06-1.04.25-.32.19-.55.44-.71.77-.16.33-.21.7-.17,1.12.04.42.19.84.44,1.27.25.43.54.76.89,1,.34.24.69.37,1.05.4.36.02.7-.06,1.02-.24.32-.19.56-.44.72-.77.16-.33.22-.7.18-1.11ZM43.54,85.86c-.14-.38-.37-.69-.69-.95-.32-.26-.7-.44-1.13-.54-.43-.1-.85-.11-1.26-.02-.4.09-.75.27-1.04.55-.29.27-.49.63-.59,1.07-.11.45-.09.86.05,1.24.14.38.37.7.69.95.32.25.7.44,1.13.54.43.1.85.11,1.26.02.4-.09.74-.27,1.03-.55.29-.27.48-.64.59-1.09.1-.44.08-.84-.05-1.22ZM39.99,112.12l-2.24,1.23h0s2.5.56,2.5.56l-.26-1.79ZM150.46,144.65c-.28-.2-.57-.25-.88-.16-.31.09-.59.31-.83.65-.33.47-.59,1.03-.78,1.68.49.27.98.36,1.47.26.49-.1.87-.34,1.15-.73.22-.3.32-.61.3-.93-.02-.32-.16-.57-.44-.77ZM158.97,81.69l-.46-1.47-1.73.53.46,1.47c.09.29.24.53.46.72.22.19.49.23.81.13.29-.09.46-.26.51-.53.06-.26.04-.55-.06-.85ZM39.99,112.12l-2.24,1.23h0s2.5.56,2.5.56l-.26-1.79ZM43.54,85.86c-.14-.38-.37-.69-.69-.95-.32-.26-.7-.44-1.13-.54-.43-.1-.85-.11-1.26-.02-.4.09-.75.27-1.04.55-.29.27-.49.63-.59,1.07-.11.45-.09.86.05,1.24.14.38.37.7.69.95.32.25.7.44,1.13.54.43.1.85.11,1.26.02.4-.09.74-.27,1.03-.55.29-.27.48-.64.59-1.09.1-.44.08-.84-.05-1.22ZM150.46,144.65c-.28-.2-.57-.25-.88-.16-.31.09-.59.31-.83.65-.33.47-.59,1.03-.78,1.68.49.27.98.36,1.47.26.49-.1.87-.34,1.15-.73.22-.3.32-.61.3-.93-.02-.32-.16-.57-.44-.77ZM158.97,81.69l-.46-1.47-1.73.53.46,1.47c.09.29.24.53.46.72.22.19.49.23.81.13.29-.09.46-.26.51-.53.06-.26.04-.55-.06-.85ZM43.54,85.86c-.14-.38-.37-.69-.69-.95-.32-.26-.7-.44-1.13-.54-.43-.1-.85-.11-1.26-.02-.4.09-.75.27-1.04.55-.29.27-.49.63-.59,1.07-.11.45-.09.86.05,1.24.14.38.37.7.69.95.32.25.7.44,1.13.54.43.1.85.11,1.26.02.4-.09.74-.27,1.03-.55.29-.27.48-.64.59-1.09.1-.44.08-.84-.05-1.22ZM39.99,112.12l-2.24,1.23h0s2.5.56,2.5.56l-.26-1.79ZM158.97,81.69l-.46-1.47-1.73.53.46,1.47c.09.29.24.53.46.72.22.19.49.23.81.13.29-.09.46-.26.51-.53.06-.26.04-.55-.06-.85ZM39.99,112.12l-2.24,1.23h0s2.5.56,2.5.56l-.26-1.79ZM43.54,85.86c-.14-.38-.37-.69-.69-.95-.32-.26-.7-.44-1.13-.54-.43-.1-.85-.11-1.26-.02-.4.09-.75.27-1.04.55-.29.27-.49.63-.59,1.07-.11.45-.09.86.05,1.24.14.38.37.7.69.95.32.25.7.44,1.13.54.43.1.85.11,1.26.02.4-.09.74-.27,1.03-.55.29-.27.48-.64.59-1.09.1-.44.08-.84-.05-1.22ZM158.97,81.69l-.46-1.47-1.73.53.46,1.47c.09.29.24.53.46.72.22.19.49.23.81.13.29-.09.46-.26.51-.53.06-.26.04-.55-.06-.85ZM43.54,85.86c-.14-.38-.37-.69-.69-.95-.32-.26-.7-.44-1.13-.54-.43-.1-.85-.11-1.26-.02-.4.09-.75.27-1.04.55-.29.27-.49.63-.59,1.07-.11.45-.09.86.05,1.24.14.38.37.7.69.95.32.25.7.44,1.13.54.43.1.85.11,1.26.02.4-.09.74-.27,1.03-.55.29-.27.48-.64.59-1.09.1-.44.08-.84-.05-1.22ZM39.99,112.12l-2.24,1.23h0s2.5.56,2.5.56l-.26-1.79ZM158.97,81.69l-.46-1.47-1.73.53.46,1.47c.09.29.24.53.46.72.22.19.49.23.81.13.29-.09.46-.26.51-.53.06-.26.04-.55-.06-.85ZM39.99,112.12l-2.24,1.23h0s2.5.56,2.5.56l-.26-1.79ZM43.54,85.86c-.14-.38-.37-.69-.69-.95-.32-.26-.7-.44-1.13-.54-.43-.1-.85-.11-1.26-.02-.4.09-.75.27-1.04.55-.29.27-.49.63-.59,1.07-.11.45-.09.86.05,1.24.14.38.37.7.69.95.32.25.7.44,1.13.54.43.1.85.11,1.26.02.4-.09.74-.27,1.03-.55.29-.27.48-.64.59-1.09.1-.44.08-.84-.05-1.22ZM158.97,81.69l-.46-1.47-1.73.53.46,1.47c.09.29.24.53.46.72.22.19.49.23.81.13.29-.09.46-.26.51-.53.06-.26.04-.55-.06-.85ZM43.54,85.86c-.14-.38-.37-.69-.69-.95-.32-.26-.7-.44-1.13-.54-.43-.1-.85-.11-1.26-.02-.4.09-.75.27-1.04.55-.29.27-.49.63-.59,1.07-.11.45-.09.86.05,1.24.14.38.37.7.69.95.32.25.7.44,1.13.54.43.1.85.11,1.26.02.4-.09.74-.27,1.03-.55.29-.27.48-.64.59-1.09.1-.44.08-.84-.05-1.22ZM39.99,112.12l-2.24,1.23h0s2.5.56,2.5.56l-.26-1.79ZM39.99,112.12l-2.24,1.23h0s2.5.56,2.5.56l-.26-1.79ZM43.54,85.86c-.14-.38-.37-.69-.69-.95-.32-.26-.7-.44-1.13-.54-.43-.1-.85-.11-1.26-.02-.4.09-.75.27-1.04.55-.29.27-.49.63-.59,1.07-.11.45-.09.86.05,1.24.14.38.37.7.69.95.32.25.7.44,1.13.54.43.1.85.11,1.26.02.4-.09.74-.27,1.03-.55.29-.27.48-.64.59-1.09.1-.44.08-.84-.05-1.22ZM43.54,85.86c-.14-.38-.37-.69-.69-.95-.32-.26-.7-.44-1.13-.54-.43-.1-.85-.11-1.26-.02-.4.09-.75.27-1.04.55-.29.27-.49.63-.59,1.07-.11.45-.09.86.05,1.24.14.38.37.7.69.95.32.25.7.44,1.13.54.43.1.85.11,1.26.02.4-.09.74-.27,1.03-.55.29-.27.48-.64.59-1.09.1-.44.08-.84-.05-1.22ZM39.99,112.12l-2.24,1.23h0s2.5.56,2.5.56l-.26-1.79ZM39.99,112.12l-2.24,1.23h0s2.5.56,2.5.56l-.26-1.79ZM43.54,85.86c-.14-.38-.37-.69-.69-.95-.32-.26-.7-.44-1.13-.54-.43-.1-.85-.11-1.26-.02-.4.09-.75.27-1.04.55-.29.27-.49.63-.59,1.07-.11.45-.09.86.05,1.24.14.38.37.7.69.95.32.25.7.44,1.13.54.43.1.85.11,1.26.02.4-.09.74-.27,1.03-.55.29-.27.48-.64.59-1.09.1-.44.08-.84-.05-1.22ZM43.54,85.86c-.14-.38-.37-.69-.69-.95-.32-.26-.7-.44-1.13-.54-.43-.1-.85-.11-1.26-.02-.4.09-.75.27-1.04.55-.29.27-.49.63-.59,1.07-.11.45-.09.86.05,1.24.14.38.37.7.69.95.32.25.7.44,1.13.54.43.1.85.11,1.26.02.4-.09.74-.27,1.03-.55.29-.27.48-.64.59-1.09.1-.44.08-.84-.05-1.22ZM39.99,112.12l-2.24,1.23h0s2.5.56,2.5.56l-.26-1.79ZM39.99,112.12l-2.24,1.23h0s2.5.56,2.5.56l-.26-1.79ZM43.54,85.86c-.14-.38-.37-.69-.69-.95-.32-.26-.7-.44-1.13-.54-.43-.1-.85-.11-1.26-.02-.4.09-.75.27-1.04.55-.29.27-.49.63-.59,1.07-.11.45-.09.86.05,1.24.14.38.37.7.69.95.32.25.7.44,1.13.54.43.1.85.11,1.26.02.4-.09.74-.27,1.03-.55.29-.27.48-.64.59-1.09.1-.44.08-.84-.05-1.22ZM43.54,85.86c-.14-.38-.37-.69-.69-.95-.32-.26-.7-.44-1.13-.54-.43-.1-.85-.11-1.26-.02-.4.09-.75.27-1.04.55-.29.27-.49.63-.59,1.07-.11.45-.09.86.05,1.24.14.38.37.7.69.95.32.25.7.44,1.13.54.43.1.85.11,1.26.02.4-.09.74-.27,1.03-.55.29-.27.48-.64.59-1.09.1-.44.08-.84-.05-1.22ZM39.99,112.12l-2.24,1.23h0s2.5.56,2.5.56l-.26-1.79ZM39.99,112.12l-2.24,1.23h0s2.5.56,2.5.56l-.26-1.79ZM43.54,85.86c-.14-.38-.37-.69-.69-.95-.32-.26-.7-.44-1.13-.54-.43-.1-.85-.11-1.26-.02-.4.09-.75.27-1.04.55-.29.27-.49.63-.59,1.07-.11.45-.09.86.05,1.24.14.38.37.7.69.95.32.25.7.44,1.13.54.43.1.85.11,1.26.02.4-.09.74-.27,1.03-.55.29-.27.48-.64.59-1.09.1-.44.08-.84-.05-1.22ZM43.54,85.86c-.14-.38-.37-.69-.69-.95-.32-.26-.7-.44-1.13-.54-.43-.1-.85-.11-1.26-.02-.4.09-.75.27-1.04.55-.29.27-.49.63-.59,1.07-.11.45-.09.86.05,1.24.14.38.37.7.69.95.32.25.7.44,1.13.54.43.1.85.11,1.26.02.4-.09.74-.27,1.03-.55.29-.27.48-.64.59-1.09.1-.44.08-.84-.05-1.22ZM39.99,112.12l-2.24,1.23h0s2.5.56,2.5.56l-.26-1.79ZM39.99,112.12l-2.24,1.23h0s2.5.56,2.5.56l-.26-1.79ZM43.54,85.86c-.14-.38-.37-.69-.69-.95-.32-.26-.7-.44-1.13-.54-.43-.1-.85-.11-1.26-.02-.4.09-.75.27-1.04.55-.29.27-.49.63-.59,1.07-.11.45-.09.86.05,1.24.14.38.37.7.69.95.32.25.7.44,1.13.54.43.1.85.11,1.26.02.4-.09.74-.27,1.03-.55.29-.27.48-.64.59-1.09.1-.44.08-.84-.05-1.22ZM43.54,85.86c-.14-.38-.37-.69-.69-.95-.32-.26-.7-.44-1.13-.54-.43-.1-.85-.11-1.26-.02-.4.09-.75.27-1.04.55-.29.27-.49.63-.59,1.07-.11.45-.09.86.05,1.24.14.38.37.7.69.95.32.25.7.44,1.13.54.43.1.85.11,1.26.02.4-.09.74-.27,1.03-.55.29-.27.48-.64.59-1.09.1-.44.08-.84-.05-1.22ZM39.99,112.12l-2.24,1.23h0s2.5.56,2.5.56l-.26-1.79ZM39.99,112.12l-2.24,1.23h0s2.5.56,2.5.56l-.26-1.79ZM39.99,112.12l-2.24,1.23h0s2.5.56,2.5.56l-.26-1.79Z"/>
  <g>
    <polygon points="76.53 121.05 71.3 121.59 85.78 102.78 110.18 111.93 124.67 122.66 98.73 118.53 87.11 106.87 76.53 121.05"/>
    <polygon points="74.16 134.24 74.16 135.62 98.73 133.4 98.73 131.63 74.16 134.24"/>
    <rect x="77.16" y="134.84" width="1.69" height="8.22"/>
    <rect x="88.04" y="133.63" width="1.84" height="9.43"/>
    <rect x="104.48" y="133.4" width="1.84" height="9.66"/>
    <rect x="119.28" y="134.93" width="1.84" height="8.13"/>
    <rect x="96.89" y="133.09" width="1.84" height="9.96"/>
    <polygon points="119.39 122.05 119.39 133.63 121 133.63 121 122.39 119.39 122.05"/>
    <polygon points="98.73 119.13 98.73 131.92 100.33 131.92 100.33 119.47 98.73 119.13"/>
    <polygon points="106.21 130.71 114.26 145.89 115.48 145.89 106.21 128.8 106.21 130.71"/>
    <polygon points="110.32 131.05 118.37 146.22 119.6 146.22 110.32 129.13 110.32 131.05"/>
    <rect x="109.39" y="135.27" width="4.46" height=".69"/>
    <rect x="110.57" y="137.42" width="4.46" height=".69"/>
    <rect x="111.8" y="139.57" width="4.46" height=".69"/>
    <rect x="112.8" y="141.71" width="4.46" height=".69"/>
    <polygon points="118.29 123.97 101.61 121.59 101.61 130.71 118.29 131.92 118.29 123.97"/>
    <polygon points="98.73 131.63 123.66 133.56 123.66 135.38 98.73 133.4 98.73 131.63"/>
    <path d="M87.16,109.07l-9.15,12.52v11.5l18.88-2.32v-11.64l-9.73-10.06ZM88.96,123.83l-5,.71v-3.87l5-.59v3.75Z"/>
  </g>
  <path d="M100,183.97c-41.07,0-74.48-36.42-74.48-81.19S58.93,21.59,100,21.59s74.48,36.42,74.48,81.19-33.41,81.19-74.48,81.19ZM100,23.66c-39.92,0-72.41,35.49-72.41,79.11s32.48,79.11,72.41,79.11,72.41-35.49,72.41-79.11S139.92,23.66,100,23.66Z"/>
  <path d="M100,156.13c-26.98,0-48.94-23.93-48.94-53.35s21.95-53.35,48.94-53.35,48.94,23.93,48.94,53.35-21.95,53.35-48.94,53.35ZM100,50.66c-26.3,0-47.7,23.38-47.7,52.12s21.4,52.12,47.7,52.12,47.7-23.38,47.7-52.12-21.4-52.12-47.7-52.12Z"/>
  <path d="M100,186.43c-42.29,0-76.7-37.53-76.7-83.65S57.71,19.12,100,19.12s76.7,37.53,76.7,83.65-34.41,83.65-76.7,83.65ZM100,20.36c-41.61,0-75.47,36.97-75.47,82.42s33.86,82.42,75.47,82.42,75.47-36.97,75.47-82.42S141.61,20.36,100,20.36Z"/>
  <path d="M131.85,142.75c-8.46,7.95-19.48,12.76-31.52,12.76s-23.06-4.81-31.52-12.76c8.7-1.78,19.64-2.84,31.52-2.84s22.82,1.06,31.52,2.84Z"/>
  <path d="M72.43,68.36c1.01-.65,8.66,3.09,8.88,3.78s-.22,1.69-.93,1.87c-.61.15-8.11-3.32-8.31-4.15-.07-.31.19-1.39.36-1.5Z"/>
  <path d="M110.41,65.07c-.4-.56,3.83-7.33,4.47-7.87.61-.51,1.26-.52,1.99-.2.55.38.35,1.12.18,1.65-.15.49-3.72,5.9-4.14,6.27-.94.85-1.42.48-2.51.15Z"/>
  <path d="M127.57,68.36c.17.11.43,1.19.36,1.5-.19.78-7.73,4.29-8.31,4.15-.72-.18-1.17-1.16-.93-1.87s7.87-4.43,8.88-3.78Z"/>
  <path d="M83.37,56.88c.68-.16,1.18-.15,1.74.32.38.32,4.39,6.64,4.43,7.06.07.82-1.11,1.43-1.84,1.14-.53-.16-4.7-6.28-4.86-7.03-.13-.6-.17-1.25.53-1.49Z"/>
  <path d="M98.92,53.07c.19-.62,1.57-.81,1.99-.2.22.32.62,6.91.5,7.71-.36,2.28-2.49,1.77-2.49,1.1v-8.61Z"/>
  <path d="M116.58,78.5c-6.3,1.91-11.85,4.84-16.09,8.57-4.3-3.79-9.95-6.75-16.37-8.65,1.82-7.26,8.4-12.63,16.22-12.63s14.45,5.42,16.24,12.72Z"/>
  <path d="M143.79,92.18c-3.12-.53-6.4-.81-9.77-.81-11.93,0-22.58,3.51-29.56,9.02-1.77,1.4-3.3,2.92-4.56,4.55-1.02-1.32-2.22-2.57-3.58-3.74-6.93-5.96-18.03-9.82-30.54-9.82-3.3,0-6.51.27-9.57.78.83-4.1,2.13-8,3.84-11.65,2.24-.26,4.54-.4,6.9-.4,14.51,0,27.12,5.2,33.53,12.84,6.41-7.64,19.02-12.84,33.53-12.84,2,0,3.95.1,5.87.29,1.74,3.68,3.07,7.64,3.9,11.79Z"/>
</svg>