<?xml version="1.0" encoding="UTF-8"?>
<svg id="Layer_1" data-name="Layer 1" xmlns="http://www.w3.org/2000/svg" viewBox="0 0 200 200">
  <path d="M192.16,168.93h-50.27l-25.98-25.97,31.58,8.41-21.48-19.27-16.51-14.8-.46-.41.68.18,16.79,4.48-9.1-12.14h-.04s.03-.02.03-.02l-7.27-9.68-10.26-13.67-10.15,13.55-7.36,9.81.53.52-.77-.2-8.52,11.37,16.15-4.31,1.91-.5-1.28,1.15-16.1,14.43-22.27,19.97,31.3-8.35-25.43,25.45H5.51v-.95l48.8-98.04,15.33-30.78.24-.47,5.27-10.58c.97-1.93,3.71-1.93,4.68,0l5.28,10.58.24.47,15.7,29.56,14.72-29.56.24-.47,5.44-10.92c.97-1.93,3.71-1.93,4.68,0l5.44,10.92.24.47,15.33,30.78,47.4,95.21c.86,1.74-.41,3.78-2.34,3.78Z"/>
</svg>