<?xml version="1.0" encoding="UTF-8"?>
<svg id="Layer_1" data-name="Layer 1" xmlns="http://www.w3.org/2000/svg" viewBox="0 0 200 200">
  <defs>
    <style>
      .cls-1 {
        opacity: .54;
      }

      .cls-2 {
        opacity: .57;
      }

      .cls-3 {
        fill: #fff;
      }

      .cls-4 {
        opacity: .53;
      }

      .cls-5 {
        opacity: .56;
      }

      .cls-6 {
        opacity: .48;
      }
    </style>
  </defs>
  <path d="M100,14.49C51.63,14.49,12.41,53.7,12.41,102.07s39.21,87.59,87.59,87.59,87.59-39.21,87.59-87.59S148.37,14.49,100,14.49ZM100,165.95c-35.28,0-63.87-28.6-63.87-63.87s28.6-63.87,63.87-63.87,63.87,28.6,63.87,63.87-28.6,63.87-63.87,63.87Z"/>
  <g>
    <path class="cls-3" d="M61.03,163.47c1.02-1.41.66-2.95-.81-4.01-1.47-1.06-3.04-.91-4.05.49l-3.32,4.61c-.59.83-.31,1.23-.12,1.37l-.35.19-3.39-2.45.07-.4c.18.13.66.28,1.26-.55l3.43-4.76c2.03-2.81,5.13-3.06,8.19-.86s2.83,4.97,2.1,5.97c-.81,1.12-2.05,1.08-2.99.39Z"/>
    <path class="cls-3" d="M33.34,155.13l4.93.14,1.03,1.19-4.13.78-1.83-2.11ZM51.84,151.12l-7.28,6.3c-.77.67-.59,1.13-.44,1.3l-.39.11-7.01-8.11,2.68-3.01.23.26s-.7.86.83,2.63l3.07,3.55,1.51-1.31-1.76-2.03c-.64-.74-1.11-.54-1.29-.38l-.09-.38,3.02-2.62.37.15c-.18.15-.45.59.19,1.33l1.76,2.03,1.51-1.31-3.07-3.55c-1.53-1.77-2.48-1.2-2.48-1.2l-.23-.26,3.37-2.22,7.01,8.11-.16.37c-.15-.17-.58-.42-1.35.24Z"/>
    <path class="cls-3" d="M42.06,138.99l-8.6,4.33c-.91.46-.84.95-.74,1.15h-.4s-1.88-3.73-1.88-3.73l.24-.32c.1.2.46.55,1.37.09l3.03-1.53-4.74-1.5c-1.15-.3-1.1.08-1,.27h-.4s-2.35-4.65-2.35-4.65l.25-.32c.21.42.77.76,1.6,1.03l4.34,1.39,4.02-6.67c.5-.82.66-1.31.36-1.92h.4s2.4,4.76,2.4,4.76l-.25.32c-.15-.3-.59-.78-1.17.18l-2.61,4.36,2.82.91,1.9-.96c.91-.46.84-.95.74-1.15h.4s1.88,3.73,1.88,3.73l-.25.32c-.1-.2-.46-.55-1.37-.09Z"/>
    <path class="cls-3" d="M23.81,125.12l-2.32-10.35,4.14-1.46.08.34s-1.38.51-.87,2.79l.3,1.34,8.06-1.81c.99-.22,1.05-.72,1-.94l.39.09.92,4.08-.32.25c-.05-.22-.31-.65-1.3-.42l-8.06,1.81.3,1.34c.51,2.28,1.97,2.15,1.97,2.15l.08.34-4.37.44Z"/>
    <path class="cls-3" d="M20.56,107.23l.1-4.19.37-.17c0,.23.15.7,1.16.73l5.69.13c1.72.04,2.79-1.12,2.83-2.93.04-1.81-.96-3.02-2.69-3.07l-5.69-.13c-1.02-.02-1.19.44-1.2.67l-.36-.18.1-4.19.37-.17c0,.23.15.7,1.16.73l5.87.14c3.47.08,5.43,2.5,5.34,6.27-.09,3.77-2.16,6.09-5.63,6.01l-5.87-.14c-1.02-.02-1.19.44-1.2.67l-.36-.18Z"/>
    <path class="cls-3" d="M32.77,89.17l-9.2-2.86c-.97-.3-1.27.1-1.34.31l-.29-.27,1.09-3.5,7.56-2.02-5.07-5.96,1.09-3.5.4-.06c-.07.22-.05.71.92,1.02l9.2,2.86c.8.25,1.27-.1,1.33-.32l.29.27-1.25,4-.4.06c.07-.22.05-.71-.92-1.02l-4.65-1.45,4.94,5.72-.11.33-7.32,1.92,4.65,1.45c.97.3,1.27-.1,1.33-.31l.3.27-1.25,4-.4.06c.07-.22.05-.71-.92-1.02Z"/>
    <path class="cls-3" d="M36.02,55.09l2.95-3.4.27.24c-.24.28-.48.81.61,1.02l4.7.94-1.58-4.52c-.36-1.05-.85-.74-1.09-.46l-.16-.37,2.84-3.27.39.11c-.29.33-.24.69.1,1.68l2.6,7.44,2.1,1.82c.63.55,1.2.42,1.35.25l.16.37-2.75,3.16-.39-.11c.15-.17.33-.63-.43-1.3l-2.1-1.82-7.73-1.54c-1.03-.2-1.39-.19-1.68.13l-.16-.37Z"/>
    <path class="cls-3" d="M53.37,37.93c3.3-2.4,7.09-1.88,9.38,1.27,2.29,3.14,1.62,6.91-1.69,9.31s-7.09,1.88-9.38-1.27c-2.29-3.15-1.62-6.91,1.69-9.31ZM59.14,45.87c1.88-1.37,2.29-3.13,1.07-4.82-1.23-1.69-3.02-1.85-4.91-.47-1.89,1.38-2.3,3.13-1.07,4.82s3.02,1.84,4.91.47Z"/>
    <path class="cls-3" d="M64.5,31.05l3.89-1.56.3.27c-.21.08-.59.41-.21,1.36l2.12,5.28c.64,1.6,2.13,2.12,3.81,1.45,1.69-.67,2.4-2.08,1.76-3.68l-2.12-5.28c-.38-.94-.88-.92-1.09-.84l.03-.4,3.89-1.56.3.27c-.21.08-.59.41-.21,1.36l2.18,5.45c1.29,3.22-.16,5.97-3.66,7.38-3.5,1.4-6.45.41-7.74-2.81l-2.19-5.45c-.38-.94-.88-.92-1.09-.84l.03-.4Z"/>
    <path class="cls-3" d="M84.26,24.3l10.51-1.45,1.12,4.25-.35.05s-.39-1.41-2.71-1.09l-1.37.19,1.13,8.19c.14,1.01.63,1.1.85,1.07l-.12.38-4.15.57-.22-.34c.22-.03.67-.26.53-1.26l-1.13-8.19-1.37.19c-2.31.32-2.31,1.79-2.31,1.79l-.35.05-.08-4.39Z"/>
    <path class="cls-3" d="M101.67,33.75l.99-9.58c.11-1.01-.35-1.22-.57-1.25l.21-.34,4.17.43.14.38c-.23-.02-.71.09-.82,1.1l-.35,3.34,5.38.56.35-3.34c.1-1.01-.35-1.22-.57-1.25l.21-.34,4.17.43.14.38c-.23-.02-.71.09-.82,1.1l-.99,9.58c-.09.83.35,1.22.57,1.25l-.21.34-4.17-.43-.14-.38c.23.02.71-.09.82-1.1l.35-3.34-5.38-.56-.35,3.34c-.1,1.01.35,1.22.57,1.25l-.21.34-4.17-.43-.13-.38c.22.02.71-.09.81-1.1Z"/>
    <path class="cls-3" d="M138.75,32.47c1.88,1.01,2.56,2.12,2.99,2.35.21.12.38.04.53-.25l.31.17-2.43,4.51-.31-.17s-.08-2.35-2.77-3.8c-2.06-1.11-3.82-.71-4.8,1.13-.99,1.84-.35,3.52,1.71,4.63,2.28,1.22,3.67.39,4.31-.43,1.06.57,1.59,1.68,1.08,2.64-.69,1.28-3.4,2.56-6.89.69-3.66-1.97-4.82-5.6-2.96-9.04,1.83-3.41,5.45-4.47,9.24-2.44Z"/>
    <path class="cls-3" d="M154.51,43.79c3,2.76,3.23,6.58.6,9.44-2.63,2.86-6.45,2.94-9.46.18-3-2.77-3.23-6.58-.6-9.44,2.63-2.86,6.46-2.94,9.46-.18ZM147.87,51c1.71,1.57,3.52,1.64,4.93.1,1.42-1.54,1.21-3.33-.51-4.91s-3.52-1.64-4.93-.1c-1.41,1.54-1.21,3.33.51,4.91Z"/>
    <path class="cls-3" d="M154.32,59.99l7.96-5.42c.84-.57.71-1.05.58-1.24l.4-.06,2.36,3.46-.2.35c-.13-.19-.53-.48-1.37.09l-6.83,4.65,2.35,3.45c1.32,1.93,2.62,1.27,2.62,1.27l.2.29-3.9,2.02-5.73-8.43.2-.35c.13.19.53.49,1.37-.09Z"/>
    <path class="cls-3" d="M162.26,72.75l8.95-3.56c.95-.38.92-.87.84-1.08l.4.03,1.55,3.89-.27.3c-.08-.21-.41-.59-1.36-.21l-7.68,3.05,1.54,3.87c.87,2.17,2.29,1.81,2.29,1.81l.13.32-4.25,1.12-3.77-9.46.27-.3c.08.21.41.59,1.36.21Z"/>
    <path class="cls-3" d="M167.27,86.95l9.51-1.5c1-.16,1.09-.65,1.06-.87l.39.11,1.67,10.58-3.87,1.14-.06-.35s1.05-.36.69-2.67l-.73-4.63-1.97.31.42,2.65c.15.96.66,1.04.89,1.01l-.12.37-3.95.62-.23-.32c.23-.04.69-.27.54-1.23l-.42-2.65-1.97.31.73,4.63c.37,2.31,1.47,2.33,1.47,2.33l.05.34-4.03.11-1.67-10.58.33-.23c.04.22.27.66,1.28.5Z"/>
    <path class="cls-3" d="M180.03,108.46c-.16,2.44-.88,3.28-.91,3.84-.02.24.12.36.45.38l-.02.35-5.12-.34.02-.35s2.11-1.05,2.32-4.09c.16-2.33-.93-3.77-3.02-3.91s-3.36,1.14-3.51,3.47c-.17,2.58,1.17,3.5,2.17,3.75-.08,1.17-1.05,2.13-2.07,2.06-1.23-.08-3.64-1.96-3.37-6.03.27-4.07,3.11-6.64,6.99-6.38,3.88.26,6.34,3.19,6.07,7.26Z"/>
    <path class="cls-3" d="M178.11,120.84l-3.12,10.14-4.32-.78.1-.33s1.45.24,2.13-1.99l.41-1.32-7.9-2.44c-.97-.3-1.27.1-1.33.32l-.3-.27,1.23-4,.4-.06c-.07.22-.05.71.92,1.02l7.9,2.43.41-1.32c.69-2.23-.64-2.85-.64-2.85l.1-.33,4.01,1.79Z"/>
    <path class="cls-3" d="M161.92,132.62l8.54,4.44c.9.47,1.26.13,1.37-.08l.24.32-1.93,3.71h-.4c.11-.21.18-.71-.73-1.18l-8.54-4.44c-.74-.38-1.26-.13-1.37.08l-.24-.32,1.93-3.71h.4c-.1.21-.18.71.73,1.18Z"/>
    <path class="cls-3" d="M166.86,147.02l-3.03,3.74-.39-.09c.23-.29.26-.67-.65-.99l-7.58-2.7,4.22,6.85c.51.82.88.71,1.11.42l.17.36-3.03,3.74-.39-.09c.39-.49.36-.83-.16-1.68l-5.53-8.94c-.47-.63-.73-.52-.86-.36l-.17-.37,3.62-4.48.39.09c-.13.16-.19.43.53.76l9.89,3.54c.94.34,1.29.28,1.68-.19l.17.36Z"/>
    <path class="cls-3" d="M145.16,154.6l5.72,7.74c.61.82,1.08.67,1.26.54l.08.4-8.61,6.36-2.8-2.9.28-.21s.8.76,2.68-.63l3.77-2.79-1.19-1.61-2.16,1.6c-.79.58-.62,1.07-.48,1.26l-.39.06-2.38-3.21.17-.35c.14.19.56.49,1.34-.09l2.16-1.6-1.19-1.61-3.77,2.79c-1.88,1.39-1.38,2.38-1.38,2.38l-.28.21-1.96-3.52,8.61-6.36.36.19c-.18.13-.46.54.14,1.36Z"/>
  </g>
  <g>
    <path d="M100,159.68c-.27-2.57-.32-5.26-.34-7.85.02-2.59.07-5.27.34-7.85.27,2.57.32,5.26.34,7.85-.02,2.59-.07,5.27-.34,7.85h0Z"/>
    <path d="M110.07,158.81c-.71-2.49-1.23-5.12-1.69-7.67-.43-2.55-.85-5.21-1.03-7.79.71,2.49,1.23,5.12,1.69,7.67.43,2.55.85,5.21,1.03,7.79h0Z"/>
    <path d="M119.83,156.2c-1.13-2.32-2.1-4.83-3-7.26-.87-2.44-1.74-4.98-2.37-7.49,1.13,2.32,2.1,4.83,3,7.26.87,2.44,1.74,4.98,2.37,7.49h0Z"/>
    <path d="M128.99,151.92c-1.52-2.09-2.91-4.4-4.22-6.63-1.28-2.25-2.58-4.6-3.63-6.97,1.52,2.09,2.91,4.4,4.22,6.63,1.28,2.25,2.58,4.6,3.63,6.97h0Z"/>
    <path d="M137.26,146.12c-1.86-1.8-3.62-3.82-5.3-5.79-1.65-1.99-3.34-4.08-4.79-6.23,1.86,1.8,3.63,3.82,5.3,5.79,1.65,1.99,3.34,4.08,4.79,6.23h0Z"/>
    <path d="M144.4,138.97c-2.14-1.45-4.23-3.14-6.23-4.79-1.97-1.68-4-3.44-5.79-5.3,2.14,1.45,4.23,3.13,6.23,4.79,1.97,1.68,4,3.44,5.79,5.3h0Z"/>
    <path d="M150.21,130.7c-2.36-1.05-4.72-2.35-6.97-3.63-2.24-1.31-4.54-2.69-6.63-4.21,2.36,1.05,4.72,2.35,6.97,3.63,2.23,1.31,4.53,2.7,6.63,4.22h0Z"/>
    <path d="M154.48,121.54c-2.51-.63-5.05-1.5-7.49-2.37-2.43-.9-4.93-1.87-7.26-3,2.51.63,5.05,1.5,7.49,2.37,2.43.9,4.93,1.87,7.26,3h0Z"/>
    <path d="M58.36,94.37c-2.58-.18-5.24-.6-7.79-1.03-2.55-.47-5.18-.98-7.67-1.69,2.58.18,5.24.6,7.79,1.03,2.55.47,5.18.98,7.67,1.69h0Z"/>
    <path d="M157.09,111.78c-2.58-.18-5.24-.6-7.79-1.03-2.55-.46-5.18-.98-7.67-1.69,2.58.18,5.24.6,7.79,1.03,2.55.47,5.18.98,7.67,1.69h0Z"/>
    <path d="M57.73,101.71c-2.57.27-5.26.32-7.85.34-2.59-.02-5.27-.07-7.85-.34,2.57-.27,5.26-.32,7.85-.34,2.59.02,5.27.07,7.85.34h0Z"/>
    <path d="M157.97,101.71c-2.57.27-5.26.32-7.85.34-2.59-.02-5.27-.07-7.85-.34,2.57-.27,5.26-.32,7.85-.34,2.59.02,5.27.07,7.85.34h0Z"/>
    <path d="M58.36,109.05c-2.49.71-5.12,1.23-7.67,1.69-2.55.43-5.21.85-7.79,1.03,2.49-.71,5.12-1.23,7.67-1.69,2.55-.43,5.21-.85,7.79-1.03h0Z"/>
    <path d="M157.09,91.64c-2.49.71-5.12,1.23-7.67,1.69-2.55.43-5.21.85-7.79,1.03,2.49-.71,5.12-1.23,7.67-1.69,2.55-.43,5.21-.85,7.79-1.03h0Z"/>
    <path d="M60.27,116.17c-2.33,1.13-4.83,2.1-7.26,3-2.44.87-4.98,1.74-7.49,2.37,2.32-1.13,4.83-2.1,7.26-3,2.44-.87,4.98-1.74,7.49-2.37h0Z"/>
    <path d="M63.39,122.85c-2.09,1.52-4.4,2.91-6.63,4.21-2.25,1.28-4.6,2.58-6.97,3.63,2.09-1.52,4.4-2.91,6.63-4.22,2.25-1.28,4.6-2.58,6.97-3.63h0Z"/>
    <path d="M67.62,128.88c-1.8,1.86-3.82,3.62-5.79,5.3-1.99,1.65-4.08,3.34-6.23,4.79,1.8-1.86,3.82-3.63,5.79-5.3,1.99-1.65,4.08-3.34,6.23-4.79h0Z"/>
    <path d="M72.83,134.09c-1.45,2.14-3.14,4.23-4.79,6.23-1.68,1.97-3.44,4-5.3,5.79,1.45-2.14,3.13-4.23,4.79-6.23,1.68-1.97,3.44-4,5.3-5.79h0Z"/>
    <path d="M78.86,138.33c-1.05,2.36-2.35,4.72-3.63,6.97-1.31,2.23-2.69,4.54-4.22,6.63,1.05-2.36,2.35-4.72,3.63-6.97,1.31-2.23,2.7-4.53,4.22-6.63h0Z"/>
    <path d="M85.54,141.44c-.63,2.51-1.5,5.05-2.37,7.49-.9,2.43-1.87,4.93-3,7.26.63-2.51,1.5-5.05,2.37-7.49.9-2.43,1.87-4.93,3-7.26h0Z"/>
    <path d="M92.66,143.35c-.18,2.58-.6,5.24-1.03,7.79-.46,2.55-.98,5.18-1.69,7.67.18-2.58.6-5.24,1.03-7.79.47-2.55.98-5.18,1.69-7.67h0Z"/>
  </g>
  <g>
    <path d="M104.73,159.48c-.48-2.54-.75-5.22-.98-7.79-.2-2.58-.37-5.26-.31-7.85.48,2.54.75,5.22.98,7.79.19,2.58.36,5.26.31,7.85h0Z"/>
    <path d="M114.7,157.79c-.91-2.42-1.64-5.01-2.31-7.51-.64-2.51-1.27-5.12-1.66-7.68.91,2.42,1.64,5.01,2.31,7.51.64,2.51,1.27,5.12,1.66,7.68h0Z"/>
    <path d="M124.21,154.4c-1.32-2.22-2.49-4.65-3.58-6.99-1.07-2.36-2.14-4.82-2.97-7.27,1.32,2.22,2.49,4.65,3.58,6.99,1.07,2.36,2.14,4.82,2.97,7.27h0Z"/>
    <path d="M132.99,149.39c-1.68-1.96-3.26-4.14-4.74-6.26-1.46-2.14-2.95-4.37-4.19-6.65,1.69,1.96,3.26,4.14,4.74,6.26,1.46,2.14,2.95,4.38,4.19,6.65h0Z"/>
    <path d="M140.76,142.93c-2-1.64-3.92-3.51-5.76-5.34-1.81-1.85-3.66-3.8-5.28-5.82,2,1.64,3.93,3.51,5.76,5.34,1.81,1.85,3.66,3.8,5.28,5.82h0Z"/>
    <path d="M147.3,135.22c-2.25-1.27-4.48-2.78-6.6-4.26-2.1-1.51-4.27-3.1-6.21-4.81,2.25,1.27,4.48,2.78,6.6,4.26,2.1,1.51,4.26,3.1,6.21,4.81h0Z"/>
    <path d="M152.41,126.5c-2.44-.86-4.89-1.96-7.24-3.05-2.33-1.12-4.74-2.31-6.95-3.66,2.44.86,4.89,1.96,7.24,3.05,2.33,1.12,4.74,2.32,6.95,3.66h0Z"/>
    <path d="M59.22,90.54c-2.55-.42-5.16-1.08-7.66-1.75-2.49-.7-5.07-1.46-7.48-2.4,2.55.42,5.16,1.08,7.66,1.75,2.49.7,5.07,1.46,7.48,2.4h0Z"/>
    <path d="M155.92,117.03c-2.55-.42-5.16-1.08-7.66-1.75-2.49-.7-5.07-1.46-7.48-2.4,2.55.42,5.16,1.08,7.66,1.75,2.49.7,5.07,1.46,7.48,2.4h0Z"/>
    <path d="M57.9,97.79c-2.59.03-5.27-.17-7.85-.39-2.58-.26-5.25-.55-7.78-1.06,2.59-.03,5.27.17,7.85.39,2.58.26,5.25.56,7.78,1.06h0Z"/>
    <path d="M157.73,107.08c-2.59.03-5.27-.17-7.85-.39-2.58-.26-5.25-.55-7.78-1.06,2.59-.03,5.27.17,7.85.39,2.58.26,5.25.56,7.78,1.06h0Z"/>
    <path d="M57.87,105.16c-2.54.48-5.22.75-7.79.98-2.58.2-5.26.37-7.85.31,2.54-.48,5.22-.75,7.79-.98,2.58-.19,5.26-.36,7.85-.31h0Z"/>
    <path d="M157.77,96.98c-2.54.48-5.22.75-7.79.98-2.58.2-5.26.37-7.85.31,2.54-.48,5.22-.75,7.79-.98,2.58-.19,5.26-.36,7.85-.31h0Z"/>
    <path d="M59.1,112.43c-2.42.91-5.01,1.64-7.51,2.31-2.51.64-5.12,1.27-7.68,1.66,2.42-.91,5.01-1.64,7.51-2.31,2.51-.64,5.12-1.27,7.68-1.66h0Z"/>
    <path d="M156.08,87.02c-2.42.91-5.01,1.64-7.51,2.31-2.51.64-5.12,1.27-7.68,1.66,2.42-.91,5.01-1.64,7.51-2.31,2.51-.64,5.12-1.27,7.68-1.66h0Z"/>
    <path d="M61.58,119.37c-2.22,1.32-4.65,2.49-6.99,3.58-2.36,1.07-4.82,2.14-7.27,2.97,2.22-1.32,4.65-2.49,6.99-3.58,2.36-1.07,4.82-2.14,7.27-2.97h0Z"/>
    <path d="M65.23,125.77c-1.96,1.68-4.14,3.26-6.26,4.74-2.14,1.46-4.37,2.95-6.65,4.19,1.96-1.69,4.14-3.26,6.26-4.74,2.14-1.46,4.38-2.95,6.65-4.19h0Z"/>
    <path d="M69.94,131.44c-1.64,2-3.51,3.92-5.34,5.76-1.85,1.81-3.8,3.66-5.82,5.28,1.64-2,3.51-3.93,5.34-5.76,1.85-1.81,3.8-3.66,5.81-5.28h0Z"/>
    <path d="M75.56,136.2c-1.27,2.25-2.78,4.48-4.26,6.6-1.51,2.1-3.1,4.27-4.81,6.21,1.27-2.25,2.78-4.48,4.26-6.6,1.51-2.1,3.1-4.26,4.81-6.21h0Z"/>
    <path d="M81.92,139.93c-.86,2.44-1.96,4.89-3.05,7.24-1.12,2.33-2.31,4.74-3.66,6.95.86-2.44,1.96-4.89,3.05-7.24,1.12-2.33,2.32-4.74,3.66-6.95h0Z"/>
    <path d="M88.83,142.49c-.42,2.55-1.08,5.16-1.75,7.66-.7,2.49-1.46,5.07-2.4,7.48.42-2.55,1.08-5.16,1.75-7.66.7-2.49,1.46-5.07,2.4-7.48h0Z"/>
    <path d="M96.08,143.81c.03,2.59-.17,5.27-.39,7.85-.26,2.58-.55,5.25-1.06,7.78-.03-2.59.17-5.27.39-7.85.26-2.58.56-5.25,1.06-7.78h0Z"/>
  </g>
  <g>
    <path d="M44.78,105.09c.26-1.53-.77-12.31,0-11.65s70.34,66.38,70.34,66.38l-4.09,4.6-66.24-59.34Z"/>
    <path d="M112.12,156.25c5.75,5.13,11.5,10.27,17.25,15.4.25.77.62,2.23.31,4-.2,1.16-.59,3.34-2.46,4.31-2.08,1.08-4.38-.17-4.62-.31.15-1.59.31-3.18.46-4.77-5.34-4.52-10.68-9.03-16.01-13.55,1.69-1.69,3.39-3.39,5.08-5.08Z"/>
    <rect x="104.63" y="157.52" width="9.72" height="2.05" transform="translate(-80.04 123.86) rotate(-45)"/>
    <path d="M155.08,105.09c-.26-1.53.77-12.31,0-11.65s-70.34,66.38-70.34,66.38l4.09,4.6,66.24-59.34Z"/>
    <path d="M87.74,156.25c-5.75,5.13-11.5,10.27-17.25,15.4-.25.77-.62,2.23-.31,4,.2,1.16.59,3.34,2.46,4.31,2.08,1.08,4.38-.17,4.62-.31-.15-1.59-.31-3.18-.46-4.77,5.34-4.52,10.68-9.03,16.01-13.55-1.69-1.69-3.39-3.39-5.08-5.08Z"/>
    <rect x="85.51" y="157.52" width="9.72" height="2.05" transform="translate(42.17 334.56) rotate(-135)"/>
  </g>
  <g>
    <polygon points="99.65 177.06 99.57 177.06 99.61 177.02 99.65 177.06"/>
    <polygon points="93.54 177.06 93.52 177.08 93.5 177.06 93.54 177.06"/>
    <polygon points="96.6 174.01 96.55 174.01 96.57 173.99 96.6 174.01"/>
    <polygon points="99.65 170.97 99.59 170.97 99.62 170.94 99.65 170.97"/>
    <polygon points="102.69 174.01 102.62 174.01 102.66 173.98 102.69 174.01"/>
    <polygon points="99.65 183.15 99.62 183.18 99.59 183.15 99.65 183.15"/>
    <polygon points="102.69 180.11 102.67 180.11 102.68 180.1 102.69 180.11"/>
    <polygon points="99.65 177.06 99.57 177.06 99.61 177.02 99.65 177.06"/>
    <line x1="99.61" y1="183.17" x2="99.59" y2="183.15"/>
    <line x1="93.52" y1="177.08" x2="93.5" y2="177.06"/>
    <line x1="99.65" y1="170.97" x2="99.64" y2="170.96"/>
    <line x1="102.69" y1="174.01" x2="102.66" y2="173.98"/>
    <line x1="96.59" y1="174.01" x2="96.58" y2="174.01"/>
    <line x1="99.64" y1="170.96" x2="99.63" y2="170.97"/>
    <line x1="99.63" y1="183.15" x2="99.61" y2="183.17"/>
    <path d="M105.74,177.06l-3.05,3.05h6.09l-3.05-3.05ZM105.73,177.05l3.04-3.04h-6.07l3.04,3.04ZM99.65,183.15h6.09l-3.05-3.05-3.05,3.05ZM105.66,170.97h-6.02l3.01,3.01,3.01-3.01ZM96.88,177.06l2.77,2.77,2.77-2.77-2.77-2.77-2.77,2.77ZM93.56,170.97l3.02,3.02.02.02h0s3.05-3.04,3.05-3.04h-6.09ZM96.6,174.01h-6.15l3.05,3.05h.04l-.02.02-3.03,3.03h6.05s0,0,0,0h-.02l-3.05,3.05h6.17l-6.09-6.09,3.05-3.05Z"/>
    <polygon points="102.86 186.42 96.36 186.42 99.61 183.17 102.86 186.42"/>
    <polygon points="96.38 167.7 102.89 167.7 99.64 170.96 96.38 167.7"/>
    <rect x="97.69" y="175.1" width="3.92" height="3.92" transform="translate(-96.03 122.39) rotate(-45.02)"/>
    <polygon points="102.68 180.1 102.69 180.11 102.67 180.11 102.68 180.1"/>
    <polygon points="102.66 173.98 102.69 174.01 102.62 174.01 102.66 173.98"/>
    <rect x="97.69" y="175.1" width="3.92" height="3.92" transform="translate(-96.01 122.32) rotate(-45)"/>
  </g>
  <g>
    <polygon points="100.41 55.56 100.31 55.56 100.36 55.51 100.41 55.56"/>
    <polygon points="96.11 51.26 96.04 51.26 96.07 51.22 96.11 51.26"/>
    <polygon points="100.41 46.96 100.33 46.96 100.37 46.92 100.41 46.96"/>
    <polygon points="104.71 51.26 104.61 51.26 104.66 51.21 104.66 51.21 104.71 51.26"/>
    <polygon points="100.41 64.16 100.37 64.2 100.33 64.16 100.41 64.16"/>
    <polygon points="104.71 59.86 104.68 59.86 104.7 59.84 104.71 59.86"/>
    <polygon points="109.01 55.56 108.98 55.56 109 55.54 109.01 55.56"/>
    <polygon points="100.41 55.56 100.31 55.56 100.36 55.51 100.41 55.56"/>
    <line x1="100.36" y1="64.18" x2="100.33" y2="64.16"/>
    <line x1="100.41" y1="46.96" x2="100.4" y2="46.95"/>
    <line x1="104.71" y1="51.26" x2="104.66" y2="51.21"/>
    <line x1="109.01" y1="55.56" x2="109" y2="55.54"/>
    <line x1="96.1" y1="51.25" x2="96.09" y2="51.26"/>
    <line x1="100.4" y1="46.95" x2="100.39" y2="46.96"/>
    <line x1="100.39" y1="64.16" x2="100.36" y2="64.18"/>
    <path d="M109.01,55.56l-4.3,4.3h8.6l-4.3-4.3ZM104.71,51.26l4.29,4.29,4.29-4.29h-8.57ZM100.41,64.16h8.6l-4.3-4.3-4.3,4.3ZM104.66,51.21l4.25-4.25h-8.49l4.25,4.25h0ZM96.5,55.56l3.91,3.91,3.91-3.91-3.91-3.91-3.91,3.91ZM100.41,46.96h-8.6l4.26,4.26.03.03h.01s-8.68.01-8.68.01l4.3,4.3h.05l-4.3,4.3h8.53s.01,0,.01,0h-.03l-4.3,4.3h8.7l-8.6-8.6,8.6-8.6Z"/>
    <polygon points="104.95 68.77 95.77 68.77 100.36 64.18 104.95 68.77"/>
    <polygon points="95.8 42.35 105 42.35 100.4 46.95 95.8 42.35"/>
    <rect x="97.65" y="52.79" width="5.53" height="5.53" transform="translate(-9.88 87.28) rotate(-45)"/>
    <polygon points="104.71 51.26 104.61 51.26 104.66 51.21 104.71 51.26"/>
    <polygon points="104.7 59.84 104.71 59.86 104.68 59.86 104.7 59.84"/>
    <polygon points="109.01 55.56 108.98 55.56 109 55.54 109.01 55.56"/>
    <rect x="97.65" y="52.79" width="5.53" height="5.53" transform="translate(-9.88 87.28) rotate(-45)"/>
  </g>
  <g>
    <polygon points="119.99 65.54 119.91 65.54 119.95 65.51 119.99 65.54"/>
    <polygon points="116.86 62.41 116.8 62.41 116.83 62.38 116.86 62.41"/>
    <polygon points="119.99 59.27 119.93 59.27 119.96 59.25 119.99 59.27"/>
    <polygon points="123.12 62.41 123.05 62.41 123.09 62.37 123.09 62.37 123.12 62.41"/>
    <polygon points="119.99 71.81 119.96 71.84 119.93 71.81 119.99 71.81"/>
    <polygon points="123.13 68.68 123.11 68.68 123.12 68.67 123.13 68.68"/>
    <polygon points="126.26 65.54 126.24 65.54 126.25 65.53 126.26 65.54"/>
    <polygon points="119.99 65.54 119.91 65.54 119.95 65.51 119.99 65.54"/>
    <line x1="119.95" y1="71.83" x2="119.93" y2="71.81"/>
    <line x1="119.99" y1="59.27" x2="119.98" y2="59.26"/>
    <line x1="123.13" y1="62.41" x2="123.09" y2="62.37"/>
    <line x1="126.26" y1="65.54" x2="126.25" y2="65.53"/>
    <line x1="116.85" y1="62.4" x2="116.84" y2="62.41"/>
    <line x1="119.98" y1="59.26" x2="119.97" y2="59.27"/>
    <line x1="119.97" y1="71.81" x2="119.95" y2="71.83"/>
    <path d="M126.26,65.54l-3.13,3.14h6.27l-3.14-3.14ZM123.12,62.41l3.13,3.13,3.13-3.13h-6.25ZM119.99,71.81h6.27l-3.13-3.14-3.14,3.14ZM123.09,62.37l3.1-3.1h-6.19l3.1,3.1h0ZM117.14,65.54l2.85,2.85,2.85-2.85-2.85-2.85-2.85,2.85ZM119.99,59.27h-6.27l3.11,3.11.02.02h0s-6.33,0-6.33,0l3.14,3.14h.04l-3.14,3.14h6.22s0,0,0,0h-.02l-3.14,3.14h6.35l-6.27-6.27,6.27-6.27Z"/>
    <polygon points="123.3 75.18 116.61 75.18 119.95 71.83 123.3 75.18"/>
    <polygon points="116.63 55.91 123.33 55.91 119.98 59.26 116.63 55.91"/>
    <rect x="117.97" y="63.53" width="4.03" height="4.03" transform="translate(-11.2 104.04) rotate(-45)"/>
    <polygon points="123.12 62.41 123.05 62.41 123.09 62.37 123.12 62.41"/>
    <polygon points="123.12 68.67 123.13 68.68 123.11 68.68 123.12 68.67"/>
    <polygon points="126.26 65.54 126.24 65.54 126.25 65.53 126.26 65.54"/>
    <rect x="117.97" y="63.53" width="4.03" height="4.03" transform="translate(-11.2 104.04) rotate(-45)"/>
  </g>
  <g>
    <polygon points="79.22 65.54 79.14 65.54 79.18 65.51 79.22 65.54"/>
    <polygon points="76.08 62.41 76.02 62.41 76.05 62.38 76.08 62.41"/>
    <polygon points="79.22 59.27 79.16 59.27 79.19 59.25 79.22 59.27"/>
    <polygon points="82.35 62.41 82.27 62.41 82.31 62.37 82.31 62.37 82.35 62.41"/>
    <polygon points="79.22 71.81 79.19 71.84 79.16 71.81 79.22 71.81"/>
    <polygon points="82.35 68.68 82.33 68.68 82.34 68.67 82.35 68.68"/>
    <polygon points="85.48 65.54 85.47 65.54 85.48 65.53 85.48 65.54"/>
    <polygon points="79.22 65.54 79.14 65.54 79.18 65.51 79.22 65.54"/>
    <line x1="79.18" y1="71.83" x2="79.16" y2="71.81"/>
    <line x1="79.22" y1="59.27" x2="79.21" y2="59.26"/>
    <line x1="82.35" y1="62.41" x2="82.31" y2="62.37"/>
    <line x1="85.49" y1="65.54" x2="85.48" y2="65.53"/>
    <line x1="76.07" y1="62.4" x2="76.06" y2="62.41"/>
    <line x1="79.21" y1="59.26" x2="79.2" y2="59.27"/>
    <line x1="79.2" y1="71.81" x2="79.18" y2="71.83"/>
    <path d="M85.48,65.54l-3.13,3.14h6.27l-3.14-3.14ZM82.35,62.41l3.13,3.13,3.13-3.13h-6.25ZM79.22,71.81h6.27l-3.13-3.14-3.14,3.14ZM82.31,62.37l3.1-3.1h-6.19l3.1,3.1h0ZM76.37,65.54l2.85,2.85,2.85-2.85-2.85-2.85-2.85,2.85ZM79.22,59.27h-6.27l3.11,3.11.02.02h0s-6.33,0-6.33,0l3.14,3.14h.04l-3.14,3.14h6.22s0,0,0,0h-.02l-3.14,3.14h6.35l-6.27-6.27,6.27-6.27Z"/>
    <polygon points="82.52 75.18 75.83 75.18 79.18 71.83 82.52 75.18"/>
    <polygon points="75.85 55.91 82.56 55.91 79.21 59.26 75.85 55.91"/>
    <rect x="77.2" y="63.53" width="4.03" height="4.03" transform="translate(-23.14 75.21) rotate(-45)"/>
    <polygon points="82.35 62.41 82.27 62.41 82.31 62.37 82.35 62.41"/>
    <polygon points="82.34 68.67 82.35 68.68 82.33 68.68 82.34 68.67"/>
    <polygon points="85.48 65.54 85.47 65.54 85.48 65.53 85.48 65.54"/>
    <rect x="77.2" y="63.53" width="4.03" height="4.03" transform="translate(-23.14 75.21) rotate(-45)"/>
  </g>
  <g>
    <path d="M107.56,116.11c-2.91-.41-4.77,2.25-7.81,1.96-2.08-.19-4.06-2.23-6.26-1.97-4.21.51-3.79,7.32-1.81,9.88.19.26,1.19,1.25,1.43,1.35.47.19,2.2-.61,2.84-.77,3.06-.76,5.28-.85,8.37-.15.63.14,3.08,1.06,3.4,1.01.58-.09,1.75-1.61,2.02-2.15,1.26-2.52,1.49-8.65-2.18-9.17ZM96.45,123.76c-1.59-.89-4.28-1.69-4.16-3.93.04-.84.54-1.66,1.47-1.62,1.68.07,3.3,4.07,2.69,5.55ZM108.27,121.05c-.61,1.19-2.01,1.51-3.04,2.04-.2.11-.98.8-1.09.67-.13-1.67.6-4.57,2.2-5.41,1.67-.88,2.6,1.4,1.93,2.7Z"/>
    <path d="M84.22,95.15c.08.01.23.19.38.16-1.28,3.91,1.58,7.81,5.84,6.53.37-.11.67-.57,1.23-.38l-1.29,1.95c-1.14.79-2.25.92-3.63.82,1,1,3.56.57,4.62-.23.73-.54.77-1.27,1.38-1.78.15,4.49-1.17,8.9-3.08,12.92-2.95-2.53-5.22-5.85-6.57-9.5-1.28-3.45-1.69-6.83-1.42-10.5.78.09,1.79-.12,2.54,0Z"/>
    <path d="M111.45,104.23c-.54-.14-1.76-1.41-2.08-1.92-.7-1.1,1.1-.02,1.63.06,3.81.56,6.41-3.64,5.45-7.07.75-.25,1.53-.13,2.31-.16-.09.72.25,1.4.3,2.08.39,5.15-3.1,12.62-6.53,16.38-.27.3-1.01,1.15-1.37,1.09-.15-.02-1.3-2.09-1.45-2.42-.8-1.78-1.46-4.67-1.7-6.61-.13-1.04-.17-2.11-.02-3.14.48.33.62,1.1,1.06,1.47.29.24.56.22.82.38.13.07.1.31.4.39.79.21,2.28.08,3.06-.2.25-.09.41.08.34-.35-.62-.1-1.68.14-2.23,0Z"/>
    <path d="M136.91,71.15c.46-.09.28.22.33.51,1.72,9.11-3.55,15.25-12.02,17.57-.42.11-2.63.7-2.83.66-.52-.1-1.95-2.57-1.79-2.73,2.94,1.14,6.48-.33,8.92-2.08-2.95.8-5.89,1.77-8.97,1.93-.28-.07-.7-2.39-.72-2.78,7.92.27,17.1-4.1,17.08-13.08Z"/>
    <path d="M63.68,71.3c-.3,9.29,8.98,12.61,16.77,12.77,0,1.05.07,2.11-.4,3.09-3.33-.27-6.57-1.09-9.6-2.47.14.23.58.5.82.64,2.46,1.45,5.48,2.32,8.26,2.89.2.19-1.15,1.95-1.62,2-.58.06-4.14-1.38-4.9-1.71-7.06-3.15-10.99-8.72-9.64-16.68.05-.29-.17-.62.31-.53Z"/>
    <path d="M137.83,96.69l-.62.68c-4.95,4.1-13.91,4.98-16.91-1.76l3.35,2.11c.78.36,2.86,1.08,3.65.97.13-.02.1-.28.08-.31-.05-.06-1.1-.61-1.39-.85-.16-.13-1.25-1.15-1.07-1.31.94.22,1.81.67,2.76.85,1.93.37,3.91.21,5.85.07.08-.36-.05-.25-.2-.34-.55-.36-1.44-.63-2.09-.99-1.83-1.02-3.45-2.22-5.03-3.59l-.07-.31c2.39-1.08,3.76.71,5.64,1.81s3.91,2.24,6.05,2.95Z"/>
    <path d="M92.76,129c3.22-.59,6.15-1.11,9.47-.93.6.03,5.76.7,5.76,1.16-3.72,3.65-10.6,3.9-14.6.6-.11-.09-.82-.68-.63-.83Z"/>
    <path d="M63.68,71.3c.04-1.3.4-2.83,1.23-3.85-.45,3.59-.17,7.14,2.23,10,2.64,3.15,7.42,4.52,11.39,4.92,1.43.14,1.97-.59,2.04,1.37,0,.23-.12.31-.12.33-7.78-.16-17.07-3.48-16.77-12.77Z"/>
    <path d="M136.91,71.15c.02,8.97-9.16,13.35-17.08,13.08-.03-.67.05-1.21.33-1.82,6.06-.18,13.14-1.95,15.21-8.4.18-.58.61-2.09.61-2.62v-3.23s-.34-.95.22-.22c.48.63.7,2.43.7,3.22Z"/>
    <path d="M87.22,95.92c.07.38-.24.65-.3,1-.31,1.95,1.74,3.36,3.37,2.14.42-.31.66-1.24,1.24-.61s-1.12,2.05-1.81,2.19c-1.95.41-3.92-1.19-4-3.16,0-.24.17-1.47.26-1.63.16-.28.96,0,1.23.06Z"/>
    <path d="M114.59,95.62c.9,2.6-.87,5.36-3.75,4.9-.67-.11-2.18-1.07-1.92-1.89.06-.18.5-.43.67-.42.09,0,.51.98,1.31,1.17,2.28.55,3.42-1.71,2.63-3.62l1.06-.14Z"/>
    <path d="M67.37,96.69c-.31.4,1.53.72,1.78.75,2.47.26,4.69-.35,6.91-1.37-.6,1.29-2.21,2.04-3.42,2.73-.34.19-.34.23.04.19,1.39-.15,2.88-.69,4.16-1.23l3-1.85c-1.55,3.76-6.1,5.12-9.89,4.58-1.47-.21-6.22-2.37-7.04-3.58-.09-.13-.22-.15-.15-.39,1.58-.35,3.19-1.14,4.62-1.92.78-.42,4.68-3.08,5.02-3.12.3-.03,1.68.43,1.9.66.16.16.22.14.09.38-.53,1.02-4.11,2.97-5.26,3.51-.32.15-1.69.57-1.75.64Z"/>
    <path d="M94.29,77.15l-3.54.69-2.92,1.15c1.92-.04,3.67-.26,5.6.02.29.04,4.27,1.02,3.79,1.36-1.81-.18-3.63-.17-5.44.02-.16.02-.72.06-.71.29,3.23.61,6.68,2.25,8.59,5.03.25.36.49,1.56.83.93.3-.56.46-1.17.89-1.73,1.62-2.1,5.41-3.78,8-4.08.03-.39.04-.26-.23-.3-1.84-.27-3.41-.38-5.27-.2-.17.02-.52.18-.49-.11,2.71-1.38,5.66-1.39,8.61-1.23-.36-.45-1.25-.7-1.81-.88-.75-.24-1.68-.48-2.46-.62-.48-.09-1.3.12-1.58-.34,4.39-.67,8.7.53,12.92,1.54.14.54-.45.78-.61,1.04-1.61,2.58-1.6,4.81-.93,7.73-3.33-.07-6.7,1.38-8.92,3.85,2.98-.92,7.18-3.09,10-.85,1.09.87,1.8,2.26,2.46,3.46l-6.31-.15c.14-.21.65-.46.89-.57.78-.35,1.63-.43,2.34-.89-2.22-.29-4.38.83-6.26,1.9-2.12,1.21-4.25,3.29-6.31,4.31-1.44.72-2.23.19-3.2-.91l-.85-1.37c-.05.78.03,1.55.23,2.31.1.38.67,1.71.89,1.95.57.63,1.97.67,2.72.35.09.56-.34.89-.54,1.39-.65,1.65-1.12,3.44-1,5.23.22.04.21-.27.26-.43.35-1.26.58-2.06,1.22-3.25.56-1.05,1.26-2.22,2.21-2.94.22.19-.23,1.57-.28,1.94-.44,2.91-.97,5.78-.25,8.67.23.92.66,1.76.85,2.69-1.03-.09-1.88-.12-2.89.19-1.55.47-3.06,2.25-4.67,2.11-1.15-.1-2.47-1.43-3.61-1.89-1.23-.5-2.31-.65-3.59-.25.42-1.16.99-2.52,1.19-3.73.55-3.23-.57-6.38-.89-9.58.97.77,1.5,1.93,2.28,2.87l1.41,3.59c-.03-.47.06-.98,0-1.45-.05-.41-.26-1.34-.37-1.79-.27-1.17-.78-2.25-1.16-3.38,1.88.95,3.16-.56,3.65-2.28.09-.3.43-2.23.35-2.34-.22-.29-.34.22-.4.29-1.23,1.67-1.77,3.06-4.11,1.83-2.03-1.07-3.77-2.9-5.75-4.09-1.88-1.13-4.11-2.15-6.35-1.95,1.05.46,2.1.6,3.08,1.24.18.12.4-.04.3.38l-6.46-.46c-.05-.23.05-.36.14-.55.12-.24,1.84-2.48,2.01-2.6.83-.59,3.81-.78,4.84-.69,2.27.2,4.19,1.46,6.23,2.3.24-.23-1.06-1.17-1.24-1.29-2.38-1.69-5.67-3.19-8.6-3.32.78-3-.07-5.77-1.54-8.38.04-.18,2.07-.72,2.43-.81,3.38-.84,6.88-1.17,10.34-.97ZM110.3,86.69c-2.43-.07-5.1,1.08-7.18,2.28-.5.29-2.62,1.87-2.87,1.84-2.86-2.07-6.05-3.94-9.64-4.27.96.73,2.07,1.25,3.06,1.93,1.58,1.1,3.38,2.67,4.62,4.14.36.43,1.77,2.65,1.93,2.69.21.05.26-.13.36-.25,2.59-3.48,3.81-5.17,7.77-7.31.64-.35,1.47-.55,1.95-1.05ZM93.14,91.92v.15c.1-.05.1-.1,0-.15Z"/>
    <path d="M110.3,86.69c-.48.5-1.31.7-1.95,1.05-3.95,2.14-5.18,3.83-7.77,7.31-.1.13-.15.31-.36.25-.16-.04-1.57-2.26-1.93-2.69-1.24-1.47-3.04-3.04-4.62-4.14-.99-.69-2.1-1.2-3.06-1.93,3.59.34,6.78,2.21,9.64,4.27.25.02,2.38-1.55,2.87-1.84,2.08-1.2,4.75-2.35,7.18-2.28Z"/>
    <path d="M93.14,91.92c.1.05.1.1,0,.15v-.15Z"/>
  </g>
  <polygon points="45.81 105.08 45.34 99.16 79.93 135.15 45.81 105.08"/>
  <polygon points="154.37 105.12 154.88 98.71 117.43 137.68 154.37 105.12"/>
  <path class="cls-1" d="M72.45,91.99c-1.27.94-2.84,1.96-4.7,2.91-1.53.78-2.97,1.36-4.26,1.79.97.04,3.7.04,6.27-1.79,1.38-.98,2.22-2.13,2.69-2.91Z"/>
  <path class="cls-1" d="M64.83,97.59c.03-.12,1.16.31,3.58.45,2.14.12,3.3-.11,3.81-.22.86-.2,1.55-.46,2.02-.67-.66.6-1.78,1.45-3.36,1.79-3.19.69-6.1-1.15-6.05-1.34Z"/>
  <path class="cls-1" d="M70.66,99.83c0,.11,2.03.64,4.26,0,1.55-.44,2.59-1.28,3.14-1.79-1.13.6-2.72,1.26-4.7,1.57-1.59.24-2.69.14-2.69.22Z"/>
  <path class="cls-2" d="M122.62,98.04c-.08.23,1.45,1.1,3.14,1.57,3.33.93,6.15-.02,7.39-.45.94-.33,2.32-.92,3.81-2.02-1.25.68-3.08,1.48-5.38,1.79-4.83.65-8.84-1.26-8.96-.9Z"/>
  <path class="cls-5" d="M97.31,102.52c.47.58,1.94,2.5,2.02,5.38.08,3.15-1.57,5.29-2.02,5.82.97.45,1.94.9,2.91,1.34.9-.52,1.79-1.05,2.69-1.57-.65-.58-1.52-1.53-2.02-2.91-1.45-4.01,1.56-7.78,1.79-8.06-.82.3-1.64.6-2.46.9l-2.91-.9Z"/>
  <path class="cls-6" d="M83.2,79.23c2.24-1.12,3.44-1.57,3.58-1.34.11.17-.34.69-1.34,1.57,1.87.07,3.73.15,5.6.22-1.34.3-2.69.6-4.03.9,1.22.01,3.56.21,6.05,1.57,1.72.94,2.88,2.09,3.58,2.91l-8.06-2.69c1.87,1.12,3.73,2.24,5.6,3.36-2.31-.6-4.63-1.19-6.94-1.79.52.67,1.05,1.34,1.57,2.02-1.05-.3-2.09-.6-3.14-.9l2.69,2.02-4.03-.67c-.37-2.39-.75-4.78-1.12-7.17Z"/>
  <path class="cls-4" d="M117.25,79.23c-2.24-1.12-3.44-1.57-3.58-1.34-.11.17.34.69,1.34,1.57-1.87.07-3.73.15-5.6.22,1.34.3,2.69.6,4.03.9-1.22.01-3.56.21-6.05,1.57-1.72.94-2.88,2.09-3.58,2.91l8.06-2.69c-1.87,1.12-3.73,2.24-5.6,3.36,2.31-.6,4.63-1.19,6.94-1.79-.52.67-1.05,1.34-1.57,2.02,1.05-.3,2.09-.6,3.14-.9l-2.69,2.02,4.03-.67c.37-2.39.75-4.78,1.12-7.17Z"/>
</svg>