<?xml version="1.0" encoding="UTF-8"?>
<svg id="Layer_1" data-name="Layer 1" xmlns="http://www.w3.org/2000/svg" viewBox="0 0 200 200">
  <path d="M114.25,10.26v4.56c38.9,9.22,53.92,54.41,53.92,88.15s-15.25,74.14-53.92,82.3v4.5c47.97-5.21,79.41-36.61,79.41-86.8S162.68,16.34,114.25,10.26ZM6.34,102.71c0,50.43,30.95,82.1,79.41,87.11v-4.32c-39.14-7.55-53.92-47.81-53.92-82.54S45.88,23.06,85.75,14.52v-4.34C37.28,16.02,6.34,52.51,6.34,102.71Z"/>
  <g>
    <path d="M87.03,140.39c1.54.97,3.15,1.63,4.81,1.94h-44.24c-.14,0-.27-.03-.39-.08,1.86-.21,3.66-.85,5.37-1.86,9.11-5.41,15.72-21.5,15.72-40.5s-6.44-34.67-15.37-40.28c-1.54-.97-3.15-1.63-4.81-1.94h44.32c.13,0,.25.03.37.07-1.88.2-3.7.85-5.43,1.87-9.11,5.41-15.72,21.5-15.72,40.5s6.44,34.67,15.37,40.28Z"/>
    <path d="M151.77,142.2c-.14.09-.31.13-.49.13h-43.72c1.66-.32,3.27-.98,4.81-1.94,8.93-5.61,15.37-21.53,15.37-40.28s-6.61-35.09-15.72-40.5c-1.89-1.12-3.89-1.79-5.96-1.92.07-.02.14-.03.22-.03h44.99s0,0-.01,0c-1.66.32-3.27.98-4.8,1.94-8.93,5.61-15.37,21.53-15.37,40.28s6.61,35.09,15.72,40.5c1.59.94,3.25,1.56,4.96,1.81Z"/>
    <path d="M93.42,58.64c0,.54-.43.97-.97.97h-44.93c-.54,0-.97-.43-.97-.97,0-.27.11-.51.29-.69.17-.18.42-.29.69-.29h44.93c.13,0,.25.03.37.07.36.14.6.49.6.9Z"/>
    <path d="M93.51,141.36c0,.54-.43.97-.97.97h-44.93c-.14,0-.27-.03-.39-.08-.35-.15-.59-.49-.59-.89,0-.27.11-.51.29-.69.17-.18.42-.29.69-.29h44.93c.54,0,.97.43.97.97Z"/>
    <path d="M152.17,58.64c0,.27-.11.51-.29.69-.17.18-.42.29-.68.29h-44.93c-.54,0-.97-.43-.97-.97,0-.27.11-.51.29-.69.13-.13.29-.22.47-.26.07-.02.14-.03.22-.03h44.93s.04,0,.05,0c.51.03.92.45.92.97Z"/>
    <path d="M152.26,141.36c0,.36-.19.67-.48.84-.14.09-.31.13-.49.13h-44.93c-.54,0-.97-.43-.97-.97,0-.27.11-.51.29-.69.17-.18.42-.29.69-.29h44.93c.54,0,.97.43.97.97Z"/>
  </g>
  <path d="M98.99,77.53l2.77,11.79c.92,3.91,3.98,6.97,7.89,7.89l11.79,2.77-11.79,2.77c-3.91.92-6.97,3.98-7.89,7.89l-2.77,11.79-2.77-11.79c-.92-3.91-3.98-6.97-7.89-7.89l-11.79-2.77,11.79-2.77c3.91-.92,6.97-3.98,7.89-7.89l2.77-11.79Z"/>
</svg>