<?xml version="1.0" encoding="UTF-8"?>
<svg id="Layer_1" data-name="Layer 1" xmlns="http://www.w3.org/2000/svg" viewBox="0 0 200 200">
  <path d="M99.35,189.91c-16.93,0-32.82-9.38-44.74-26.42-11.83-16.91-18.34-39.36-18.34-63.24s6.51-46.33,18.34-63.24c11.92-17.03,27.81-26.42,44.74-26.42s32.82,9.38,44.74,26.42c11.83,16.91,18.34,39.36,18.34,63.24s-6.52,46.33-18.34,63.24c-11.92,17.03-27.81,26.42-44.74,26.42ZM99.35,12.97c-33.48,0-60.73,39.16-60.73,87.3s27.24,87.3,60.73,87.3,60.73-39.16,60.73-87.3S132.83,12.97,99.35,12.97Z"/>
  <path d="M129.76,121.57c-.18-.93-.45-1.94-.9-2.77-.8-1.65-1.85-3.16-3.17-4.42-3.73-3.71-9.05-4.98-14.04-5.48-2-.18-4.01-.28-6.02-.35l-.07.3-.74,2.05c7.4-.32,14.96.71,18.86,6.23.72,1.13,1.34,2.42,1.63,3.72.55,3.32-.89,6.46-2.98,9.05-6.84,8.25-17.87,10.88-28.31,10.88l-2.8,7.73c9.42.53,18.97-1.41,26.98-6.61,6.81-4.2,13.02-11.85,11.54-20.33ZM138.05,79.51c2.88-12.81-5.2-25.92-18.7-32.04l-.48,2.14c9.77,5.66,15.2,17.03,12.64,28.44-2.56,11.41-12.34,19.37-23.59,20.31l-.48,2.14c14.82.23,27.72-8.17,30.6-20.98ZM63.26,130.07c-2.53-2.86-4.47-6.14-6.06-9.64-.86-1.91-1.63-3.88-2.39-5.89l-.71.15c.44,8.35,3.14,16.95,9.22,22.98,4.53,4.53,10.53,7.37,16.65,9.06.82.22,1.64.42,2.47.59l.71-7.42c-7.5-1.26-14.76-4.07-19.9-9.82ZM67.54,90.71c-8.56,10.12-1.66,19.58,9.83,21.78.42.08,1.28.2,1.7.25,2.19.33,4.42.35,6.65.22l.49-5.15c-2.28-.24-4.54-.61-6.79-1.21-3.54-.96-10.05-3.4-9.43-7.91,1.2-4.86,4.88-8.35,9-11.38,2.57,3.12,5.82,5.86,9.6,8.03l.56-2.5c-2.8-2.15-5.12-4.81-6.86-7.81-.58-1.01-1.1-2.05-1.54-3.13-1.98-4.78-2.56-10.16-1.34-15.56,2.3-10.23,10.39-17.68,20.13-19.79l.56-2.5c-13.29,1.05-24.4,9.09-27.04,20.86-1.47,6.54-.08,13.16,3.43,18.89-3.39,1.73-6.5,3.94-8.96,6.9Z"/>
  <path d="M116.75,40.36l-15.77,70.23-17.31,54.6c-.35,1.11-1.78.79-1.62-.36l7.69-56.76,15.77-70.23c.7-3.1,3.78-5.05,6.88-4.36,1.55.35,2.82,1.29,3.6,2.54.79,1.24,1.1,2.79.75,4.34Z"/>
  <path d="M100,196.59c-18.74,0-36.34-10.1-49.54-28.43-13.12-18.22-20.35-42.42-20.35-68.15s7.23-49.93,20.35-68.15C63.66,13.51,81.26,3.41,100,3.41s36.34,10.1,49.54,28.43c13.12,18.22,20.35,42.42,20.35,68.15s-7.23,49.93-20.35,68.15c-13.21,18.34-30.8,28.43-49.54,28.43ZM100,5.77c-37.24,0-67.53,42.27-67.53,94.23s30.3,94.23,67.53,94.23,67.53-42.27,67.53-94.23S137.24,5.77,100,5.77Z"/>
</svg>