<?xml version="1.0" encoding="UTF-8"?>
<svg id="Layer_1" data-name="Layer 1" xmlns="http://www.w3.org/2000/svg" viewBox="0 0 200 200">
  <path d="M191.31,109.52c-.42-8.01-2.95-15.85-7.32-22.58-2.18-3.37-4.81-6.45-7.79-9.15-2.9-2.62-6.24-6.31-10.28-6.82-.87-.11-1.77-.07-2.71.15-2.13.52-4,1.78-5.86,2.91-2.66,1.61-5.46,3.03-8.34,4.22-5.65,2.34-11.66,3.84-17.75,4.4-1.36.12-2.79.19-4.01-.41-2.29-1.11-2.84-4.72-.9-6.37.69-.59,1.56-.9,2.42-1.2,3.81-1.33,7.48-2.52,10.95-4.6,4.05-2.43,7.72-5.77,10.85-9.29,4.98-5.59,3.12-11.38.72-17.7-1.45-3.83-3.43-7.46-5.85-10.77-4.81-6.58-11.34-11.87-18.79-15.17-9.82-4.36-20.94-5.05-31.25-2.06,0,0-75.95,22.1-75.95,22.1-2.98.87-3.92,4.62-1.69,6.79l41.03,39.98c1.8,1.76,1.85,4.66.08,6.46l-2.74,2.82c-1.76,1.8-4.65,1.84-6.46.08L15.42,59.95c-2.98-2.9-7.87.03-6.72,4.03l35.22,121.08c.63,2.15,2.87,3.38,5.02,2.76l109.28-31.78c20.49-5.95,34.2-25.2,33.09-46.51ZM139.84,56.77c-3.69,0-3.68-5.73,0-5.73s3.68,5.73,0,5.73ZM135.35,37.74c3.69,0,3.68,5.73,0,5.73s-3.68-5.73,0-5.73ZM123.25,60.66c-3.69,0-3.68-5.73,0-5.73s3.68,5.73,0,5.73ZM119.11,31.66c3.89,0,3.88,6.03,0,6.03s-3.88-6.03,0-6.03ZM99.7,31.4c3.89,0,3.88,6.03,0,6.03s-3.88-6.03,0-6.03ZM95.94,160.55c-.27.01-.54.02-.82.02-16.35.15-24.72-16.64-29.11-25.46-8.19-16.43-8.55-34.04-6.78-34.79,2.46-1.01,4.93,31.69,30.54,48.33,2.57,1.67,5.14,3.03,7.63,4.13,3.95,1.76,2.85,7.59-1.47,7.77ZM117.61,148.86c-2.88,2.87-18.38-6.96-28.85-17.45-6.27-6.27-10.79-12.82-14.06-18.69-1.88-3.36,1.55-7.2,5.1-5.71,6.23,2.6,13.2,6.48,19.78,12.39,11.99,10.74,20.89,26.61,18.03,29.46ZM128.49,127.16c-.08,4.32-5.87,5.56-7.73,1.66-1.17-2.46-2.6-5-4.34-7.53-17.28-25.18-50.04-26.8-49.09-29.28.7-1.8,18.31-1.88,34.94,5.88,8.94,4.16,25.93,12.08,26.21,28.43,0,.28,0,.56,0,.83ZM156.7,92.29c-3.69,0-3.68-5.72,0-5.72s3.68,5.72,0,5.72ZM163.2,131.75c-3.69,0-3.68-5.72,0-5.72s3.68,5.72,0,5.72ZM164.36,109.03c-3.68,0-3.68-5.73,0-5.73s3.68,5.73,0,5.73ZM166.88,85.59c-3.69,0-3.68-5.72,0-5.72s3.68,5.72,0,5.72ZM178.05,94.25c-.25-.28-.42-.6-.51-.98-.08-.29-.17-.57-.25-.86-.13-.51-.13-1.02,0-1.52.1-.23.19-.46.29-.68.26-.43.6-.78,1.03-1.03.23-.1.46-.19.68-.29.38-.12.76-.14,1.14-.05.38.02.74.13,1.07.34.33.18.6.42.8.74.26.27.43.6.51.98.09.29.17.57.25.86.14.51.14,1.02,0,1.52-.1.23-.19.46-.29.68-.26.43-.6.77-1.03,1.03-.23.1-.46.19-.68.29-.38.12-.76.14-1.14.05-.38-.02-.74-.13-1.07-.34-.34-.18-.6-.43-.8-.74ZM184.8,112.62c-.02.38-.13.74-.34,1.06-.18.34-.42.6-.74.8-.27.25-.6.42-.97.51-.1.03-.19.06-.29.09-.51.13-1.02.13-1.52,0-.22-.1-.45-.19-.68-.29-.43-.26-.78-.6-1.03-1.03-.1-.23-.19-.46-.29-.68-.12-.38-.14-.76-.05-1.14.02-.38.13-.74.34-1.07.18-.33.42-.6.74-.8.27-.26.6-.43.97-.51.1-.03.19-.06.29-.09.51-.14,1.02-.14,1.52,0,.22.1.45.19.68.29.43.25.78.59,1.03,1.03.1.23.19.46.29.68.12.38.14.76.05,1.14Z"/>
</svg>