<?xml version="1.0" encoding="UTF-8"?>
<svg id="Layer_1" data-name="Layer 1" xmlns="http://www.w3.org/2000/svg" viewBox="0 0 200 200">
  <g>
    <path d="M129.42,120.34c-.54-.23-.96-.57-1.27-1-.31-.43-.46-.93-.46-1.51h1.75c.04.43.21.79.51,1.06.3.28.73.42,1.27.42s1.01-.14,1.32-.41c.32-.27.47-.63.47-1.06,0-.34-.1-.61-.29-.82-.2-.21-.44-.37-.73-.49-.29-.12-.7-.24-1.22-.37-.65-.17-1.18-.35-1.59-.53-.41-.18-.76-.45-1.04-.83-.29-.37-.43-.87-.43-1.5,0-.58.14-1.08.43-1.51.29-.43.69-.76,1.21-.99s1.12-.35,1.8-.35c.97,0,1.76.24,2.38.73s.96,1.15,1.03,1.99h-1.81c-.03-.36-.2-.68-.52-.93-.32-.26-.73-.39-1.25-.39-.47,0-.85.12-1.15.36s-.45.58-.45,1.04c0,.31.09.56.28.76.19.2.42.35.71.47.29.12.68.24,1.18.37.66.18,1.2.36,1.62.55.42.18.77.46,1.06.84s.44.88.44,1.52c0,.51-.14.99-.41,1.44-.27.45-.67.81-1.19,1.09-.52.27-1.14.41-1.85.41-.67,0-1.28-.12-1.81-.35Z"/>
    <path d="M145.54,118.55h-4.19l-.72,2.04h-1.71l3.58-10.01h1.9l3.58,10.01h-1.73l-.72-2.04ZM145.08,117.22l-1.63-4.65-1.64,4.65h3.26Z"/>
    <path d="M154.07,119.27h3.38v1.32h-5.02v-10h1.64v8.67Z"/>
    <path d="M163.7,120.04c-.78-.44-1.4-1.05-1.86-1.83-.46-.78-.68-1.66-.68-2.64s.23-1.86.68-2.63c.46-.78,1.07-1.38,1.86-1.82.78-.44,1.64-.65,2.57-.65s1.8.22,2.58.65c.78.44,1.4,1.04,1.85,1.82s.68,1.65.68,2.63-.23,1.86-.68,2.64c-.45.78-1.07,1.39-1.85,1.83-.78.44-1.64.65-2.58.65s-1.79-.22-2.57-.65ZM168.04,118.82c.52-.3.92-.73,1.22-1.29.29-.56.44-1.21.44-1.95s-.15-1.39-.44-1.94c-.29-.56-.7-.98-1.22-1.28-.52-.3-1.11-.45-1.77-.45s-1.25.15-1.77.45c-.52.3-.92.72-1.22,1.28-.29.56-.44,1.2-.44,1.94s.15,1.39.44,1.95c.29.56.7.99,1.22,1.29.52.3,1.11.45,1.77.45s1.25-.15,1.77-.45Z"/>
    <path d="M184.09,120.6h-1.64l-4.93-7.46v7.46h-1.64v-10.01h1.64l4.93,7.45v-7.45h1.64v10.01Z"/>
  </g>
  <g>
    <path d="M55.82,79.86h2.75v27.15h-3.05v-22.31l-8.82,11.6h-2.55l-8.78-11.6v22.31h-3.09v-27.15h2.78l10.36,13.69,10.4-13.69Z"/>
    <path d="M72.87,107.16c-7.12,0-10.4-3.36-10.4-10.52s3.29-10.52,10.4-10.52,10.44,3.36,10.44,10.52-3.33,10.52-10.44,10.52ZM72.87,88.68c-5.57,0-7.42,2.47-7.42,7.97s1.86,7.93,7.42,7.93,7.42-2.44,7.42-7.93-1.82-7.97-7.42-7.97Z"/>
    <path d="M104.85,107.01c0-1.89.04-5.8.04-7.7,0-6.19,0-10.48-7.35-10.48-6.81,0-7.27,4.22-7.27,9.94v8.24h-3.05v-20.73h3.05v3.67c1.59-3.02,4.29-3.67,7.27-3.67,6.07,0,10.4,2.63,10.4,9.01v11.72h-3.09Z"/>
    <path d="M131.8,86.94v2.28l-15.35,15.12h16.28v2.67h-20.84v-2.28l15.54-15.16h-15.54v-2.63h19.91Z"/>
    <path d="M146.31,107.16c-7.12,0-10.4-3.36-10.4-10.52s3.29-10.52,10.4-10.52,10.44,3.36,10.44,10.52-3.33,10.52-10.44,10.52ZM146.31,88.68c-5.57,0-7.42,2.47-7.42,7.97s1.86,7.93,7.42,7.93,7.42-2.44,7.42-7.93-1.82-7.97-7.42-7.97ZM144.45,83.69l1.47-4.37h2.44l-2.09,4.37h-1.82Z"/>
    <path d="M178.28,107.01c0-1.89.04-5.8.04-7.7,0-6.19,0-10.48-7.35-10.48-6.81,0-7.27,4.22-7.27,9.94v8.24h-3.05v-20.73h3.05v3.67c1.59-3.02,4.29-3.67,7.27-3.67,6.07,0,10.4,2.63,10.4,9.01v11.72h-3.09Z"/>
  </g>
  <path d="M27.43,95.02h-11.52v-15.05h2.5v13.14h9.02v1.9Z"/>
  <path d="M29.01,90.94h-1.73v-.99c-.58.78-1.46,1.11-2.45,1.11-3.25,0-4.21-1.8-4.21-4.14s.9-4.14,4.2-4.14,4.2,1.89,4.2,4.14v4.02ZM22.31,86.92c0,1.92.61,2.71,2.51,2.71s2.48-.78,2.48-2.71-.59-2.71-2.5-2.71-2.5.78-2.5,2.71Z"/>
</svg>