<?xml version="1.0" encoding="UTF-8"?>
<svg id="Layer_1" data-name="Layer 1" xmlns="http://www.w3.org/2000/svg" viewBox="0 0 200 200">
  <path d="M33.78,82.05c-1.74,1.23-4.56,2.91-8.35,3.93-1.11.3-3.28.87-6.1.88-4.74.02-8.52-1.56-10.84-2.81.7.93,1.82,2.18,3.45,3.29,4,2.72,8.21,2.62,10.59,2.57,6.26-.14,10.94-2.83,13.16-4.33-.64-1.18-1.28-2.35-1.93-3.53Z"/>
  <path d="M72.54,152.3c.85,1.97.66,2.65.52,2.94-.14.29-.36.52-.36.52,0,0-.39.42-1.04.62-11,3.41-16.45-.78-16.45-.78-.98-.75-2.46-2.14-3.66-4.5.09-.59.37-1.88,1.37-3.13,1.07-1.34,2.38-1.89,2.94-2.09,0-.05,0-.11.02-.17.59.6,1.16,1.08,1.68,1.47,4.52,3.4,9.98,3.56,14.05,2.98.08.52.46,1.04.93,2.14Z"/>
  <path d="M108.35,157.73c.32,1.08.14,1.58,0,1.83-.25.44-.69.64-.91.74-2.77,1.18-4.87,1.31-4.87,1.31-3.56.21,11.31-.46-8.83.61-1.55.08-3.12.14-4.09-.87-.5-.52-.69-1.16-.74-1.35-.02-.09-.4-1.52.39-2.83.53-.87.95-.65,1.78-1.82.4-.57.67-1.15.83-1.48.09-.2.26-.56.41-.97,1.75.49,3.91.86,6.38.84,2.92-.03,5.38-.61,7.23-1.25.36,1.41.65,2.27,1.12,2.91.33.45.95,1.17,1.31,2.35Z"/>
  <path d="M155.08,159.15c.25.55.41.68.39.98-.02.36-.28.61-.55.88-.25.23-.72.62-1.49.85-6.01.03-12.01.06-18.02.09-.03-.3-.05-.74,0-1.26.05-.53.15-1.5.78-2.4.45-.64,1-.99,1.48-1.3.87-.56,1.24-.51,1.78-1.04.24-.23.5-.57.83-1.35.38-.92.56-1.76.65-2.36,1.59.46,3.43.85,5.46,1.07,3.22.34,6.08.16,8.42-.21,0,.01,0,.03,0,.05,0,.78.41.91.39,1.6-.02.67-.4.66-.59,1.57-.17.83.01,1.55.07,1.76.14.53.39,1.08.39,1.08Z"/>
  <path d="M114.99,66.42c-1.5-6.07-4.21-10.51-6.13-13.13,4.02-1.08,9.4-2.05,15.76-1.93,10.98.22,19.48,3.62,24.34,6.04,1.7,3.19,4.69,9.87,4.55,18.74-.1,6.82-2.02,12.14-3.41,15.24-3.44-2.17-9.36-5.3-17.34-6.74-7.6-1.38-13.94-.66-17.86.09.87-3.42,2.08-10.2.09-18.3Z"/>
  <path d="M193.33,128.32c-1-1.57-2.44-2.52-2.68-2.68-.17-.1-.31-.21-.42-.26-.81-.88-1.94-2.23-3.01-4.05-1.85-3.15-2.61-6.17-3.23-9.89-.93-5.67-.5-6.64-1.14-11.91-.5-4.22-1.3-10.39-4.36-17.13-1.69-3.7-3.44-6.21-4.87-8.26-2.49-3.56-7.16-10.04-15.02-15.77,2.18,5.39,4.34,13.09,4.2,22.41-.16,10.18-3.01,18.1-5.1,22.72-5.12-3.23-13.95-7.9-25.85-10.06-11.34-2.04-20.8-.97-26.66.14,1.3-5.1,3.11-15.21.14-27.3-1.95-7.94-5.31-14-8.04-18.01-.71.05-1.61.12-2.61.1-1.49,0-3.49,0-5.34-.52-1.47-.42-2.3-.99-5.13-3.09-6.4-4.7-6.24-4.68-7.02-5.08-.67-.35-3.94-1.94-8.49-1.92-4.53.03-7.81,1.68-8.75,2.18-2.63,1.42-6.54,4.36-7.26,7.35-.07.31-.38,1.69-.92,3.84-.19.8-.36,1.45-.47,1.87-1.95,1.09-3.46,2.18-4.53,3.04-1.88,1.5-3.68,2.97-5.05,5.5-.43.76-.71,1.44-.88,1.9,0,.97-.02,1.95-.03,2.92-.93.85-2.09,1.99-3.3,3.47-.22.28-1.16,1.44-2.18,3.01-2.49,3.84-3.86,7.66-4.13,8.49-.33.95-.62,1.88-.86,2.8-.36,1.47-.62,2.94-.83,4.55-.12,1.05-.23,2.18-.31,3.41-.1,1.44-.19,2.99-.28,4.77-.02.47-.05.93-.07,1.44-.29,5.91.02,8.3.57,10.49.62,2.47,1.3,5.07,3.56,7.4,2.75,2.85,6.1,3.53,7.23,3.73,1.23.24,4.86.88,8.7-1.07,0,0,5.27-2.7,6.88-9.27.26-1.05.64-2.75.09-4.75-.31-1.11-.81-1.94-1.18-2.49.02-.4.07-1.02.29-1.73.24-.71.48-1.07.31-1.35-.22-.38-.99-.29-1.35-.26-.69.07-1,.28-2.26.86-1.56.74-1.97.85-2.25,1.4-.21.36-.33.9-.1,1.12.22.21.55-.07,1.09.05.59.1.95.57,1.26.99.14.17.59.78.78,1.71.45,1.95-.5,3.84-.81,4.48-1.16,2.3-2.97,3.41-3.41,3.65-.74.45-2.35,1.37-4.51,1.18-.57-.03-2.44-.19-3.84-1.56-.33-.33-1.5-1.57-1.69-5.1-.26-5.19,1.95-9.23,3.35-11.65,2.09-3.7,4.03-5.17,4.74-5.65,1.16-.81,2.23-1.31,3.01-1.62-.02,1.16-.03,2.32-.05,3.47.48-.88,1.42-2.32,3.09-3.25.73-.4,2.2-1.05,6-.69,3.23.29,6.19.57,9.44,2.61,4.34,2.7,6.15,6.57,6.71,7.78,2.44,5.39,1.49,10.37,1.02,12.55-.93,4.55-3.04,7.64-5.22,10.84-3.98,5.86-7.76,10.18-7.76,10.18-1.02,1.18-1.8,1.99-2.42,3.46-1.16,2.78-.21,4.3-1.61,5.96,1.37,1.07,3.09,2.2,5.24,3.13,3.08,1.35,6,1.85,8.37,1.99,0-.12,0-.26-.02-.4-.02-.4-.03-.59-.07-.86-.14-1.47.05-4.17.33-5.45.48-2.21,1.97-3.68,4.63-6.29,3.77-3.7,7.35-5.26,8.49-5.72.74-.29,1.38-.5,1.83-.64.4.66.97,1.64,1.54,2.87,1.44,3.11,1.97,5.72,2.51,8.38.35,1.82.54,3.42.9,6.64.55,4.79.03,2.47.31,4.53.02.21.05.45.07.73,1.09.05,2.25.05,3.44,0,3.42-.12,6.48-.64,9.08-1.31-.35-1.68-.48-2.94-.54-3.46-.38-3.51-.35-6.19-.31-14.75.03-4.11,1.25-8.16,1.35-12.27.02-.16.02-.73.4-1.12.29-.31.69-.4.86-.45.74-.14,1.4.12,1.54.19,3.53,1.45,7.38,2.06,10.99,3.3,5.41,1.85,5.41.02,13.33,2.13,4.86,1.3,6.38,2.4,7.43,3.58,1.64,1.83,2.13,3.86,2.84,6.74.35,1.45,1.07,4.63.52,8.56-.19,1.33-.5,2.45-1.09,4.72-.45,1.69-.76,2.59-.97,3.2,1.09.47,2.33.88,3.73,1.19,4.01.88,7.55.45,10.06-.17.02-.21,0-.45-.02-.71-.05-.71-.23-1.23-.26-1.37-.4-1.42-.1-4.94,1.02-8.97.93-3.39,1.59-5.65,3.65-7.78.54-.55,1.04-.95,1.4-1.23,3.03,2.23,5.39,4.34,7.12,6.03,2.09,2.06,3.3,3.51,5.25,5.84,1.66,2.01,2.49,3.16,3.13,4.75.52,1.31.33,1.44.92,2.68.66,1.42,1.3,2.07,1.8,3.15,1.76-.67,3.89-1.69,6.12-3.28,2.18-1.56,3.82-3.22,5.01-4.62-.42-.52-.88-.81-1.16-1.02-1.94-1.42-4.72-6.12-5.41-7.31-1.64-2.77-3.51-5.91-4.86-10.41-.88-2.85-1.19-5.74-1.83-11.51-.59-5.31-.17-4.13-.81-10.67-.21-2.11-.54-5.08-.21-9.11.05-.57.1-1.02.14-1.35.29-.12.74-.26,1.18-.09.86.31,1.09,1.63,1.18,2.11.47,2.7,1.37,5.34,1.59,8.07.14,1.71.78,4.17,2.02,9.06,1.62,6.31,2.63,8.35,4.03,10.13,1,1.28,2.02,2.2,2.73,2.77-.24.24-.6.64-.85,1.24-.45,1.07-.33,2.35.22,3.3.48.83.85.61,1.69,1.82.66.92.85,1.63.92,1.9.16.55.17,1.04.17,1.37.47-.07,1.16-.21,1.95-.55.5-.21.81-.35,1.05-.55,1.16-1.04.38-4.2-.86-6.1ZM51.96,66.76c-1.33,1-2.77.92-3.11.9,0-.19-.02-1.69,1.23-2.7.95-.78,2.26-.97,3.42-.5-.1.38-.47,1.47-1.54,2.3Z"/>
  <path d="M194.64,153.65c-.16,1.07-.5,3.35-2.29,5.35-2.36,2.66-5.58,2.97-7.31,3.13-1.47.14-2.87-.2-5.65-.88-.31-.08-.96-.25-1.17-.75-.11-.26-.07-.54-.03-.78.02-.12.08-.5.42-1.04.29-.47.45-.51.72-.88.41-.57.53-1.15.59-1.4.08-.37.09-.72.05-1.07,1.65-.25,3.76-.81,5.96-2.03,3-1.66,4.92-3.87,6.06-5.52.22.18.41.24.78.53.9.71,1.44,1.63,1.7,2.28.44,1.12.31,2.12.16,3.07Z"/>
  <path d="M47.99,84.21c-1.98,2.56-6.09,7.16-12.84,10.27-2.89,1.33-7.9,3.64-14.45,3-8.81-.87-14.49-6.52-16.27-8.45,1.57,1.08,4.02,2.53,7.28,3.53,7.86,2.43,14.54.45,16.69-.21,7.3-2.26,11.75-6.77,13.59-8.88,2,.25,4,.5,5.99.75Z"/>
  <path d="M153.52,76.14c-.1,6.82-2.02,12.14-3.41,15.24-3.44-2.17-9.36-5.3-17.34-6.74-7.6-1.38-13.94-.66-17.86.09.87-3.42,2.08-10.2.09-18.3-1.5-6.07-4.21-10.51-6.13-13.13,4.02-1.08,9.4-2.05,15.76-1.93,10.98.22,19.48,3.62,24.34,6.04,1.7,3.19,4.69,9.87,4.55,18.74Z"/>
  <path d="M153.52,76.14c-.1,6.82-2.02,12.14-3.41,15.24-3.44-2.17-9.36-5.3-17.34-6.74-7.6-1.38-13.94-.66-17.86.09.87-3.42,2.08-10.2.09-18.3-1.5-6.07-4.21-10.51-6.13-13.13,4.02-1.08,9.4-2.05,15.76-1.93,10.98.22,19.48,3.62,24.34,6.04,1.7,3.19,4.69,9.87,4.55,18.74Z"/>
  <path d="M157.56,61.28c-.9-1.82-2.52-2.85-3.61-2.32-1.09.54-1.25,2.45-.33,4.27.9,1.82,2.51,2.84,3.6,2.3,1.09-.54,1.25-2.44.35-4.25ZM156.21,63.77l-1.44-.99s.59-1.9.59-1.94l1.24,1.23-.4,1.69Z"/>
  <path d="M108.27,55.85c-.9-1.82-2.51-2.85-3.6-2.3-1.09.54-1.25,2.44-.35,4.25.9,1.82,2.51,2.85,3.61,2.32,1.07-.54,1.23-2.45.33-4.27ZM107.11,58.34s-1.44-.86-1.54-.86c-.09,0-.1-2.28-.1-2.28,0,0,1.81,1.43,1.81,1.57-.02.12-.17,1.57-.17,1.57Z"/>
  <path d="M111.64,83.68c-1.14-.43-2.64.74-3.37,2.63-.73,1.9-.4,3.79.73,4.22,1.14.45,2.64-.74,3.37-2.63.74-1.9.4-3.79-.73-4.22ZM110.93,87.85c-.1.09-1.07,1.11-1.07,1.11,0,0-.59-1.56-.64-1.57,0-.14,1.28-1.8,1.28-1.8,0,0,.52,2.18.43,2.26Z"/>
  <path d="M159.91,70.93c-.52-2.54-1.9-4.39-3.09-4.15-1.18.26-1.73,2.49-1.21,5.03.5,2.52,1.9,4.37,3.09,4.13,1.19-.24,1.73-2.49,1.21-5.01ZM158.35,73.02l-1.64-1.14s.66-2.2.66-2.21l1.44,1.4-.45,1.95Z"/>
  <path d="M111.56,65.5c-.52-2.52-1.9-4.37-3.09-4.13-1.19.22-1.75,2.49-1.23,5.01.52,2.52,1.9,4.39,3.09,4.15,1.19-.24,1.75-2.49,1.23-5.03ZM110.47,68.09s-1.71-1.35-1.83-1.35c-.09.02.24-2.96.24-2.96,0,0,2.06,2.11,2.06,2.3-.03.17-.47,2.01-.47,2.01Z"/>
  <path d="M117.8,85.59c-1-.38-2.33.62-2.96,2.26-.64,1.62-.33,3.27.69,3.65,1,.4,2.33-.61,2.97-2.25.62-1.63.31-3.27-.71-3.67ZM116.34,89.82l-.74-1.33s1.21-1.26,1.21-1.28l.5,1.43-.97,1.18Z"/>
  <path d="M150.66,94.49c-.36-1.73-1.5-2.94-2.56-2.71-1.05.21-1.64,1.78-1.3,3.49.36,1.71,1.5,2.92,2.56,2.71,1.07-.22,1.64-1.78,1.3-3.49ZM149.26,96.08l-1.19-.97.4-1.52.95,1.07-.16,1.42Z"/>
  <path d="M138.21,87.3c-1.09-.05-2.04,1.31-2.13,3.06-.09,1.75.71,3.22,1.8,3.27,1.07.05,2.02-1.31,2.13-3.06.09-1.75-.73-3.22-1.8-3.27ZM137.87,91.53l-.93-1.16s1.3-1.28,1.3-1.3l.67,1.28-1.04,1.18Z"/>
  <path d="M143.33,88.94c-1.09-.05-2.04,1.33-2.13,3.08-.09,1.75.71,3.2,1.8,3.27,1.09.05,2.02-1.33,2.13-3.06.09-1.76-.73-3.22-1.8-3.28ZM143.18,93.4l-.85-1.28.85-1.35.57,1.31-.57,1.31Z"/>
  <path d="M122.46,84.65c-1.18-.14-2.32,1.28-2.54,3.16-.24,1.9.54,3.54,1.69,3.68,1.18.14,2.32-1.28,2.54-3.16.22-1.88-.54-3.54-1.7-3.68ZM122.17,89.63l-1.3-1.52s1.21-1.95,1.21-1.99l1.04,1.73-.95,1.78Z"/>
  <path d="M133.2,85.78c-1.18-.14-2.3,1.28-2.54,3.16-.22,1.9.54,3.54,1.71,3.68,1.18.16,2.3-1.26,2.52-3.16.24-1.88-.52-3.53-1.69-3.68ZM132.49,90.77l-1.09-1.68s1.43-1.78,1.43-1.8l.81,1.83-1.16,1.64Z"/>
  <path d="M127.82,85.14c-1.18-.16-2.3,1.26-2.52,3.16-.24,1.88.52,3.53,1.69,3.68,1.18.14,2.3-1.28,2.54-3.18.22-1.88-.54-3.53-1.71-3.67ZM127.58,90.31l-1.3-1.54s1.21-1.95,1.21-1.97l1.04,1.73-.95,1.78Z"/>
  <path d="M158.32,77.79c-1.21-.16-2.44,1.82-2.75,4.37-.31,2.56.41,4.77,1.62,4.91,1.21.14,2.44-1.82,2.75-4.37.31-2.56-.41-4.75-1.62-4.91ZM157.96,83.91l-1.28-1.54s1.21-1.95,1.21-1.97l1.02,1.73-.95,1.78Z"/>
  <path d="M111.99,71.41c-1.38-.17-2.78,2.07-3.13,5.01-.36,2.92.47,5.43,1.85,5.6,1.38.17,2.78-2.07,3.15-5.01.35-2.92-.48-5.43-1.87-5.6ZM112.47,77.65c-.12.1-1.42,1.47-1.42,1.47,0,0-.78-2.06-.88-2.11,0-.14,1.75-2.4,1.75-2.4,0,0,.67,2.92.55,3.04Z"/>
  <path d="M156.28,88.35c-1.49-.19-3.01,2.23-3.39,5.38-.38,3.15.52,5.84,2.01,6.02,1.47.19,2.99-2.21,3.37-5.38.38-3.15-.52-5.84-1.99-6.02ZM155.8,96.27l-1.62-1.94s1.52-2.45,1.52-2.49l1.3,2.18-1.19,2.25Z"/>
</svg>