<?xml version="1.0" encoding="UTF-8"?>
<svg id="Layer_1" data-name="Layer 1" xmlns="http://www.w3.org/2000/svg" viewBox="0 0 200 200">
  <path d="M7.57,50.33h9.93v15.82h17.56v-15.82h9.9v44.29h-9.9v-18.98h-17.56v18.98H7.57v-44.29Z"/>
  <path d="M63.21,94.61l-11.89-31.63h10.85l6.01,18.66,7.15-18.66h10.57l-18.13,47.45h-10.5l5.95-15.82Z"/>
  <path d="M89.4,78.8c0-9.71,6.45-16.64,16.29-16.64,3.8,0,7.28,1.55,9.43,4.05v-19.04h9.9v47.45h-10.22v-3.45c-1.87,2.66-5.6,4.27-9.11,4.27-9.84,0-16.29-6.93-16.29-16.64ZM105.7,86.01c4.27,0,7.09-3.01,7.09-7.21s-2.82-7.21-7.09-7.21-7.12,3.01-7.12,7.21,2.82,7.21,7.12,7.21Z"/>
  <path d="M143.56,77.06v17.56h-9.93l-.03-31.63h9.93l.03,1.99c3.48-2.88,8.86-3.92,13.98-1.65l-3.76,9.05c-5.25-2.5-10.22.35-10.22,4.68Z"/>
  <path d="M158.94,78.8c0-9.71,6.45-16.64,16.29-16.64s16.29,6.93,16.29,16.64-6.48,16.64-16.29,16.64-16.29-6.93-16.29-16.64ZM175.23,86.01c4.27,0,7.09-3.01,7.09-7.21s-2.82-7.21-7.09-7.21-7.12,3.01-7.12,7.21,2.82,7.21,7.12,7.21Z"/>
  <path d="M7.57,130.72c0-14.24,9.59-24.53,24.06-24.53s24.03,10.3,24.03,24.53c0,6.02-1.72,11.37-4.81,15.55l4.74,4.51-4.91,4.75-4.71-4.48c-3.87,2.66-8.78,4.21-14.34,4.21-14.47,0-24.06-10.3-24.06-24.53ZM31.56,148.62c3.67,0,6.73-.84,9.36-2.39l-7.84-7.5,4.95-4.81,7.94,7.61c1.99-2.93,3.06-6.53,3.06-10.77,0-10.63-6.7-17.87-17.47-17.87s-17.43,7.24-17.43,17.87,6.73,17.87,17.43,17.87Z"/>
  <path d="M68.95,153.2c-4.51-2.52-7.4-7.07-7.4-12.35v-20.86h6.97v19.99c0,1.62.34,2.86,1.18,4.17,1.65,2.63,4.31,4.17,7.57,4.17,5.11,0,8.72-3.47,8.72-8.35v-19.99h7l.03,34.29h-7l-.03-2.73c-2.49,2.22-5.92,3.53-9.62,3.53-2.66,0-5.22-.61-7.4-1.88Z"/>
  <path d="M98.13,137.11c0-10.43,7-17.97,17.63-17.97s17.6,7.54,17.6,17.97v2.83h-28.4c1.04,5.25,4.91,8.55,10.8,8.55,5.01,0,8.48-2.46,10.16-6.53l6.46,1.48c-2.22,7-8.35,11.64-16.62,11.64-10.63,0-17.63-7.54-17.63-17.97ZM126.5,134.05c-1.11-5.08-4.98-8.28-10.74-8.28s-9.66,3.2-10.8,8.28h21.54Z"/>
  <path d="M158.67,144.21c0-3.16-4.11-3.6-7.17-4.14-2.32-.37-4.54-1.01-6.39-1.65-4.04-1.48-6.8-4.27-6.8-8.95,0-2.12.67-4.14,1.95-5.75,2.59-3.1,6.87-4.85,11.48-4.85,6.66,0,12.96,3.53,14,9.22l-5.75,2.09c-.84-2.79-3.53-4.88-8.25-4.88-2.42,0-6.93,1.04-6.93,4.17s4.14,3.57,7.2,4.11c2.15.34,4.34,1.01,6.23,1.72,4.04,1.72,7,4.64,7,8.95,0,2.09-.67,4.11-1.99,5.69-2.52,3.13-6.86,4.88-11.51,4.88h-.03c-6.66,0-12.96-3.53-14-9.22l5.75-2.09c.84,2.79,3.53,4.88,8.25,4.88h.03c2.42,0,6.93-1.04,6.93-4.17Z"/>
  <path d="M176.51,144.85v-18.14h-6.02v-6.73h6.02l-.03-10.06h6.97v10.06h8.04v6.73h-8.04v18.14c0,3.97,6.83,3.03,8.08,1.31v6.93c-1.55.84-3.37,1.31-5.05,1.31-5.52,0-9.96-4.21-9.96-9.56Z"/>
</svg>