<?xml version="1.0" encoding="UTF-8"?>
<svg id="Layer_1" data-name="Layer 1" xmlns="http://www.w3.org/2000/svg" viewBox="0 0 200 200">
  <polygon points="46.25 121.38 45.66 121.12 45.65 121.12 46.25 121.38"/>
  <polygon points="178.04 178.35 3.06 178.35 3.06 197.25 176.23 197.25 196.94 197.25 196.94 74.7 178.04 74.7 178.04 178.35"/>
  <polygon points="22.26 131.72 22.26 131.59 22.11 131.65 22.26 131.72"/>
  <polygon points="46.25 141.92 121.34 173.89 121.34 153.34 70.38 131.65 121.34 109.96 121.34 89.42 46.25 121.38 22.26 131.59 22.26 131.72 46.25 141.92"/>
  <polygon points="22.11 131.65 21.96 131.58 21.52 131.39 21.52 131.39 22.11 131.65"/>
  <polygon points="56.92 74.45 120.73 47.29 120.73 26.78 21.65 68.95 21.65 89.46 56.92 74.45"/>
  <polygon points="32.97 115.99 120.73 78.63 120.73 58.12 81.79 74.7 21.65 100.29 21.65 120.8 32.97 115.99"/>
  <path d="M61.37,20.8l-39.11,17.25-.3.13v-.11l-.3.13v20.33l.61-.26v.09l28.03-11.93,58.81-25.64"/>
  <polygon points="196.94 2.75 196.94 21.35 21.65 21.35 21.65 131.34 21.52 131.39 9.49 126.27 9.45 126.26 9.44 126.26 3.06 123.54 3.06 2.75 178.04 2.75 178.04 2.89 178.37 2.75 196.94 2.75"/>
</svg>